<svg width="1007" height="512" viewBox="0 0 1007 512" fill="none" xmlns="http://www.w3.org/2000/svg">
<path d="M503.413 80C389.436 80 295.737 109.6 223.889 147.7C156.587 183.5 110.087 226 86.313 256C110.087 286 156.587 328.5 223.715 364.3C295.737 402.4 389.436 432 503.413 432C617.39 432 711.088 402.4 782.936 364.3C850.238 328.5 896.738 286 920.512 256C896.738 226 850.238 183.5 783.111 147.7C711.088 109.6 617.39 80 503.413 80ZM166.726 112.6C249.062 68.8 362.165 32 503.413 32C644.66 32 757.763 68.8 840.099 112.6C921.911 156.1 976.627 208 1002.67 243.7C1008.44 251.6 1008.44 260.4 1002.67 268.3C976.627 304 921.911 356 840.099 399.4C757.763 443.2 644.66 480 503.413 480C362.165 480 249.062 443.2 166.726 399.4C84.9146 356 30.1986 304 4.32658 268.3C-1.44219 260.4 -1.44219 251.6 4.32658 243.7C30.1986 208 84.9146 156 166.726 112.6ZM503.413 336C580.679 336 643.262 300.2 643.262 256C643.262 211.8 580.679 176 503.413 176C502.189 176 501.14 176 499.916 176C502.189 181.1 503.413 186.5 503.413 192C503.413 227.3 453.242 256 391.533 256C381.919 256 372.479 255.3 363.564 254C363.564 254.7 363.564 255.3 363.564 256C363.564 300.2 426.146 336 503.413 336ZM503.413 128C562.757 128 619.671 141.486 661.634 165.49C703.597 189.495 726.224 222.052 726.224 256C726.224 289.948 703.597 322.505 661.634 346.51C619.671 370.514 562.757 384 503.413 384C444.068 384 387.154 370.514 345.192 346.51C303.229 322.505 279.654 289.948 279.654 256C279.654 222.052 303.229 189.495 345.192 165.49C387.154 141.486 444.068 128 503.413 128Z" fill="black"/>
</svg>
