<svg preserveAspectRatio="xMidYMid meet" data-bbox="14.94 9.56 670.11 180.89" viewBox="0 0 699 206" xmlns="http://www.w3.org/2000/svg" data-type="ugc" role="presentation" aria-hidden="true">
    <g>
        <path d="M247.89 56.54c7.29-4.37 11.72-11.79 11.72-20.85 0-15.43-11.53-26.13-27.45-26.13h-32v73.83h20.34V60.8h7.37l11.98 22.59h22.7l-14.66-26.85zm-18.11-12.88h-9.29V27.63h9.29c5.69 0 8.96 3.38 8.96 8s-3.27 8.03-8.96 8.03z" fill="#ffffff"></path>
        <path d="M296.84 24.57c-17.88 0-30.94 12.84-30.94 30.3 0 17.4 13.16 30.39 30.94 30.39 14.29 0 25.81-8.12 29.82-21.12h-19.52c-1.88 3.33-5.71 5.34-10.29 5.34-6.2 0-10.35-3.38-11.63-9.91h42.29c.26-1.76.41-3.48.41-5.19v-.01c-.01-16.7-12.72-29.8-31.08-29.8zM285.56 48.7c1.59-5.65 5.56-8.76 11.28-8.76 5.92 0 10.03 3.07 11.74 8.76h-23.02z" fill="#ffffff"></path>
        <path d="M382.94 26.33v4.44c-4.7-3.88-10.7-6.12-17.4-6.12-17.41 0-29.87 12.55-29.87 30.19 0 17.7 12.45 30.41 29.87 30.41 6.61 0 12.74-2.4 17.4-6.19v4.22l16.63.04V26.37l-16.63-.04zm-16.89 41.55c-7.35 0-12.75-5.55-12.75-12.99 0-7.39 5.36-12.95 12.75-12.95 7.35 0 12.75 5.55 12.75 12.95 0 7.44-5.4 12.99-12.75 12.99z" fill="#ffffff"></path>
        <path d="M451.26 59.36c-1.62 5.09-5.89 8.31-11.15 8.31-6.83 0-11.8-5.36-11.8-12.78s4.9-12.66 11.8-12.66c5.12 0 9.46 3.01 11.11 7.66h19.11c-2.14-15.15-14.15-25.24-30.16-25.24-18.39 0-31.51 12.55-31.51 30.18s13.18 30.42 31.45 30.42l-.01.01c16.04 0 28.21-10.43 30.43-25.89h-19.27v-.01z" fill="#ffffff"></path>
        <path d="M506.73 66.2c-4.14 0-6.6-2.46-6.6-6.54V41.54h13.82V26.43h-14.31V9.56h-19.13v53.48c0 12.66 7.66 20.36 20.25 20.36h13.5V66.2h-7.53z" fill="#ffffff"></path>
        <path d="M526.74 9.56v12.38h19.32V9.56h-19.32zm-.16 16.87v56.95h19.62V26.43h-19.62z" fill="#ffffff"></path>
        <path d="m598.47 26.43-10.64 33.73-10.76-33.73h-21.5l23.2 56.96h17.77l22.9-56.96h-20.97z" fill="#ffffff"></path>
        <path d="M653.98 24.57c-17.88 0-30.94 12.84-30.94 30.3 0 17.4 13.16 30.39 30.94 30.39 14.29 0 25.81-8.12 29.82-21.12h-19.52c-1.89 3.33-5.72 5.34-10.3 5.34-6.2 0-10.34-3.38-11.63-9.91h42.29c.26-1.76.41-3.48.41-5.19v-.01c0-16.7-12.71-29.8-31.07-29.8zM642.7 48.7c1.59-5.65 5.56-8.76 11.28-8.76 5.92 0 10.02 3.07 11.74 8.76H642.7z" fill="#ffffff"></path>
        <path d="M240.03 128.6c-1.93-.57-3.84-1.07-5.67-1.54-.33-.08-.66-.17-.99-.25-3.35-.84-6.31-1.64-8.4-2.76-1.95-1.05-3.13-2.38-3.13-4.31 0-3.45 3.48-5.02 7.1-5.02 4.22 0 7.7 2.19 7.7 6.86h20.4c0-15.02-10.15-24.11-27.86-24.11-17.41 0-28.09 8.33-28.09 22.87 0 13.68 9.02 18.39 18.14 21.11 2.08.62 4.17 1.13 6.15 1.62 6.63 1.61 12.12 2.9 12.72 6.92.04.24.06.49.06.75 0 4.03-4.07 6.3-8.33 6.3-4.19 0-7.92-2.1-8.6-6.4-.07-.46-.11-.94-.11-1.45h-20.98c0 16.1 11.68 25.65 29.75 25.65 17.15 0 29.53-8.37 29.53-24.5.02-14.02-9.82-18.89-19.39-21.74z" fill="#ffffff"></path>
        <path d="M303.46 114.22c-6.77 0-12.8 2.34-17.48 6.39l-.02-4.52h-16.83v74.36h16.83v-22.03c7.14 5.43 11.18 6.5 17.5 6.56 17.41.16 29.86-12.66 29.86-30.4 0-17.76-12.45-30.36-29.86-30.36zm.54 43.38c-7.35 0-12.75-5.55-12.75-13.04 0-7.48 5.41-13.03 12.75-13.03 7.35 0 12.75 5.55 12.75 13.03-.01 7.48-5.45 13.04-12.75 13.04z" fill="#ffffff"></path>
        <path d="M387.9 115.99v4.44c-4.7-3.88-10.69-6.12-17.4-6.12-17.42 0-29.87 12.55-29.87 30.19 0 17.7 12.45 30.41 29.87 30.41 6.61 0 12.74-2.4 17.4-6.18v4.21l16.63.04v-56.96l-16.63-.03zm-16.89 41.55c-7.35 0-12.75-5.55-12.75-12.99 0-7.39 5.36-12.95 12.75-12.95 7.35 0 12.75 5.55 12.75 12.95 0 7.44-5.4 12.99-12.75 12.99z" fill="#ffffff"></path>
        <path d="M456.22 149.02c-1.62 5.09-5.89 8.31-11.15 8.31-6.83 0-11.8-5.36-11.8-12.78s4.91-12.66 11.8-12.66c5.12 0 9.46 3.01 11.11 7.66h19.11c-2.15-15.15-14.15-25.24-30.16-25.24-18.39 0-31.51 12.55-31.51 30.18s13.18 30.42 31.45 30.42v.01c16.04 0 28.21-10.43 30.42-25.89l-19.27-.01z" fill="#ffffff"></path>
        <path d="M514.23 114.22c-17.87 0-30.94 12.84-30.94 30.3 0 17.4 13.17 30.39 30.94 30.39 14.29 0 25.82-8.12 29.82-21.12h-19.52c-1.89 3.33-5.72 5.34-10.3 5.34-6.19 0-10.34-3.38-11.62-9.91h42.29c.25-1.76.41-3.48.41-5.19v-.01c-.01-16.7-12.72-29.8-31.08-29.8zm-11.28 24.13c1.59-5.65 5.56-8.76 11.28-8.76 5.92 0 10.03 3.07 11.74 8.76h-23.02z" fill="#ffffff"></path>
        <path fill="#ffffff" d="M512.88 9.56h-19.13"></path>
        <path d="M156.86 151.77c6.6-11.24 10.38-24.34 10.38-38.33v.63c0 41.74-34.15 75.89-75.89 75.89s-75.89-34.15-75.89-75.89v-.63c0 16.6 5.33 31.96 14.38 44.45 3.49-3.63 8.7-5.13 13.61-3.85.32-.12.65-.23.98-.33 4.08-7.89 14.02-9.65 20.58-4.99 3.31-6.42 10.5-8.81 16.6-6.97 5.37-3.61 12.47-3.93 18.12-.83 6.3-2.1 13.9.28 17.2 7.34 4.98-1.58 10.37-.24 14.04 3.35 5.17-3.49 12.87-2.2 16.11 4.09 2.66-2.54 6.17-3.94 9.78-3.93z" fill="#ffffff"></path>
        <linearGradient gradientTransform="matrix(1 0 0 -1 0 208)" y2="44.99" x2="91.35" y1="198.04" x1="91.35" gradientUnits="userSpaceOnUse" id="svgcid-u97o2ycb6h5j">
            <stop offset=".002" stop-color="#2b29d7"></stop>
            <stop offset=".2" stop-color="#322fd9"></stop>
            <stop offset=".472" stop-color="#4341dc"></stop>
            <stop offset=".785" stop-color="#605ee1"></stop>
            <stop offset="1" stop-color="#7776e6"></stop>
        </linearGradient>
        <path d="M167.76 24.58v88.6c0 14.08-3.81 27.27-10.45 38.59-.88 1.51-1.81 2.97-2.79 4.41-1.12 1.64-2.3 3.24-3.55 4.79-.54.69-1.11 1.37-1.68 2.04a17.56 17.56 0 0 0-5.68-6.78c-3.17-2.28-7.08-3.51-11.14-3.26a17.284 17.284 0 0 0-6.34 1.64c-4.49-5.7-12.04-8.04-18.96-5.85h-.01s0-.01-.01-.01c-1.7-3.62-4.31-6.25-7.35-7.91-5.68-3.11-12.84-2.8-18.24.84-2.48 1.66-4.59 4.03-6.02 7.08-1.74-.55-3.5-.81-5.26-.81-1.82 0-3.62.28-5.33.83-.06.02-.12.04-.19.06a17.414 17.414 0 0 0-8.2 5.76c-4.18-1.97-8.56-2.11-12.45-.89-.33.1-.66.22-.98.34-4.21 1.6-7.74 4.8-9.71 8.93-1.4-1.63-2.73-3.31-4-5.06-9.1-12.57-14.48-28.03-14.48-44.75v-88.6c0-1.79.32-3.5.91-5.08a14.53 14.53 0 0 1 4.22-6.03c2.55-2.18 5.87-3.5 9.49-3.5h123.57c3.63 0 6.95 1.32 9.5 3.51 1.88 1.6 3.34 3.67 4.21 6.03.6 1.59.92 3.3.92 5.08z" fill="url(#svgcid-u97o2ycb6h5j)"></path>
        <path d="M43.13 154.06c-4.21 1.6-7.74 4.8-9.71 8.93-1.4-1.63-2.73-3.31-4-5.06 3.52-3.65 8.76-5.17 13.71-3.87z" fill="#4949db"></path>
        <path d="M64.77 148.85a17.414 17.414 0 0 0-8.2 5.76c-4.18-1.97-8.56-2.11-12.45-.89 4.11-7.94 14.11-9.72 20.72-5.02.04.03.08.05.11.08-.06.02-.12.04-.18.07z" fill="#4949db"></path>
        <path d="M81.56 141.69c-2.48 1.66-4.59 4.03-6.02 7.08-1.74-.55-3.5-.81-5.26-.81-1.82 0-3.62.28-5.33.83-.06.02-.12.04-.19.06.02-.05.05-.1.07-.15 3.34-6.47 10.58-8.87 16.73-7.01z" fill="#4949db"></path>
        <path d="M157.31 151.77a76.315 76.315 0 0 1-8.02 11.23c-1.3-2.73-3.28-5.05-5.68-6.78.86.22 1.73.53 2.58.93 2.74-3.45 6.86-5.38 11.12-5.38z" fill="#4949db"></path>
        <path d="M154.52 156.18c-1.12 1.64-2.3 3.24-3.55 4.79-.83.01-1.68.19-2.46.58a17.56 17.56 0 0 0-4.9-5.32c-3.17-2.28-7.08-3.51-11.14-3.26-1.12.07-2.24.25-3.37.55 5.02-5.8 14.98-5.04 18.58 2.63 2.29-.72 4.67-.68 6.84.03z" fill="#4949db"></path>
        <path d="M132.47 152.96c-2.1.13-4.25.65-6.34 1.64-4.49-5.7-12.04-8.04-18.96-5.85-.01 0-.02-.01-.02-.01-1.7-3.62-4.31-6.25-7.35-7.91 6.34-2.11 13.99.29 17.32 7.39 5.61-1.76 11.72.13 15.35 4.74z" fill="#4949db"></path>
        <path d="M100.74 119.13v4.65c0 5.22-4.27 9.49-9.49 9.49-5.22 0-9.49-4.27-9.49-9.49v-4.65c0-1.35 1.09-2.44 2.44-2.44h14.1c1.35 0 2.44 1.09 2.44 2.44z" fill="#ffffff"></path>
        <path d="M123.83 78.36c-1.75-1.86-4.89-.81-5.12 1.75l-2.44 25.37c-.12 1.75 1.16 3.26 2.91 3.26h18.27c3.37 0 6.17-2.79 6.17-6.17v-.7c0-1.51-.58-3.03-1.63-4.19l-18.16-19.32z" fill="#ffffff"></path>
        <path d="M45.29 108.61h18.27c1.75 0 3.14-1.51 2.91-3.26l-2.44-25.37c-.23-2.56-3.37-3.61-5.12-1.75L40.87 97.68a6.302 6.302 0 0 0-1.63 4.19v.7c0 3.37 2.67 6.04 6.05 6.04z" fill="#ffffff"></path>
        <path d="M98.7 25.42c-3.49-5.35-11.29-5.35-14.78-.12l-9.54 14.43c-5.93 9.08-8.61 19.78-7.56 30.49l3.84 40.73c.12 1.51 1.4 2.68 2.91 2.68h35.61c1.51 0 2.79-1.16 2.91-2.68l3.84-40.14c1.05-10.59-1.63-21.18-7.45-30.14L98.7 25.42zm-7.33 41.35c-5.47 0-10.01-4.42-10.01-10.01s4.42-10.01 10.01-10.01 10.01 4.42 10.01 10.01-4.55 10.01-10.01 10.01z" fill="#ffffff"></path>
    </g>
</svg>