<svg width="50" height="50" viewBox="0 0 50 50" fill="none" xmlns="http://www.w3.org/2000/svg">
<g clip-path="url(#clip0_271_192)">
<path d="M0 0V50H50V0H0ZM25 37.0833L23.0573 35.1389L25 33.1962L26.9444 35.1389L25 37.0833ZM28.4028 36.599L33.1719 41.3681H16.8299L21.5972 36.599L25 40L28.4028 36.599ZM12.9184 25L14.8542 23.0573L16.7969 25L14.8542 26.9427L12.9184 25ZM13.3993 28.4045L8.63368 33.1719V16.8281L13.4028 21.5972L9.99305 25.0035L13.3993 28.4045ZM25 12.9167L26.9444 14.8611L25 16.8038L23.0573 14.8611L25 12.9167ZM21.599 13.401L16.8299 8.63194H33.1719L28.3958 13.401L24.9931 10L21.599 13.401ZM26.4601 18.2621L28.3958 16.3194L33.6736 21.5972L31.7309 23.5417L26.4601 18.2621ZM30.2795 25L25 30.2778L19.7153 25L24.9931 19.7205L30.2795 25ZM23.5347 18.2621L18.2552 23.5417L16.3125 21.5972L21.592 16.3194L23.5347 18.2621ZM18.2552 26.4583L23.5347 31.7378L21.592 33.6806L16.3125 28.4028L18.2552 26.4583ZM26.4531 31.7378L31.7309 26.4583L33.6736 28.4028L28.3958 33.6806L26.4531 31.7378ZM33.1892 25L35.1337 23.0573L37.0764 25L35.1337 26.9427L33.1892 25ZM39.9948 25L36.592 21.5955L41.3611 16.8264V33.1701L36.592 28.401L39.9948 25ZM41.3611 13.9097L35.1337 20.1372L29.8542 14.8594L36.0816 8.6302H41.3611V13.9097ZM13.9115 8.63194L20.1389 14.8611L14.8542 20.1389L8.62674 13.9114V8.63194H13.9115ZM8.63368 36.0885L14.8542 29.8628L20.1337 35.1406L13.9062 41.3681H8.62847L8.63368 36.0885ZM36.0885 41.3681L29.8611 35.1406L35.1406 29.8611L41.368 36.0885V41.3681H36.0885Z" fill="#151515"/>
</g>
<defs>
<clipPath id="clip0_271_192">
<rect width="50" height="50" fill="white"/>
</clipPath>
</defs>
</svg>
