<svg preserveAspectRatio="xMidYMid meet" data-bbox="0 0 24 24" xmlns="http://www.w3.org/2000/svg" viewBox="0 0 24 24" height="24" width="24" data-type="ugc" role="presentation" aria-hidden="true">
    <g fill-rule="evenodd">
        <path d="M24 0v24H0V0h24z" fill="none"></path>
        <path fill="#FFFFFFFF" d="M18 3a3 3 0 0 1 3 3v12a3 3 0 0 1-3 3H6a3 3 0 0 1-3-3V6a3 3 0 0 1 3-3h12ZM8 10a1 1 0 0 0-1 1v5a1 1 0 1 0 2 0v-5a1 1 0 0 0-1-1Zm3-1a1 1 0 0 0-1 1v6a1 1 0 1 0 2 0v-3.66a4.14 4.14 0 0 1 1.393-.993c.333-.142.834-.2 1.182-.09a.55.55 0 0 1 .293.188c.052.07.132.226.132.555v4a1 1 0 0 0 2 0v-4c0-.67-.17-1.266-.524-1.744a2.54 2.54 0 0 0-1.301-.907c-.902-.283-1.901-.126-2.568.16a5.82 5.82 0 0 0-.623.312A1 1 0 0 0 11 9ZM8 7a1 1 0 1 0 0 2 1 1 0 0 0 0-2Z"></path>
    </g>
</svg>