<svg width="192" height="196" viewBox="0 0 192 196" fill="none" xmlns="http://www.w3.org/2000/svg">
<path d="M49.0376 47.5722L50.2246 48.0266C50.9547 48.304 51.6881 48.5687 52.4262 48.8415C52.8184 48.9807 53.0364 48.93 53.2259 48.6809C53.2962 48.6074 53.3466 48.5172 53.3722 48.4189C53.3978 48.3205 53.3979 48.2172 53.3723 48.1188C53.3468 48.0204 53.2965 47.9302 53.2262 47.8567C53.1559 47.7833 53.068 47.729 52.9709 47.6991C52.5126 47.5013 52.0395 47.3336 51.5825 47.1567C51.1255 46.9797 50.4718 46.7227 49.9341 46.5923C49.3965 46.4619 48.9008 46.6835 49.0376 47.5722Z" fill="#D1D1D1"/>
<path d="M47.8244 54.4641C47.7282 54.6631 47.6499 54.8702 47.5904 55.083C47.5796 55.1928 47.6116 55.3026 47.6798 55.3894C47.7479 55.4763 47.847 55.5334 47.9563 55.549C48.1782 55.612 48.4073 55.6459 48.638 55.6499L51.429 55.6617C51.5283 55.6762 51.6296 55.6672 51.7247 55.6354C51.8199 55.6037 51.9063 55.5501 51.977 55.479C52.0478 55.4078 52.1009 55.3211 52.1321 55.2257C52.1632 55.1304 52.1717 55.029 52.1566 54.9298C52.1642 54.8032 52.1227 54.6786 52.0408 54.5818C51.9589 54.4849 51.8428 54.4234 51.7167 54.4099C51.571 54.3876 51.424 54.3755 51.2766 54.3737C50.4417 54.3613 49.6114 54.3569 48.7778 54.3652C48.4584 54.3811 48.1402 54.4141 47.8244 54.4641Z" fill="#D1D1D1"/>
<path d="M93.4439 62.5786C93.3233 62.4755 93.1921 62.3855 93.0524 62.3101C92.0115 61.9222 90.9659 61.5261 89.9181 61.1636C89.8204 61.1211 89.7133 61.1051 89.6075 61.1173C89.5017 61.1294 89.401 61.1692 89.3155 61.2327C89.2301 61.2963 89.1629 61.3812 89.1208 61.479C89.0786 61.5768 89.0631 61.684 89.0756 61.7897C89.0639 61.8995 89.0873 62.0102 89.1425 62.1059C89.1977 62.2015 89.2819 62.2771 89.3828 62.3218C90.4573 62.712 91.5283 63.1148 92.6177 63.4749C92.7133 63.5228 92.8201 63.5436 92.9267 63.5352C93.0333 63.5268 93.1356 63.4894 93.2224 63.4271C93.3093 63.3647 93.3775 63.2799 93.4196 63.1816C93.4617 63.0833 93.4762 62.9754 93.4614 62.8695C93.4649 62.7722 93.4591 62.6748 93.4439 62.5786Z" fill="#D1D1D1"/>
<path d="M90.6354 55.6108C90.811 55.6169 90.9958 55.6392 91.1794 55.6407C92.1759 55.6351 93.1771 55.6376 94.1769 55.6192C94.64 55.6206 94.8297 55.4466 94.8616 55.0735C94.8772 54.9814 94.8709 54.887 94.8432 54.7978C94.8156 54.7086 94.7674 54.6271 94.7024 54.56C94.6375 54.4928 94.5577 54.4419 94.4695 54.4113C94.3813 54.3806 94.2871 54.3712 94.1945 54.3836C93.0997 54.3493 92.0189 54.3391 90.9334 54.3208C90.7983 54.3226 90.6674 54.3675 90.5598 54.449C90.4521 54.5305 90.3733 54.6443 90.3349 54.7738C90.2005 55.1739 90.3503 55.3777 90.6354 55.6108Z" fill="#D1D1D1"/>
<path d="M67.5369 78.3103C67.6506 78.135 67.7443 77.9475 67.8162 77.7513C67.9308 77.2982 68.0119 76.8428 68.101 76.3828C68.1902 75.9229 68.3531 75.1623 68.4391 74.5107C68.4778 74.4237 68.4963 74.3292 68.4934 74.234C68.4904 74.1389 68.4661 74.0457 68.4221 73.9613C68.3782 73.8769 68.3157 73.8034 68.2395 73.7465C68.1632 73.6895 68.0751 73.6505 67.9817 73.6323C67.8883 73.6141 67.7919 73.6172 67.6999 73.6413C67.6078 73.6655 67.5224 73.7101 67.45 73.7719C67.3775 73.8336 67.3199 73.9109 67.2815 73.998C67.2431 74.085 67.2248 74.1796 67.2279 74.2748C67.0363 75.3206 66.8493 76.3746 66.6784 77.4192C66.6011 77.9368 66.786 78.2386 67.1858 78.298C67.3021 78.3146 67.4198 78.3188 67.5369 78.3103Z" fill="#D1D1D1"/>
<path d="M74.964 36.2478C75.0821 36.0918 75.1785 35.9204 75.2504 35.7384C75.465 34.6578 75.6541 33.5704 75.8352 32.4876C75.8573 32.4016 75.8604 32.3117 75.8444 32.2243C75.8284 32.1369 75.7936 32.054 75.7425 31.9814C75.6913 31.9087 75.625 31.848 75.5481 31.8035C75.4713 31.7589 75.3856 31.7316 75.2972 31.7233C75.2208 31.6999 75.1401 31.694 75.0611 31.7061C74.9822 31.7182 74.9069 31.748 74.8411 31.7933C74.7752 31.8385 74.7204 31.8981 74.6808 31.9675C74.6412 32.0369 74.6178 32.1143 74.6122 32.194C74.3955 33.3081 74.2042 34.429 74.0082 35.5419C73.9745 35.6569 73.9822 35.7801 74.0299 35.89C74.0777 36 74.1625 36.0896 74.2695 36.1435C74.4944 36.2132 74.7286 36.2483 74.964 36.2478Z" fill="#D1D1D1"/>
<path d="M80.4068 37.9317C80.4975 38.3309 80.6613 38.5588 81.0137 38.5918C81.1643 38.5972 81.3129 38.5549 81.4381 38.471C81.5634 38.3871 81.659 38.2659 81.7113 38.1245L83.0783 35.7444C83.1254 35.6771 83.1671 35.6062 83.2032 35.5325C83.3198 35.2502 83.4189 34.9565 83.1937 34.6781C82.9684 34.3996 82.6893 34.4747 82.3457 34.5871C81.6331 35.6622 80.9856 36.7791 80.4068 37.9317Z" fill="#D1D1D1"/>
<path d="M60.972 71.5764C60.8998 71.641 60.8382 71.7165 60.7894 71.8001L59.1853 74.6074C59.135 74.6938 59.1025 74.7893 59.0895 74.8884C59.0649 75.0121 59.0809 75.1405 59.1351 75.2545C59.1893 75.3685 59.2787 75.4619 59.3902 75.521C59.4898 75.5862 59.6086 75.6154 59.727 75.6038C59.8454 75.5921 59.9563 75.5403 60.0412 75.4569C60.1409 75.3683 60.2261 75.2646 60.2939 75.1498L61.8558 72.4743C61.9479 72.3531 61.9959 72.2042 61.9921 72.0521C61.9883 71.8999 61.9328 71.7536 61.8348 71.6372C61.7129 71.5433 61.566 71.4875 61.4126 71.4766C61.2591 71.4658 61.1058 71.5005 60.972 71.5764Z" fill="#D1D1D1"/>
<path d="M53.1109 40.5876C53.1944 40.6819 53.2847 40.7699 53.3812 40.8509C54.0755 41.439 54.7698 42.0271 55.4721 42.6106C55.6039 42.715 55.7419 42.8112 55.8856 42.8986C55.9845 42.9776 56.1095 43.0164 56.2358 43.0073C56.362 42.9982 56.4802 42.9418 56.5667 42.8493C56.6664 42.7488 56.7317 42.6194 56.7532 42.4794C56.7748 42.3395 56.7515 42.1964 56.6867 42.0705C56.6022 41.9457 56.4985 41.8351 56.3793 41.7428C55.6316 41.0995 54.9119 40.5046 54.1702 39.8901C54.0589 39.7925 53.9331 39.7128 53.7973 39.6539C53.6873 39.5916 53.5588 39.5699 53.4344 39.5926C53.31 39.6153 53.1975 39.681 53.1166 39.7782C53.0275 39.894 52.9788 40.0358 52.9778 40.1819C52.9767 40.3281 53.0235 40.4706 53.1109 40.5876Z" fill="#D1D1D1"/>
<path d="M67.7958 32.0987C67.723 31.9523 67.5999 31.8371 67.449 31.7741C67.2982 31.7112 67.1297 31.7047 66.9744 31.7559C66.8412 31.8134 66.7326 31.9161 66.6679 32.046C66.6032 32.1758 66.5865 32.3244 66.6208 32.4653C66.6792 32.8831 66.7758 33.3111 66.8516 33.7403L67.19 35.5551C67.2142 35.7156 67.2702 35.8696 67.3548 36.0082C67.4285 36.1112 67.5326 36.1885 67.6525 36.2291C67.7724 36.2698 67.9021 36.2719 68.0232 36.235C68.1382 36.2059 68.2395 36.1378 68.3099 36.0423C68.3802 35.9468 68.4152 35.8298 68.4089 35.7114C68.4147 35.5307 68.4038 35.3498 68.3765 35.1711C68.2177 34.2631 68.0555 33.3677 67.8887 32.4643C67.8511 32.3248 67.833 32.1632 67.7958 32.0987Z" fill="#D1D1D1"/>
<path d="M93.1136 47.7628C93.2518 47.5931 93.3681 47.4067 93.4598 47.2081C93.4843 47.1399 93.4924 47.0669 93.4837 46.9949C93.4749 46.923 93.4495 46.8541 93.4094 46.7937C93.3693 46.7334 93.3157 46.6832 93.2528 46.6472C93.1899 46.6112 93.1195 46.5904 93.0471 46.5864C92.8343 46.5472 92.6154 46.5561 92.4064 46.6123C91.5117 46.9246 90.631 47.2611 89.7503 47.5976C89.6126 47.6558 89.4826 47.7308 89.3633 47.821C89.2504 47.9083 89.1692 48.0302 89.1323 48.168C89.0954 48.3059 89.1047 48.452 89.1589 48.584C89.221 48.7044 89.3213 48.8008 89.4439 48.8583C89.5665 48.9158 89.7047 48.9312 89.837 48.902C89.9817 48.8656 90.1239 48.8195 90.2624 48.7639L92.7572 47.8717L93.0555 47.6995L93.1136 47.7628Z" fill="#D1D1D1"/>
<path d="M56.7515 67.8968C56.7721 67.73 56.7378 67.5612 56.6538 67.4157C56.5698 67.2702 56.4407 67.1561 56.286 67.0905C55.9612 67.0947 55.6512 67.2272 55.4239 67.4593C54.7325 68.0305 54.0503 68.6178 53.3763 69.2004L53.1992 69.3779C52.897 69.6922 52.8567 69.9949 53.0773 70.2653C53.2979 70.5356 53.6134 70.5793 54.0013 70.3016L54.6617 69.7698L56.5311 68.1853C56.6125 68.0954 56.6862 67.9989 56.7515 67.8968Z" fill="#D1D1D1"/>
<path d="M88.4688 39.7165L88.3559 39.7817L85.9415 41.8744C85.8898 41.9142 85.8448 41.9619 85.8081 42.0159C85.7552 42.0642 85.7124 42.1225 85.6823 42.1875C85.6522 42.2525 85.6353 42.3228 85.6326 42.3944C85.6299 42.466 85.6415 42.5374 85.6666 42.6045C85.6918 42.6715 85.7301 42.7329 85.7792 42.785C85.8826 42.9091 86.03 42.9883 86.1905 43.0059C86.3511 43.0235 86.5121 42.9781 86.6399 42.8794C86.8415 42.763 86.9791 42.5545 87.154 42.4106L88.966 40.9129C89.059 40.8409 89.1462 40.7617 89.227 40.6762C89.34 40.5762 89.4147 40.44 89.4385 40.2911C89.4622 40.1421 89.4336 39.9894 89.3574 39.8592C89.2443 39.7431 89.0967 39.6665 88.9367 39.6408C88.7766 39.6151 88.6125 39.6416 88.4688 39.7165Z" fill="#D1D1D1"/>
<path d="M53.3134 62.1098C53.3694 61.9229 53.3592 61.7225 53.2845 61.5424C53.2099 61.3622 53.0754 61.2133 52.9037 61.1208C52.765 61.1427 52.6275 61.1719 52.4919 61.2081C51.5026 61.5427 50.5053 61.8821 49.5173 62.2375C49.3368 62.3193 49.1806 62.4465 49.064 62.6067C48.9925 62.701 48.954 62.8161 48.9543 62.9344C48.9546 63.0526 48.9938 63.1676 49.0657 63.2614C49.124 63.3651 49.2178 63.4442 49.3298 63.4843C49.4418 63.5243 49.5645 63.5225 49.6752 63.4793C50.1296 63.3352 50.5746 63.175 51.0403 63.0136L52.4941 62.4968C52.7835 62.3835 53.0576 62.2252 53.3134 62.1098Z" fill="#D1D1D1"/>
<path d="M61.0616 38.5339C61.8451 38.662 62.1449 38.3062 61.8798 37.6423C61.7821 37.473 61.6796 37.2956 61.5772 37.1182C61.2235 36.5055 60.8651 35.8847 60.5067 35.2639C60.3979 35.0563 60.2645 34.8627 60.1092 34.6871C59.8551 34.4146 59.5778 34.3812 59.3546 34.5531C59.2233 34.6453 59.1334 34.7852 59.1039 34.9428C59.0744 35.1004 59.1077 35.2633 59.1967 35.3967C59.4387 35.816 59.6621 36.203 59.9182 36.6464C60.3033 37.2948 60.6917 37.9304 61.0616 38.5339Z" fill="#D1D1D1"/>
<path d="M147.742 147.594C147.661 148.189 147.414 148.749 147.029 149.21C145.961 150.575 144.739 151.814 143.389 152.902C142.389 153.759 141.336 154.56 140.282 155.341C136.773 157.868 133.1 160.158 129.286 162.195C126.826 163.546 124.281 164.735 121.667 165.755C120.534 166.194 119.407 166.662 118.248 167.02C117.309 167.288 116.355 167.501 115.392 167.658C114.948 167.726 114.499 167.759 114.05 167.756C113.682 167.758 113.325 167.629 113.044 167.391C112.672 167.1 112.393 167.1 112.158 167.364C112.038 167.496 111.974 167.668 111.978 167.846C111.983 168.024 112.056 168.193 112.182 168.318C112.508 168.661 112.943 168.881 113.412 168.941C114.374 169.068 115.352 169.011 116.293 168.772C117.549 168.518 118.783 168.165 119.983 167.716C121.176 167.232 122.395 166.829 123.578 166.329C124.608 165.896 125.584 165.353 126.612 164.899C129.838 163.404 132.955 161.687 135.943 159.76C137.29 158.928 138.541 157.948 139.879 157.1C141.217 156.253 142.308 155.332 143.505 154.426C144.215 153.874 144.892 153.282 145.534 152.653C146.071 152.149 146.574 151.623 147.084 151.092C147.723 150.456 148.258 149.722 148.668 148.919C148.793 148.649 148.886 148.365 148.942 148.073C149 147.874 149.017 147.666 148.992 147.46C148.967 147.255 148.901 147.057 148.797 146.878C148.694 146.698 148.555 146.542 148.39 146.418C148.224 146.293 148.035 146.204 147.834 146.154C147.35 146.003 146.844 145.932 146.337 145.944C144.887 146.041 143.457 146.342 142.09 146.837C140.935 147.256 139.748 147.62 138.608 148.084C137.284 148.623 135.973 149.218 134.688 149.842C133.241 150.538 131.831 151.298 130.412 152.042C130.128 152.17 129.858 152.326 129.606 152.508C129.485 152.586 129.399 152.707 129.366 152.846C129.332 152.986 129.353 153.133 129.425 153.257C129.57 153.507 129.817 153.6 130.171 153.45C130.525 153.299 130.977 152.984 131.449 152.777L134.646 151.221C135.307 150.839 136.018 150.525 136.716 150.208C138.592 149.338 140.519 148.585 142.487 147.952C143.497 147.61 144.539 147.369 145.597 147.231C146.045 147.176 146.497 147.156 146.949 147.171C147.106 147.169 147.261 147.206 147.4 147.281C147.538 147.355 147.656 147.463 147.742 147.594Z" fill="#D1D1D1"/>
<path d="M122.951 156.511C122.588 156.72 122.225 156.93 121.908 157.199C121.59 157.469 121.506 157.732 121.717 158.062C121.753 158.139 121.806 158.206 121.873 158.259C121.939 158.312 122.017 158.348 122.1 158.365C122.183 158.382 122.269 158.379 122.351 158.357C122.432 158.334 122.508 158.293 122.571 158.236C123.248 157.845 123.879 157.373 124.519 156.917C124.641 156.813 124.717 156.666 124.733 156.507C124.749 156.347 124.704 156.188 124.605 156.061C124.452 155.795 124.188 155.786 123.858 155.977L122.946 156.503L122.951 156.511Z" fill="#D1D1D1"/>
<path d="M116.075 163.33C116.327 163.077 116.672 162.781 116.952 162.447C117.002 162.395 117.04 162.334 117.066 162.267C117.092 162.2 117.103 162.129 117.101 162.057C117.099 161.985 117.082 161.915 117.052 161.849C117.022 161.784 116.98 161.726 116.927 161.677C116.823 161.565 116.681 161.496 116.529 161.484C116.376 161.472 116.225 161.519 116.105 161.614C115.782 161.872 115.477 162.153 115.192 162.453C115.078 162.553 115.007 162.694 114.996 162.845C114.985 162.996 115.034 163.146 115.132 163.262C115.255 163.384 115.418 163.458 115.591 163.47C115.764 163.483 115.935 163.433 116.075 163.33Z" fill="#D1D1D1"/>
<path d="M150.518 67.6483L148.616 69.5308C148.006 70.1305 147.408 70.7336 146.788 71.3172C146.168 71.9008 145.482 72.5551 144.817 73.1539C143.598 74.2447 142.396 75.3471 141.123 76.362C139.351 77.8363 137.678 79.4257 135.77 80.7206C134.83 81.3818 133.971 82.1466 133.049 82.84C132.446 83.285 131.797 83.6701 131.194 84.115C129.177 85.6238 127.05 86.9811 124.831 88.1756C124.61 88.3308 124.337 88.3922 124.07 88.3464C123.975 88.3326 123.885 88.2936 123.81 88.2336C123.735 88.1735 123.678 88.0945 123.643 88.0048C123.609 87.915 123.599 87.8178 123.615 87.723C123.631 87.6282 123.672 87.5394 123.734 87.4657C123.803 87.374 123.891 87.2977 123.991 87.2417C125.7 86.1048 127.435 84.9955 129.122 83.839C130.604 82.8186 132.07 81.7713 133.521 80.6971C134.443 80.0036 135.324 79.2584 136.192 78.5097C137.505 77.3757 138.827 76.2579 140.076 75.0526C141.2 73.9633 142.265 72.8108 143.278 71.6238C144.237 70.5125 145.133 69.349 145.963 68.1385C147.467 66.004 148.497 63.5732 148.985 61.0086C149.241 59.6933 149.245 58.3414 148.996 57.0248C148.775 55.6855 148.233 54.4199 147.415 53.3368C147.309 53.1797 147.214 53.0153 147.131 52.8449C147.072 52.8274 147.009 52.8222 146.948 52.8295C146.887 52.8368 146.827 52.8565 146.774 52.8874C146.72 52.9184 146.674 52.9598 146.637 53.0093C146.6 53.0588 146.573 53.1153 146.559 53.1754C145.094 56.4668 143.419 59.6602 141.543 62.7357C140.85 63.8992 140.177 65.0616 139.445 66.1941C138.43 67.7691 137.405 69.3278 136.329 70.8522C135.253 72.3766 134.058 73.9373 132.881 75.4552C131.913 76.702 130.942 77.9615 129.895 79.1463C128.513 80.7182 127.061 82.2443 125.618 83.7657C124.951 84.4731 124.192 85.1692 123.475 85.863C123.381 85.9713 123.258 86.0501 123.12 86.0894C122.983 86.1288 122.837 86.1272 122.7 86.0847C122.633 86.0717 122.57 86.0446 122.515 86.0051C122.459 85.9657 122.413 85.9148 122.379 85.856C122.345 85.7971 122.324 85.7317 122.318 85.664C122.311 85.5964 122.319 85.5281 122.341 85.4639C122.38 85.2667 122.471 85.0838 122.606 84.935C124.146 83.4152 125.605 81.8157 126.977 80.1431C128.292 78.5668 129.634 77.0182 130.91 75.4109C132.452 73.4457 133.973 71.4066 135.304 69.3372C136.522 67.4623 137.658 65.5382 138.694 63.5532C140.455 60.287 141.71 56.7717 142.414 53.1281C142.731 51.3687 142.781 49.5715 142.561 47.7973C142.434 46.707 142.176 45.6358 141.794 44.6068C141.239 43.0986 140.398 41.7116 139.318 40.522C138.369 39.5226 137.299 38.6453 136.133 37.9104C136.068 37.9476 136 37.9225 135.968 37.9411C135.887 37.9809 135.809 38.026 135.734 38.0761L135.7 38.2033C135.629 39.3837 135.604 40.5697 135.474 41.7412C135.279 43.563 135.055 45.3908 134.755 47.1981C134.396 49.3509 134.007 51.4889 133.54 53.6399C132.95 56.4531 132.19 59.2139 131.324 61.9602C130.525 64.4856 129.637 66.9872 128.645 69.4408C127.654 71.8943 126.488 74.4375 125.236 76.8484C124.269 78.7291 123.186 80.5584 122.08 82.3681C121.322 83.6232 120.454 84.8014 119.63 86.0187C119.473 86.2491 119.286 86.4648 119.065 86.7533C119.158 86.9503 119.267 87.1392 119.391 87.3176C120.307 88.3164 120.946 89.5377 121.243 90.8601C121.593 92.3305 121.464 93.8743 120.874 95.2658C120.535 96.0844 120.05 96.8344 119.442 97.4788C118.746 98.2447 117.917 98.8768 116.993 99.3442C116.896 99.4114 116.794 99.4706 116.687 99.5211C116.319 99.6474 116.025 99.5483 115.913 99.2798C115.853 99.125 115.85 98.9534 115.906 98.7967C115.961 98.6401 116.072 98.5089 116.217 98.4274L117.555 97.6547C118.577 96.9703 119.348 95.9706 119.749 94.8078C120.162 93.8975 120.332 92.8957 120.241 91.9002C120.151 90.9047 119.803 89.9498 119.233 89.1289C118.98 88.7208 118.703 88.328 118.403 87.9525C118.162 87.7047 117.898 87.479 117.616 87.2782C117.477 86.907 117.679 86.6613 117.872 86.3994C118.799 85.1009 119.774 83.8287 120.645 82.4877C122.003 80.4129 123.241 78.2623 124.354 76.0463C125.114 74.5326 125.841 73.0374 126.506 71.471C127.325 69.5367 128.075 67.5773 128.833 65.6132C129.806 63.0732 130.562 60.4543 131.277 57.838C132.074 54.9485 132.725 52.0357 133.23 49.0998C133.828 45.648 134.282 42.1714 134.539 38.6692C134.576 38.0998 134.606 37.5558 134.643 36.9863C134.679 36.4169 135.021 36.0586 135.658 36.3998C136.556 36.8416 137.413 37.3609 138.221 37.9519C139.779 39.1099 141.07 40.5901 142.006 42.2918C142.651 43.4621 143.141 44.7113 143.463 46.0081C144.068 48.5811 144.112 51.2542 143.592 53.8457C143.348 55.0615 142.942 56.2954 142.602 57.5128C142.528 57.8134 142.37 58.0982 142.437 58.4362C142.751 58.459 142.815 58.2174 142.927 58.0564C143.124 57.6525 143.29 57.2338 143.495 56.8252L145.948 51.7648C146.072 51.5321 146.23 51.3225 146.34 51.1407C146.492 51.0786 146.658 51.0637 146.818 51.098C146.978 51.1323 147.124 51.2142 147.236 51.333C148.202 52.2617 148.974 53.3719 149.509 54.5999C150.097 55.9669 150.412 57.4357 150.436 58.9237C150.409 61.3173 149.845 63.6742 148.786 65.8211C148.324 66.8423 147.75 67.8085 147.073 68.7017C146.913 68.9435 146.772 69.1973 146.652 69.461L146.717 69.5739C146.832 69.5699 146.945 69.5448 147.05 69.4997C147.254 69.3551 147.444 69.1915 147.617 69.011L149.738 66.8942C149.947 66.6774 150.128 66.4329 150.341 66.2242C150.735 65.846 151.05 65.8145 151.372 66.3165C152.121 67.41 152.581 68.675 152.711 69.9941C152.864 72.4174 152.137 74.8146 150.663 76.7444C149.421 78.4438 147.929 79.9464 146.239 81.2017C144.897 82.2502 143.463 83.1752 141.954 83.9655C141.822 84.0064 141.705 84.0858 141.618 84.1935C141.531 84.3012 141.478 84.4324 141.465 84.5704C141.657 84.5598 141.847 84.526 142.031 84.4698L144.806 83.3189L149.751 81.2703C150.081 81.0795 150.412 80.8886 150.784 80.7703C150.867 80.719 150.96 80.6882 151.057 80.6807C151.154 80.6732 151.251 80.6891 151.341 80.7271C151.43 80.7651 151.509 80.8241 151.571 80.899C151.633 80.974 151.675 81.0627 151.696 81.1577C151.763 81.3633 151.799 81.5774 151.805 81.7935C151.842 83.3765 151.336 84.9245 150.371 86.1797C149.157 87.7405 147.604 89.0046 145.829 89.8765C145.305 90.1791 144.761 90.4286 144.213 90.6701C143.797 90.8402 143.373 90.9881 142.942 91.1134C142.53 91.2549 142.106 91.3596 141.693 91.5011C141.542 91.5726 141.396 91.6567 141.258 91.7525C141.5 92.0216 141.742 91.957 141.961 91.9272C142.958 91.7923 143.881 91.6785 144.837 91.546L146.917 91.2585C147.048 91.234 147.18 91.226 147.312 91.2348C147.407 91.2255 147.503 91.2421 147.59 91.2828C147.676 91.3236 147.75 91.3869 147.804 91.4662C147.857 91.5454 147.888 91.6376 147.894 91.7331C147.899 91.8285 147.878 91.9236 147.834 92.0084C147.715 92.3923 147.548 92.7596 147.337 93.1018C146.707 94.144 145.905 95.0721 144.966 95.8468C144.323 96.4294 143.625 96.9477 142.881 97.3941C141.566 98.0885 140.158 98.5902 138.7 98.8838C137.925 98.9931 137.145 99.0525 136.362 99.0617C136.155 99.0741 135.935 99.0289 135.773 99.2513C135.936 99.5335 136.249 99.5356 136.494 99.5876C137.638 99.8192 138.789 100.025 139.937 100.244L140.085 100.277C140.741 100.446 140.92 100.924 140.441 101.415C140.056 101.805 139.626 102.148 139.159 102.435C138.053 103.191 136.798 103.703 135.479 103.936C134.791 104.041 134.096 104.083 133.401 104.061C131.158 103.938 128.987 103.231 127.101 102.012C125.584 101.038 124.177 99.9047 122.902 98.6308C122.597 98.3447 122.32 98.0318 122.031 97.7364C121.962 97.6805 121.905 97.611 121.865 97.5321C121.824 97.4533 121.8 97.3668 121.794 97.2781C121.788 97.1895 121.801 97.1006 121.831 97.0172C121.862 96.9337 121.909 96.8575 121.97 96.7933C122.211 96.5578 122.521 96.5933 122.852 96.8863C123.998 97.9228 125.091 99.0333 126.316 99.9817C128.212 101.54 130.521 102.511 132.961 102.778C134.41 102.973 135.883 102.732 137.195 102.086C137.468 101.962 137.75 101.86 138.04 101.78C138.098 101.768 138.154 101.744 138.203 101.71C138.252 101.676 138.294 101.633 138.326 101.582C138.358 101.531 138.379 101.475 138.389 101.416C138.399 101.357 138.396 101.297 138.382 101.239C138.202 101.156 138.014 101.092 137.82 101.047C135.244 100.607 132.719 99.9035 130.287 98.9467C128.805 98.3725 127.343 97.7762 125.91 97.1741C125.087 96.8105 124.345 96.3254 123.515 95.9122C123.379 95.8204 123.267 95.6969 123.189 95.5523C123.126 95.4626 123.092 95.3554 123.092 95.2456C123.092 95.1357 123.126 95.0287 123.19 94.9391C123.261 94.8441 123.359 94.7729 123.471 94.7348C123.584 94.6968 123.705 94.6938 123.819 94.7261C123.982 94.7667 124.14 94.8228 124.292 94.8938C126.948 96.1695 129.767 97.0739 132.67 97.5816C134.622 97.9514 136.624 97.971 138.583 97.6396C140.016 97.4052 141.391 96.8965 142.631 96.1412C143.632 95.5064 144.533 94.7255 145.303 93.8245L145.812 93.2726C145.855 93.233 145.89 93.1849 145.913 93.1313C145.936 93.0776 145.948 93.0196 145.948 92.9611C145.948 92.9026 145.935 92.8448 145.911 92.7914C145.887 92.7381 145.852 92.6904 145.808 92.6514C145.692 92.6475 145.575 92.6503 145.458 92.6599C144.018 92.8464 142.585 93.0826 141.142 93.2276C139.116 93.441 137.066 93.614 135.063 93.7384C132.506 93.931 129.941 93.9763 127.38 93.8743C126.397 93.829 125.427 93.7121 124.442 93.646C124.334 93.6333 124.232 93.5912 124.146 93.5243C124.06 93.4574 123.994 93.3683 123.956 93.2666C123.917 93.1649 123.907 93.0545 123.926 92.9474C123.946 92.8404 123.994 92.7407 124.066 92.6593C124.179 92.5242 124.336 92.4335 124.51 92.4033C126.008 92.355 127.515 92.3772 129.011 92.2874C130.752 92.1745 132.497 91.9947 134.233 91.7988C135.471 91.6535 136.698 91.4506 137.941 91.2384C139.526 90.9586 141.085 90.5441 142.6 89.9994C144.064 89.5352 145.457 88.872 146.74 88.0284C148.069 87.1813 149.161 86.0107 149.914 84.6263C150.171 84.0663 150.392 83.4902 150.574 82.9017C150.592 82.8166 150.589 82.7284 150.565 82.6447C150.542 82.5611 150.497 82.4846 150.437 82.422C150.386 82.3333 150.125 82.3657 149.987 82.424C148.462 83.0786 146.94 83.7747 145.401 84.4051C143.443 85.2025 141.47 85.9757 139.501 86.7362C137.533 87.4967 135.63 88.1114 133.678 88.7332C131.726 89.355 129.738 89.9331 127.73 90.4582C126.807 90.7222 125.852 90.9296 124.901 91.1452C124.708 91.1943 124.507 91.212 124.308 91.1975C124.182 91.1851 124.063 91.1315 123.971 91.0451C123.878 90.9587 123.817 90.8443 123.795 90.7194C123.765 90.6044 123.777 90.482 123.831 90.3757C123.884 90.2694 123.975 90.1865 124.086 90.1431C124.341 90.0214 124.604 89.9165 124.872 89.8289C126.61 89.245 128.337 88.6242 130.091 88.106C131.603 87.6524 132.999 86.943 134.485 86.4075C135.158 86.1585 135.792 85.8035 136.456 85.5385C138.817 84.5261 141.094 83.3267 143.264 81.9516C144.624 81.0999 145.905 80.1268 147.089 79.0444C147.974 78.2861 148.771 77.4325 149.468 76.4991C150.881 74.7745 151.628 72.5999 151.574 70.371C151.484 69.6103 151.327 68.859 151.105 68.126C151.124 68.049 151.121 67.9681 151.096 67.8929C151.07 67.8177 151.024 67.7512 150.963 67.7012C150.901 67.6511 150.827 67.6196 150.748 67.6102C150.669 67.6008 150.589 67.614 150.518 67.6483Z" fill="#D1D1D1"/>
<path d="M148.34 119.751C148.448 119.84 148.516 119.968 148.529 120.107C148.543 120.246 148.502 120.385 148.414 120.493C148.332 120.6 148.217 120.677 148.087 120.711C147.957 120.745 147.819 120.735 147.695 120.682L140.688 118.805C139.277 118.427 137.856 118.032 136.44 117.646C136.329 117.617 136.22 117.579 136.116 117.532C136.01 117.499 135.921 117.428 135.865 117.332C135.81 117.237 135.793 117.124 135.818 117.016C135.835 116.899 135.894 116.792 135.983 116.715C136.073 116.637 136.187 116.595 136.306 116.595C136.472 116.599 136.636 116.627 136.794 116.678L146.21 119.208C146.938 119.389 147.645 119.572 148.34 119.751Z" fill="#D1D1D1"/>
<path d="M131.69 65.2748C131.396 65.1006 131.457 64.8717 131.544 64.6496C132.694 61.5881 133.638 58.4535 134.372 55.2665C135.168 51.9545 135.741 48.5926 136.087 45.2037C136.23 43.8313 136.301 42.4464 136.393 41.0604C136.41 40.8675 136.382 40.669 136.382 40.4646C136.382 40.2602 136.398 40.1758 136.724 39.9769C137.017 40.0553 137.027 40.2966 137.036 40.5171C136.93 41.879 136.849 43.2477 136.705 44.5993C136.541 46.1774 136.378 47.7554 136.129 49.3177C135.881 50.88 135.54 52.6355 135.188 54.2791C134.837 55.9227 134.456 57.3677 134.022 58.8869C133.588 60.4062 133.039 62.0448 132.55 63.6174C132.426 63.9794 132.327 64.3482 132.215 64.7136C132.104 65.079 132.066 65.2188 131.69 65.2748Z" fill="#D1D1D1"/>
<path d="M112.564 58.9027L113.213 58.9472C113.322 59.0294 113.399 59.1471 113.431 59.28C113.462 59.4128 113.446 59.5526 113.386 59.675L112.023 64.7618L110.699 69.7295L110.303 71.1296C110.284 71.2026 110.251 71.2711 110.205 71.3311C110.16 71.3911 110.103 71.4415 110.037 71.4792C109.972 71.5169 109.9 71.5411 109.825 71.5507C109.75 71.5602 109.674 71.5547 109.602 71.5346C109.306 71.4689 109.193 71.2546 109.298 70.8604C109.753 69.1648 110.207 67.4692 110.661 65.7736L112.331 59.5423C112.38 59.31 112.441 59.1562 112.564 58.9027Z" fill="#D1D1D1"/>
<path d="M146.644 55.4476C147.065 55.5808 147.168 55.7582 147.003 56.0684C146.08 57.8589 145.175 59.6608 144.209 61.4329C143.344 63.0072 142.455 64.5954 141.514 66.0742C140.415 67.7834 139.268 69.5205 138.1 71.1839C137.987 71.2774 137.859 71.3513 137.721 71.4027C137.423 71.0911 137.543 70.8712 137.7 70.6407C138.751 69.1095 139.829 67.6058 140.82 66.0449C141.81 64.4839 142.749 62.8886 143.645 61.2749C144.541 59.6613 145.322 58.0169 146.186 56.3676C146.276 56.1871 146.322 55.9883 146.411 55.8078C146.48 55.6824 146.558 55.5621 146.644 55.4476Z" fill="#D1D1D1"/>
<path d="M150.21 69.685C150.304 69.9421 150.165 70.1298 149.996 70.3026L149.514 70.8071L146.924 73.3775C146.305 73.9818 145.696 74.6023 145.051 75.1791C144.405 75.7558 143.54 76.4917 142.787 77.1417C142.521 77.3704 142.265 77.6152 142.012 77.8472C141.759 78.0793 141.647 78.1653 141.395 77.9885C141.255 77.7467 141.407 77.5625 141.569 77.4151L142.605 76.5479C143.437 75.8098 144.272 75.059 145.094 74.3048C145.541 73.9067 145.971 73.4971 146.41 73.083C146.981 72.5273 147.57 71.9831 148.132 71.4114C148.694 70.8396 149.06 70.413 149.505 69.8984C149.745 69.5878 149.83 69.5493 150.21 69.685Z" fill="#D1D1D1"/>
<path d="M115.068 52.7383C115.098 52.9693 115.1 53.2032 115.072 53.4346C114.735 54.7255 114.381 56.0231 114.009 57.3272C113.996 57.3979 113.968 57.465 113.927 57.5237C113.886 57.5825 113.832 57.6315 113.77 57.6674C113.708 57.7033 113.638 57.7252 113.567 57.7316C113.495 57.738 113.423 57.7286 113.356 57.7043C113.281 57.6919 113.21 57.6631 113.148 57.6201C113.086 57.577 113.034 57.5207 112.996 57.4551C112.958 57.3896 112.935 57.3165 112.929 57.2411C112.923 57.1656 112.933 57.0898 112.96 57.019L114.025 53.0178C114.087 52.7889 114.198 52.5528 114.472 52.5447C114.68 52.5786 114.88 52.6439 115.068 52.7383Z" fill="#D1D1D1"/>
<path d="M154.832 121.593C154.829 121.799 154.8 122.005 154.744 122.203C154.7 122.295 154.624 122.368 154.531 122.408C154.437 122.448 154.332 122.453 154.235 122.421C153.851 122.332 153.458 122.247 153.071 122.137C152.153 121.886 151.24 121.628 150.335 121.363C150.171 121.327 150.018 121.253 149.888 121.147C149.778 121.013 149.722 120.842 149.73 120.669C149.736 120.566 149.783 120.469 149.86 120.401C149.937 120.332 150.039 120.297 150.142 120.302C150.29 120.305 150.438 120.329 150.58 120.372C151.824 120.664 152.995 120.998 154.207 121.33C154.422 121.403 154.63 121.491 154.832 121.593Z" fill="#D1D1D1"/>
<path d="M148.947 84.1964C148.863 84.3245 148.755 84.4345 148.628 84.52C147.658 84.962 146.684 85.4167 145.699 85.8137C144.123 86.4546 142.532 87.0506 140.951 87.6627C140.526 87.8216 140.476 87.808 140.298 87.4266C140.347 87.1942 140.541 87.1576 140.732 87.0794L144.269 85.7577C145.031 85.4575 145.797 85.1654 146.545 84.8411C147.094 84.5996 147.615 84.3098 148.162 84.0475C148.537 83.8415 148.631 83.8734 148.947 84.1964Z" fill="#D1D1D1"/>
<path d="M143.712 93.7112C143.754 94.1383 143.678 94.268 143.347 94.3087C141.889 94.4838 140.44 94.6542 138.981 94.8085C138.098 94.899 137.222 94.9641 136.342 95.0419C136.043 95.064 135.738 95.1116 135.578 94.7416C135.677 94.4479 135.92 94.4584 136.134 94.4205C137.914 94.2636 139.69 94.1194 141.469 93.9417C142.058 93.8814 142.646 93.746 143.241 93.6602C143.4 93.6597 143.557 93.6769 143.712 93.7112Z" fill="#D1D1D1"/>
<path d="M136.001 101.636C135.864 101.92 135.598 101.869 135.367 101.841C134.544 101.628 133.719 101.427 132.86 101.224C132.364 101.091 131.866 100.937 131.374 100.792C130.881 100.646 130.947 100.554 131.143 100.15C131.269 100.143 131.394 100.154 131.517 100.182C132.849 100.661 134.216 101.036 135.606 101.305C135.858 101.332 135.862 101.34 136.001 101.636Z" fill="#D1D1D1"/>
<path d="M129.564 69.9325C129.599 69.731 129.65 69.5327 129.716 69.3393L130.89 66.5113C131.019 66.4368 131.2 66.3968 131.502 66.6957C131.425 66.8085 131.356 66.9269 131.298 67.05L130.27 69.6649C130.114 69.9913 130.058 70.0239 129.564 69.9325Z" fill="#D1D1D1"/>
<path d="M136.664 72.8842C136.604 73.0774 136.524 73.2639 136.426 73.4408L135.181 75.009C135.057 75.1667 134.963 75.3392 134.852 75.5003C134.74 75.6613 134.564 75.7845 134.162 75.6084C134.216 75.4296 134.289 75.2574 134.381 75.0946C134.757 74.609 135.162 74.1383 135.538 73.6527C135.681 73.473 135.798 73.2658 135.924 73.0746C136.051 72.8835 136.174 72.7801 136.664 72.8842Z" fill="#D1D1D1"/>
<path d="M139.922 79.1403C140.036 79.4297 139.861 79.5737 139.689 79.705L137.654 81.2456C137.477 81.348 137.307 81.4458 137.099 81.3081C136.89 81.1704 137.11 80.8611 137.325 80.6938L139.227 79.2404C139.449 79.102 139.657 78.9602 139.922 79.1403Z" fill="#D1D1D1"/>
<path d="M157.111 122.244C157.227 122.225 157.346 122.218 157.464 122.223C157.822 122.294 158.175 122.384 158.523 122.493C158.588 122.509 158.65 122.538 158.704 122.578C158.757 122.618 158.802 122.669 158.836 122.727C158.87 122.785 158.891 122.849 158.899 122.916C158.907 122.983 158.901 123.05 158.882 123.114C158.87 123.184 158.842 123.251 158.802 123.309C158.761 123.368 158.708 123.416 158.646 123.452C158.585 123.488 158.516 123.509 158.445 123.515C158.374 123.521 158.303 123.512 158.236 123.487C157.913 123.414 157.594 123.321 157.281 123.21C157.177 123.176 157.089 123.104 157.034 123.009C156.979 122.914 156.961 122.802 156.983 122.694C157.012 122.541 157.054 122.39 157.111 122.244Z" fill="#D1D1D1"/>
<path d="M115.492 50.4941C114.915 50.3327 114.822 50.1714 114.994 49.6313C115.055 49.4023 115.101 49.1827 115.175 48.9571C115.193 48.8847 115.226 48.8168 115.271 48.7573C115.316 48.6977 115.372 48.6478 115.437 48.6105C115.502 48.5732 115.573 48.5492 115.647 48.5399C115.721 48.5307 115.796 48.5364 115.868 48.5567C115.937 48.5721 116.003 48.6018 116.06 48.6438C116.117 48.6857 116.165 48.7391 116.2 48.8005C116.236 48.8619 116.258 48.93 116.266 49.0004C116.274 49.0709 116.267 49.1422 116.245 49.2099C116.191 49.4885 116.12 49.7556 116.04 50.0274C116.018 50.1572 115.951 50.2753 115.851 50.3607C115.751 50.4461 115.624 50.4933 115.492 50.4941Z" fill="#D1D1D1"/>
<path d="M137.111 88.7393C137.023 88.3817 137.245 88.264 137.47 88.1879C137.907 88.0324 138.365 87.8756 138.8 87.7535C139.234 87.6315 139.235 87.7066 139.382 88.0732C139.321 88.3022 139.127 88.3388 138.93 88.3882C138.556 88.4857 138.191 88.5994 137.827 88.7131C137.462 88.8267 137.373 88.9322 137.111 88.7393Z" fill="#D1D1D1"/>
<path d="M135.268 89.0294L135.335 89.4633C135.034 89.5704 134.728 89.6612 134.417 89.7354C134.312 89.7959 134.14 89.6269 133.998 89.5686C134.183 89.1069 134.553 88.9471 135.268 89.0294Z" fill="#D1D1D1"/>
<path d="M131.953 94.8135C132.037 94.7204 132.14 94.6455 132.254 94.5931C132.369 94.5407 132.492 94.5119 132.618 94.5087C132.744 94.5054 132.869 94.5276 132.986 94.574C133.103 94.6205 133.209 94.6901 133.298 94.7787C133.313 94.8267 133.315 94.8777 133.305 94.9269C133.295 94.9761 133.273 95.022 133.24 95.0601C133.207 95.0983 133.165 95.1276 133.118 95.1453C133.071 95.163 133.021 95.1685 132.971 95.1613C132.626 95.1778 132.204 95.249 131.953 94.8135Z" fill="#D1D1D1"/>
<path d="M131.28 79.2177C131.268 78.5467 131.548 78.192 132.09 78.1261C132.139 78.1519 132.18 78.19 132.209 78.2366C132.239 78.2831 132.256 78.3366 132.258 78.3916C132.261 78.4467 132.249 78.5014 132.223 78.5504C132.198 78.5994 132.161 78.6411 132.114 78.6711C131.873 78.8859 131.807 79.3863 131.28 79.2177Z" fill="#D1D1D1"/>
<path d="M128.237 72.9225C128.291 72.9323 128.342 72.9549 128.386 72.9883C128.429 73.0217 128.464 73.065 128.487 73.1146C128.511 73.1642 128.522 73.2186 128.52 73.2734C128.518 73.3282 128.503 73.3818 128.476 73.4296C128.413 73.663 128.293 73.8768 128.126 74.0514C127.956 74.1492 127.777 74.0807 127.67 73.8201C127.801 73.5077 127.83 73.093 128.237 72.9225Z" fill="#D1D1D1"/>
<path d="M128.214 99.2293C128.454 98.9187 128.753 99.101 129.017 99.1853C129.073 99.1981 129.126 99.2224 129.172 99.2566C129.219 99.2909 129.258 99.3344 129.286 99.3844C129.315 99.4343 129.333 99.4897 129.34 99.547C129.346 99.6044 129.341 99.6624 129.324 99.7176C129.222 99.776 129.107 99.8097 128.989 99.8159C128.871 99.822 128.754 99.8005 128.646 99.7531C128.538 99.7056 128.443 99.6335 128.368 99.5425C128.293 99.4515 128.24 99.3443 128.214 99.2293Z" fill="#D1D1D1"/>
<path d="M133.519 83.7293C133.528 83.6099 133.565 83.4942 133.627 83.3912C133.688 83.2882 133.772 83.2007 133.873 83.1354C133.973 83.0701 134.087 83.0288 134.206 83.0146C134.325 83.0004 134.446 83.0138 134.559 83.0537C134.75 83.3843 134.45 83.5358 134.222 83.6996C133.994 83.8635 133.787 84.0261 133.519 83.7293Z" fill="#D1D1D1"/>
<path d="M31.3441 119.608L31.6606 120.156C32.2902 121.451 33.1854 122.597 34.288 123.522C35.3906 124.447 36.6757 125.129 38.0596 125.524C40.1361 126.176 42.3123 126.452 44.4858 126.339C45.6922 126.288 46.9051 126.136 48.1147 125.996C50.1981 125.733 52.2549 125.29 54.2622 124.672C56.0081 124.159 57.7144 123.539 59.4345 122.944C60.4353 122.592 61.4381 122.206 62.419 121.801C63.3998 121.396 64.5373 120.89 65.5755 120.398C67.5029 119.479 69.4251 118.545 71.3423 117.595C71.7535 117.358 72.1485 117.13 72.6199 116.922C72.7009 116.864 72.7873 116.814 72.8779 116.773C73.009 116.717 73.155 116.705 73.2935 116.74C73.4319 116.774 73.5552 116.853 73.6443 116.965C73.7302 117.093 73.7633 117.249 73.7367 117.401C73.71 117.552 73.6257 117.688 73.5013 117.779C73.0502 118.114 72.563 118.406 72.0759 118.698C70.3138 119.721 68.4948 120.642 66.6275 121.457C65.5109 121.962 64.406 122.524 63.2754 123.005C61.7863 123.628 60.2692 124.203 58.7568 124.786C57.5465 125.259 56.3302 125.704 55.1106 126.16C54.6126 126.34 54.0971 126.509 53.5898 126.673C51.9617 127.204 50.3302 127.749 48.6963 128.251C46.8697 128.811 45.0865 129.26 43.3176 129.809C43.1043 129.867 42.8838 129.876 42.6751 129.943C42.5511 130.02 42.4387 130.113 42.3414 130.222C42.5074 130.416 42.6387 130.588 42.7733 130.746C43.5309 131.608 44.4674 132.293 45.5174 132.754C46.5673 133.216 47.7054 133.442 48.8521 133.418C51.0758 133.398 53.2755 132.956 55.3346 132.115C57.6806 131.196 59.9268 130.039 62.0385 128.664C63.1349 128.031 64.1116 127.209 65.1348 126.468C65.7507 126.026 66.3677 125.606 66.9615 125.145C68.3447 124.077 69.7453 123.021 71.0332 121.826C72.3212 120.631 73.5152 119.609 74.7666 118.499C74.9239 118.376 75.0976 118.276 75.2826 118.201C75.3774 118.165 75.4804 118.156 75.5799 118.176C75.6794 118.196 75.7714 118.243 75.8452 118.313C75.919 118.382 75.9717 118.471 75.9973 118.57C76.0229 118.668 76.0204 118.771 75.9899 118.868C75.9017 119.066 75.7816 119.248 75.6344 119.406C75.0081 120.09 74.3737 120.779 73.7127 121.44C72.7804 122.376 71.8609 123.316 70.8972 124.216C69.538 125.474 68.1427 126.688 66.7648 127.913C66.061 128.556 65.3135 129.235 64.5588 129.864C63.5694 130.683 62.5533 131.474 61.5499 132.268C60.5466 133.062 59.4557 133.928 58.3947 134.735C57.4694 135.441 56.5175 136.119 55.5749 136.814L55.2927 136.977C55.2041 137.308 55.3778 137.422 55.5999 137.509C57.0332 137.939 58.5601 137.946 59.9972 137.529C61.675 137.058 63.2346 136.238 64.5741 135.123C65.2872 134.496 66.0283 133.918 66.7414 133.291C67.2247 132.869 67.6823 132.418 68.1118 131.941C69.2701 130.67 70.3635 129.361 71.4164 128.001C72.9895 125.929 74.4572 123.78 75.8137 121.56C76.2241 120.893 76.6045 120.211 77.04 119.476C77.2195 119.452 77.4011 119.448 77.5815 119.465C77.6668 119.466 77.7504 119.489 77.824 119.533C77.8976 119.576 77.9587 119.637 78.0014 119.711C78.0441 119.785 78.0669 119.869 78.0675 119.954C78.0681 120.04 78.0466 120.124 78.005 120.198C77.7486 120.885 77.4548 121.557 77.1249 122.211C76.173 123.933 75.2211 125.654 74.187 127.326C73.0038 129.224 71.7591 131.071 70.4891 132.912C69.6756 134.091 68.7834 135.208 67.9178 136.353L66.4564 138.271C66.4644 138.329 66.4852 138.383 66.5174 138.431C66.5496 138.479 66.5922 138.52 66.6422 138.549C66.6922 138.578 66.7481 138.595 66.8057 138.6C66.8634 138.604 66.9213 138.595 66.9751 138.574C67.7941 138.432 68.6044 138.245 69.4021 138.011C70.6832 137.567 71.8681 136.883 72.8931 135.996C74.6077 134.475 75.9622 132.591 76.858 130.482C77.6748 128.577 78.2703 126.585 78.6329 124.544C78.8834 123.228 79.0021 121.869 79.1682 120.537C79.2341 120.037 79.4455 119.807 79.8441 119.846C79.9278 119.852 80.0095 119.874 80.0844 119.912C80.1592 119.95 80.2257 120.002 80.2797 120.066C80.3338 120.13 80.3744 120.205 80.3991 120.285C80.4237 120.365 80.432 120.449 80.4233 120.533C80.4479 121.068 80.4453 121.604 80.4155 122.139C80.2763 124.602 79.9549 127.051 79.4539 129.467C79.0866 131.299 78.6002 133.106 77.9977 134.876C77.9236 135.101 77.8067 135.309 77.7153 135.523C77.6239 135.737 77.5244 135.955 77.7459 136.171C77.9674 136.388 78.2108 136.064 78.4157 135.935C79.5478 135.223 80.4993 134.258 81.1953 133.116C81.5705 132.487 81.8731 131.819 82.0975 131.122C82.8228 128.799 82.9331 126.328 82.4177 123.95C82.1978 122.787 81.8832 121.646 81.6102 120.503C81.5102 120.088 81.6026 119.82 81.9174 119.713C81.9943 119.677 82.0784 119.659 82.1634 119.66C82.2484 119.66 82.3321 119.68 82.4084 119.718C82.4847 119.755 82.5516 119.809 82.6043 119.876C82.6569 119.943 82.6938 120.021 82.7124 120.103C82.9835 120.912 83.2138 121.733 83.4023 122.565C83.7783 124.174 83.9612 125.822 83.9473 127.474C83.9547 129.586 83.4235 131.665 82.4037 133.515C81.2404 135.462 79.4633 136.968 77.3513 137.797C77.1022 137.893 76.8436 137.963 76.5798 138.006C76.4778 138.038 76.3689 138.04 76.2656 138.013C76.1623 137.986 76.0687 137.93 75.9957 137.852C75.9226 137.774 75.873 137.677 75.8525 137.572C75.8321 137.468 75.8417 137.359 75.8801 137.259C75.9696 136.874 76.1227 136.507 76.2861 136.101C76.5835 135.219 76.881 134.338 77.1691 133.441C77.2092 133.269 77.2378 133.094 77.2545 132.919C77.2019 132.904 77.1469 132.9 77.0927 132.906C77.0384 132.913 76.9861 132.931 76.9388 132.958C76.8914 132.985 76.8501 133.022 76.8171 133.066C76.7841 133.109 76.7601 133.159 76.7466 133.212C76.2446 134.272 75.5341 135.219 74.6575 135.998C73.423 137.248 71.94 138.225 70.3043 138.866C69.1229 139.323 67.8844 139.615 66.6235 139.734C66.0453 139.752 65.4666 139.727 64.8922 139.658C64.7624 139.651 64.6392 139.599 64.5446 139.51C64.4499 139.421 64.3898 139.301 64.3751 139.172C64.4786 138.931 64.6044 138.7 64.7507 138.482C65.7713 137.14 66.8139 135.818 67.823 134.494C67.9746 134.31 68.1215 134.117 67.8386 133.851C67.6959 133.954 67.5591 134.065 67.429 134.184C66.4008 135.283 65.2163 136.223 63.9138 136.977C62.5576 137.869 61.0518 138.509 59.4685 138.866C57.7573 139.234 55.9719 139.01 54.4046 138.231C54.1499 138.105 53.9131 137.945 53.7004 137.757C53.2484 137.383 53.2752 136.927 53.7831 136.634L58.6512 132.963L61.0186 131.199C61.3021 131.023 61.5287 130.769 61.6712 130.467C61.527 130.452 61.3813 130.456 61.2383 130.481C60.9573 130.614 60.6877 130.769 60.432 130.946C58.2846 132.273 55.9644 133.298 53.537 133.992C51.3681 134.701 49.0562 134.857 46.8117 134.445C45.3017 134.185 43.8945 133.509 42.7488 132.491C42.0371 131.835 41.4421 131.063 40.9892 130.207C40.8965 130.008 40.8146 129.804 40.744 129.596C40.8326 129.433 40.9598 129.295 41.1143 129.192C41.2688 129.09 41.446 129.027 41.6305 129.009L45.3814 128.058C45.5159 128.046 45.6461 128.005 45.763 127.937C45.88 127.87 45.9808 127.778 46.0586 127.667C45.919 127.425 45.6709 127.461 45.4711 127.469C45.2714 127.477 44.8363 127.524 44.5246 127.542C41.6775 127.784 38.8153 127.308 36.1999 126.157C34.7591 125.562 33.4828 124.628 32.4789 123.436C32.0957 122.958 31.6802 122.499 31.298 121.967C30.6969 121.005 30.2471 119.956 29.9643 118.857C29.9234 118.762 29.9073 118.659 29.9176 118.556C29.9279 118.454 29.9642 118.356 30.023 118.271C30.0818 118.187 30.1613 118.118 30.2538 118.073C30.3463 118.028 30.4489 118.007 30.5517 118.012C30.905 117.991 31.2539 118.037 31.6373 118.031L37.223 118.396L38.1622 118.477C38.2975 118.466 38.4315 118.443 38.5626 118.408L38.5873 118.264C38.4496 118.17 38.3007 118.094 38.1441 118.036C37.6655 117.915 37.1754 117.811 36.6853 117.707C34.1686 117.187 31.7727 116.196 29.624 114.786C27.6916 113.55 26.0692 111.886 24.8819 109.924C24.1307 108.661 23.5785 107.29 23.2449 105.859C22.95 104.609 22.8128 103.327 22.8365 102.043C22.7773 101.579 22.8884 101.11 23.1493 100.722C23.3136 100.679 23.4855 100.672 23.6529 100.701C23.8203 100.731 23.9793 100.797 24.1189 100.894C26.4984 102.111 28.9476 103.169 31.4083 104.21C32.5975 104.706 33.8038 105.138 35.0067 105.583C38.4095 106.855 41.89 107.908 45.427 108.736C47.369 109.195 49.3304 109.632 51.2882 110.007C54.7109 110.681 58.1766 111.115 61.6598 111.307C63.5759 111.405 65.4907 111.482 67.4112 111.512C69.7944 111.515 72.176 111.389 74.5456 111.134C74.7984 111.107 75.0393 111.021 75.2874 110.985C75.7917 110.909 76.0119 111.105 76.1157 111.582C76.2864 112.76 76.7902 113.865 77.5677 114.766C78.3452 115.668 79.364 116.328 80.5043 116.67C81.3932 116.944 82.3308 117.022 83.2528 116.9C84.1749 116.778 85.0596 116.458 85.8463 115.961C86.0156 115.864 86.193 115.761 86.3623 115.664C86.5086 115.579 86.6817 115.553 86.8462 115.592C87.0107 115.631 87.1539 115.732 87.2466 115.873C87.2822 115.944 87.3034 116.022 87.3091 116.101C87.3147 116.181 87.3045 116.261 87.2792 116.336C87.2539 116.412 87.2139 116.482 87.1616 116.542C87.1093 116.602 87.0456 116.651 86.9742 116.686C86.3262 117.095 85.6421 117.443 84.9304 117.726C83.4469 118.277 81.8284 118.351 80.3009 117.938C78.6019 117.485 77.1299 116.421 76.1676 114.949C75.6851 114.287 75.328 113.542 75.114 112.752C75.1066 112.683 75.0838 112.617 75.0472 112.559C75.0106 112.5 74.9613 112.451 74.9029 112.414C74.8445 112.378 74.7786 112.355 74.71 112.347C74.6415 112.34 74.5722 112.348 74.5072 112.371C72.7583 112.615 70.9964 112.752 69.2309 112.784C66.0646 112.889 62.8949 112.802 59.7392 112.523C58.0563 112.42 56.3244 112.195 54.6731 111.923C52.3206 111.572 50.0232 111.167 47.7255 110.688C45.8034 110.282 43.9026 109.745 42.0032 109.23C40.6251 108.854 39.2377 108.461 37.8834 107.996C35.7324 107.249 33.5754 106.474 31.4516 105.625C29.4989 104.85 27.5944 103.972 25.6991 103.109C25.3347 102.944 24.985 102.748 24.632 102.565C24.279 102.381 24.3392 102.411 24.0366 102.65C24.0542 105.354 24.8931 107.989 26.442 110.205C27.4571 111.597 28.7159 112.793 30.1574 113.736C32.1761 115.019 34.3911 115.962 36.7147 116.529C39.8555 117.313 43.0776 117.726 46.3147 117.759C48.9678 117.825 51.6224 117.728 54.2636 117.469C57.2449 117.178 60.2247 116.79 63.2093 116.207C64.5084 115.962 65.8193 115.775 67.0998 115.498C68.3803 115.221 69.8556 114.852 71.234 114.54C71.4603 114.485 71.6923 114.455 71.9253 114.453C72.0535 114.45 72.1788 114.491 72.2795 114.57C72.3802 114.65 72.4501 114.762 72.4769 114.887C72.5073 115 72.5 115.12 72.4561 115.229C72.4122 115.338 72.3341 115.429 72.2336 115.49C72.1063 115.596 71.9618 115.679 71.8063 115.736C70.2713 116.15 68.7548 116.595 67.2126 116.959C65.6703 117.323 64.0059 117.735 62.3777 117.987C59.9246 118.393 57.4624 118.74 54.9911 119.027C52.7197 119.264 50.4805 119.481 48.219 119.605C46.4239 119.717 44.6226 119.725 42.8145 119.758C39.5527 119.825 36.3107 119.665 33.0281 119.453C32.7266 119.433 32.432 119.389 32.1293 119.348C31.9885 119.294 31.8333 119.29 31.6902 119.338C31.547 119.385 31.4247 119.481 31.3441 119.608Z" fill="#D1D1D1"/>
<path d="M25.464 104.191C25.5505 104.126 25.6556 104.091 25.7638 104.09C25.872 104.09 25.9774 104.124 26.0644 104.188C29.0256 105.755 32.0881 107.122 35.2315 108.28C37.5609 109.15 39.9313 109.867 42.3394 110.519C44.7476 111.171 46.893 111.684 49.2179 112.062C49.3496 112.074 49.4797 112.1 49.6063 112.139C49.8792 112.239 49.9016 112.334 49.7312 112.69C49.6381 112.709 49.5427 112.713 49.4483 112.703C47.4453 112.268 45.432 111.872 43.4379 111.379C40.4408 110.651 37.4935 109.731 34.6141 108.626C32.6847 107.891 30.7988 107.045 28.9175 106.207C27.8635 105.74 26.8498 105.251 25.7967 104.73C25.5699 104.635 25.3822 104.496 25.464 104.191Z" fill="#D1D1D1"/>
<path d="M66.1618 95.98C66.2651 96.0856 66.3255 96.2259 66.3313 96.3735C66.3371 96.5211 66.2878 96.6656 66.193 96.779C66.0185 96.998 65.7701 96.9587 65.5412 96.8973L61.5747 95.8549L54.2705 93.891L54.1306 93.8535C54.0564 93.8429 53.9851 93.8177 53.9207 93.7793C53.8564 93.741 53.8002 93.6903 53.7555 93.6302C53.7108 93.5701 53.6784 93.5017 53.6603 93.429C53.6421 93.3564 53.6385 93.2808 53.6497 93.2067C53.6911 93.0594 53.7885 92.934 53.921 92.8575C54.0536 92.781 54.2108 92.7593 54.3592 92.7971C55.0654 92.9591 55.7568 93.1511 56.4435 93.3351L64.0737 95.3796C64.8184 95.6269 65.4831 95.7914 66.1618 95.98Z" fill="#D1D1D1"/>
<path d="M92.059 141.99C92.6188 141.935 92.6617 141.953 92.9695 142.356C92.8233 142.978 92.6287 143.628 92.5024 144.303L90.1013 153.289C90.0229 153.582 89.9272 153.863 89.8361 154.152L89.7779 154.293C89.7146 154.42 89.6063 154.52 89.474 154.573C89.3416 154.625 89.1945 154.627 89.0609 154.578C88.8214 154.479 88.7386 154.28 88.8191 153.954C89.0824 152.921 89.3537 151.882 89.6298 150.852L91.2594 144.719L91.8558 142.494C91.9147 142.322 91.9826 142.154 92.059 141.99Z" fill="#D1D1D1"/>
<path d="M52.1174 120.977C51.441 121.034 50.782 121.103 50.1217 121.151C48.755 121.241 47.3941 121.36 46.0223 121.367C43.8978 121.412 41.7594 121.431 39.6703 121.369C37.8826 121.326 36.1107 121.199 34.3239 121.102C34.0941 121.095 33.8494 121.118 33.7522 120.819C33.6551 120.521 34.0151 120.474 34.2763 120.517C36.0516 120.631 37.834 120.795 39.6149 120.864C41.1405 120.918 42.6785 120.901 44.2072 120.867C45.7359 120.834 47.3613 120.745 48.9083 120.669C49.7394 120.619 50.5588 120.511 51.3888 120.441C51.5704 120.418 51.7546 120.428 51.9327 120.471C52.1939 120.513 52.2917 120.683 52.1174 120.977Z" fill="#D1D1D1"/>
<path d="M44.4162 130.744C44.3721 130.426 44.5414 130.328 44.809 130.27C45.5623 130.104 46.3283 129.941 47.0803 129.754C47.8324 129.567 48.7978 129.322 49.6419 129.071C50.4861 128.82 51.4545 128.487 52.3539 128.182L55.4714 127.103C55.6649 126.991 55.8972 127.039 56.0322 127.273C56.1671 127.507 55.8375 127.644 55.6288 127.71C54.3905 128.135 53.1489 128.572 51.8966 128.973C50.6444 129.373 49.2777 129.743 47.9607 130.106C47.0334 130.362 46.0875 130.585 45.151 130.825C44.8765 130.908 44.639 130.981 44.4162 130.744Z" fill="#D1D1D1"/>
<path d="M52.431 92.3625C52.4646 92.4781 52.483 92.5976 52.4857 92.7179C52.4657 93.1487 52.2471 93.3286 51.8321 93.2243C51.1292 93.0496 50.4137 92.8715 49.7096 92.676C49.0055 92.4805 48.4379 92.3352 47.8424 92.1416C47.7161 92.1099 47.5994 92.0482 47.5021 91.9618C47.4181 91.8899 47.3607 91.792 47.3391 91.6836C47.3175 91.5753 47.3329 91.4628 47.3828 91.3642C47.4188 91.261 47.4907 91.1741 47.5854 91.1194C47.6801 91.0647 47.7913 91.0459 47.8988 91.0663C48.0461 91.0911 48.1917 91.1256 48.3346 91.1694L51.8444 92.1099C52.0451 92.1815 52.2411 92.2659 52.431 92.3625Z" fill="#D1D1D1"/>
<path d="M88.387 155.795C88.5223 155.792 88.6575 155.796 88.7923 155.808C89.1633 155.873 89.2679 156.017 89.2233 156.387C89.2013 156.57 89.1662 156.752 89.1184 156.931L88.0682 160.698C87.9927 160.815 87.8747 160.898 87.7391 160.931C87.6034 160.963 87.4605 160.941 87.3403 160.871C87.103 160.739 87.0291 160.481 87.1245 160.125C87.4653 158.853 87.7577 157.609 88.1242 156.419C88.1971 156.205 88.2849 155.996 88.387 155.795Z" fill="#D1D1D1"/>
<path d="M57.5098 136.814C57.4241 136.498 57.6405 136.352 57.8442 136.202C58.4167 135.872 58.9692 135.488 59.4997 135.085C60.7068 134.141 61.9046 133.181 63.0943 132.225C63.5039 131.892 63.8902 131.518 64.2952 131.177C64.426 131.076 64.5697 130.993 64.7225 130.93L64.8966 131.399C64.816 131.446 64.8291 131.524 64.7968 131.543C63.6232 132.489 62.4555 133.465 61.2599 134.391C60.3831 135.07 59.4621 135.709 58.5632 136.367C58.41 136.456 58.3034 136.625 58.1642 136.738C58.025 136.85 57.7568 137.037 57.5098 136.814Z" fill="#D1D1D1"/>
<path d="M68.4749 137.17C68.5114 137.037 68.564 136.91 68.6314 136.79C69.2468 135.994 69.8808 135.23 70.4822 134.41C71.2603 133.337 72.0071 132.229 72.7632 131.136C72.9123 130.91 73.0068 130.609 73.3973 130.652C73.6039 130.898 73.5137 131.133 73.3485 131.368L69.9998 136.032L69.1619 137.15C68.9886 137.39 68.8419 137.378 68.4749 137.17Z" fill="#D1D1D1"/>
<path d="M80.2739 129.434L80.7549 129.597C80.7771 129.703 80.7823 129.813 80.7702 129.921C80.4878 131.052 80.2053 132.182 79.9101 133.309C79.8337 133.599 79.735 133.883 79.6148 134.157C79.5085 134.401 79.3323 134.525 79.0082 134.335C79.0171 134.179 79.0427 134.023 79.0846 133.872C79.5657 132.577 79.9156 131.237 80.1292 129.872C80.1645 129.766 80.2147 129.629 80.2739 129.434Z" fill="#D1D1D1"/>
<path d="M54.9347 113.213C54.8631 113.48 54.668 113.496 54.467 113.483C53.495 113.345 52.515 113.212 51.5278 113.029C51.392 112.998 51.2604 112.952 51.1357 112.89C51.2066 112.473 51.325 112.361 51.6452 112.413L54.4652 112.828C54.6976 112.876 54.8977 112.944 54.9347 113.213Z" fill="#D1D1D1"/>
<path d="M61.0363 125.233C61.0711 125.536 60.8937 125.638 60.6782 125.73L58.5246 126.619C58.2907 126.754 58.0166 126.912 57.7726 126.601C57.7204 126.288 57.9394 126.183 58.1549 126.09L59.8888 125.369C60.0582 125.271 60.2275 125.173 60.4202 125.116C60.6128 125.058 60.8377 124.982 61.0363 125.233Z" fill="#D1D1D1"/>
<path d="M57.5136 119.818C57.6065 120.184 57.4778 120.333 57.2169 120.366L54.5538 120.688C54.3137 120.719 54.0689 120.742 53.9574 120.344C54.0795 120.242 54.2187 120.161 54.3687 120.107C55.2413 119.98 56.1151 119.873 56.9936 119.774C57.1679 119.774 57.3419 119.788 57.5136 119.818Z" fill="#D1D1D1"/>
<path d="M44.7041 91.3415C44.415 91.2504 44.0634 91.163 43.7141 91.0421C43.6404 91.0353 43.5691 91.0129 43.5047 90.9764C43.4404 90.9399 43.3846 90.8901 43.341 90.8304C43.2974 90.7707 43.2669 90.7023 43.2518 90.6299C43.2366 90.5575 43.237 90.4828 43.2529 90.4105C43.2689 90.3383 43.3 90.2703 43.3442 90.211C43.3885 90.1517 43.4448 90.1025 43.5095 90.0667C43.5743 90.0309 43.6458 90.0092 43.7196 90.0032C43.7933 89.9972 43.8674 90.0069 43.9371 90.0317C44.2622 90.087 44.5824 90.1682 44.8946 90.2746C45.0021 90.2988 45.0972 90.3611 45.1623 90.45C45.2275 90.5389 45.2582 90.6483 45.249 90.7581C45.2456 91.0503 45.0974 91.2219 44.7041 91.3415Z" fill="#D1D1D1"/>
<path d="M87.2015 163.327C87.2015 163.327 87.2759 163.456 87.2589 163.52C87.1763 163.952 87.0624 164.377 86.9181 164.792C86.8393 165.009 86.5552 165.001 86.3436 164.952C86.2895 164.942 86.2377 164.922 86.1914 164.893C86.1452 164.863 86.1053 164.825 86.0741 164.78C86.043 164.735 86.0213 164.684 86.0103 164.63C85.9992 164.576 85.9991 164.521 86.0099 164.467C86.0873 164.034 86.2013 163.608 86.3508 163.195C86.4661 162.892 86.9618 162.949 87.2015 163.327Z" fill="#D1D1D1"/>
<path d="M67.4342 128.903C67.5394 129.197 67.3598 129.333 67.2057 129.476C66.8733 129.776 66.5408 130.075 66.2257 130.386C65.9106 130.697 65.8746 130.653 65.506 130.35C65.5958 130.191 65.6999 130.041 65.817 129.902C66.1159 129.6 66.445 129.313 66.7613 129.023C66.9511 128.849 67.1456 128.683 67.4342 128.903Z" fill="#D1D1D1"/>
<path d="M68.8883 127.795C68.8015 127.688 68.7323 127.568 68.6835 127.44C68.7395 127.238 68.8463 127.054 68.9936 126.905C69.1409 126.756 69.3239 126.647 69.5251 126.588C69.6222 126.608 69.7647 126.687 69.7824 126.773C69.8001 126.86 69.7511 127.017 69.7124 127.136C69.6786 127.169 69.637 127.193 69.5914 127.206L68.8883 127.795Z" fill="#D1D1D1"/>
<path d="M62.1365 119.245C61.8845 119.702 61.4482 119.524 61.1055 119.582C61.0597 119.591 61.0124 119.589 60.9677 119.576C60.9229 119.563 60.8821 119.539 60.8485 119.506C60.815 119.474 60.7899 119.434 60.7752 119.389C60.7606 119.345 60.7568 119.298 60.7644 119.252C61.251 118.81 61.7592 118.796 62.1365 119.245Z" fill="#D1D1D1"/>
<path d="M74.5704 128.696C74.6176 127.884 74.8967 127.529 75.3961 127.649C75.5573 128.04 75.3207 128.338 75.1083 128.622C75.082 128.667 75.0457 128.706 75.0022 128.735C74.9588 128.764 74.9092 128.783 74.8574 128.79C74.8055 128.797 74.7527 128.793 74.703 128.776C74.6533 128.76 74.6079 128.732 74.5704 128.696Z" fill="#D1D1D1"/>
<path d="M80.8646 127.739C80.7548 127.675 80.6651 127.581 80.6053 127.468C80.5455 127.356 80.5181 127.229 80.526 127.102C80.5339 126.975 80.5769 126.853 80.6502 126.748C80.7235 126.644 80.8242 126.563 80.9412 126.512C81.1676 126.532 81.2387 126.674 81.2512 126.882C81.2687 127.046 81.2421 127.212 81.1741 127.363C81.1062 127.513 80.9994 127.643 80.8646 127.739Z" fill="#D1D1D1"/>
<path d="M58.2085 113.354C58.5876 113.135 58.9496 113.259 59.2803 113.348C59.3596 113.764 59.2966 113.898 59.0196 113.939C58.8348 113.966 58.6466 113.921 58.4951 113.811C58.3436 113.702 58.2408 113.538 58.2085 113.354Z" fill="#D1D1D1"/>
<path d="M63.7841 123.83C63.8163 123.716 63.8753 123.611 63.956 123.525C64.0368 123.438 64.137 123.372 64.2483 123.332C64.3597 123.292 64.479 123.279 64.5964 123.294C64.7138 123.309 64.8259 123.352 64.9234 123.419C65.02 123.847 64.6552 123.886 64.4073 123.997C64.1595 124.108 64.0637 124.109 63.7841 123.83Z" fill="#D1D1D1"/>
<path d="M85.38 110.297L83.1969 106.516C80.6275 102.066 78.0767 97.6474 75.4886 93.1648C74.9727 92.3883 74.6362 91.5066 74.5037 90.5838C74.2301 88.2479 73.8801 85.8915 73.5835 83.5904C73.3926 82.2171 73.2191 80.8553 73.0363 79.4774C72.9175 78.471 72.7407 77.4014 72.6113 76.3581C72.3965 74.7945 72.1978 73.2215 72.0314 71.6299C71.8649 70.0382 71.6195 68.589 71.4199 67.0703C71.0124 64.0807 70.6104 61.0879 70.2137 58.0921L69.723 54.226C69.6953 54.025 69.7249 53.8203 69.8082 53.6353C69.8915 53.4503 70.0252 53.2925 70.1941 53.18C70.3503 53.0687 70.5371 53.0085 70.7289 53.0074C70.9207 53.0063 71.1082 53.0646 71.2656 53.1741C71.5128 53.3132 71.7482 53.472 71.9698 53.649C72.2316 53.8418 72.4867 54.0601 72.7497 54.2737C73.3001 54.6869 73.8457 55.0921 74.374 55.4858C75.914 56.6822 77.4458 57.8832 78.9938 59.0749C80.288 60.0691 81.5938 61.0459 82.8638 62.0541C84.3724 63.2148 85.8615 64.3975 87.3654 65.5502C88.6076 66.51 89.8726 67.435 91.1423 68.3682C92.6602 69.545 94.162 70.7311 95.6799 71.9079C96.3624 72.4384 97.0644 72.9468 97.755 73.4725C98.7433 74.2349 99.7202 75.0146 100.72 75.7595C101.113 76.0434 101.443 76.4056 101.689 76.8233C102.671 78.5244 103.658 80.2337 104.64 81.9348L121.69 111.467C122.007 112.015 122.328 112.571 122.621 113.079C122.915 113.587 122.961 113.668 123.525 113.546C123.705 113.503 123.893 113.519 124.063 113.591C124.233 113.664 124.374 113.789 124.467 113.949C124.58 114.093 124.648 114.268 124.662 114.452C124.676 114.635 124.635 114.818 124.545 114.978L124.181 115.576C123.448 116.611 122.592 117.554 121.63 118.381C120.258 119.676 118.782 120.855 117.216 121.908C114.865 123.527 112.426 125.014 109.909 126.363C107.844 127.491 105.714 128.495 103.529 129.369C102.337 129.8 101.14 130.222 99.9226 130.57C98.8726 130.906 97.7765 131.074 96.6743 131.07C96.4881 131.069 96.3057 131.017 96.1479 130.918C95.9901 130.819 95.8632 130.678 95.7815 130.51C95.6909 130.34 95.6553 130.146 95.6797 129.955C95.7041 129.763 95.7872 129.585 95.9176 129.443C96.2302 129.09 96.2524 128.905 96.0278 128.498C95.8788 128.24 95.7299 127.982 95.5623 127.691L85.4848 110.237L85.38 110.297ZM116.493 119.929C116.438 119.744 116.37 119.565 116.289 119.39C113.743 114.98 111.202 110.578 108.656 106.168C105.602 100.879 102.547 95.5877 99.4904 90.2935C98.6479 88.8343 97.8053 87.375 96.9628 85.9157C96.8679 85.7241 96.7137 85.5681 96.5232 85.4709C95.6697 85.0932 94.8479 84.6473 94.0658 84.1377C93.0492 83.5243 91.9007 83.1627 90.7159 83.0834C89.9621 83.052 89.2117 83.2014 88.5274 83.5192C87.8462 83.7983 87.2317 84.2185 86.7246 84.7521C86.2175 85.2858 85.8292 85.9208 85.5851 86.6154C85.2908 87.5886 85.1504 88.6018 85.169 89.6183C85.1692 90.4567 85.0702 91.3093 85.0981 92.1209C85.099 92.3497 85.1585 92.5744 85.2708 92.7737C90.5958 101.997 95.9208 111.22 101.246 120.443C102.354 122.362 103.461 124.281 104.574 126.208C104.653 126.345 104.737 126.49 104.83 126.651C108.978 124.895 112.894 122.638 116.493 119.929ZM73.3345 66.3089C73.7104 68.9585 74.0723 71.5838 74.4203 74.185C74.6864 76.1168 74.911 78.0511 75.1644 79.9795C75.5291 82.7896 75.9065 85.6031 76.2792 88.4085C76.3442 89.1364 76.4531 89.8597 76.6053 90.5744C76.7865 91.1971 77.0182 91.8039 77.2981 92.3889C77.3493 92.4776 77.4824 92.5405 77.5739 92.6059C77.9125 92.4104 77.7924 92.1465 77.7486 91.903C77.6417 91.2338 77.522 90.5611 77.4313 89.8826C77.3908 89.6009 77.4155 89.3138 77.5034 89.0431C77.5913 88.7725 77.74 88.5256 77.9382 88.3215C78.0843 88.1675 78.2719 88.0592 78.4783 88.0096C78.8255 87.9475 79.1821 87.9626 79.5228 88.0539C79.8634 88.1452 80.1798 88.3104 80.4494 88.5377C81.4525 89.3103 82.3909 90.1635 83.2552 91.0887C83.3204 91.2016 83.4373 91.2738 83.5301 91.36C83.8961 91.3422 83.9332 91.1273 83.9331 90.8478C83.9214 90.0269 83.9016 89.2106 83.936 88.3952C83.9821 87.0163 84.4345 85.6818 85.2365 84.5592C86.2525 83.2055 87.7353 82.2777 89.397 81.956C91.0587 81.6343 92.7807 81.9416 94.2286 82.8183C94.8142 83.1252 95.3667 83.5049 95.9145 83.8766C95.9986 83.9508 96.1058 83.9935 96.2179 83.9974C96.3299 84.0013 96.4399 83.9662 96.5289 83.8981C96.5197 83.72 96.4965 83.5429 96.4596 83.3684C96.2199 82.4319 95.9479 81.5139 95.7243 80.5681C95.6044 80.1171 95.5457 79.6521 95.5495 79.1855C95.5139 78.8581 95.5794 78.5276 95.7373 78.2386C95.8952 77.9497 96.138 77.7161 96.4328 77.5693C96.7276 77.4225 97.0603 77.3696 97.3861 77.4178C97.7119 77.4659 98.015 77.6128 98.2548 77.8386C98.8547 78.2447 99.3939 78.7503 99.9675 79.2039C100.1 79.2937 100.237 79.376 100.379 79.4503C100.685 79.2735 100.593 79.058 100.482 78.8852C100.069 78.1802 99.5172 77.5664 98.86 77.0807C97.9346 76.4648 97.1044 75.6971 96.2249 75.0117C94.7117 73.8429 93.1823 72.6835 91.661 71.5194L86.3925 67.4771C84.7951 66.2494 83.1977 65.0218 81.6002 63.7941C81.0533 63.3681 80.5098 62.9295 79.9582 62.4955C79.7879 62.368 79.5947 62.2754 79.3782 62.1424C77.6855 63.8079 75.596 65.0143 73.3073 65.6474C73.3006 65.8683 73.3097 66.0893 73.3345 66.3089ZM121.546 115.667C121.482 115.446 121.401 115.231 121.303 115.023C120.293 113.273 119.283 111.524 118.278 109.782L102.884 83.1204C102.517 82.4835 102.149 81.8466 101.786 81.2177C101.672 81.0389 101.547 80.8667 101.413 80.7021C101.303 80.6795 101.265 80.6693 101.236 80.6752C100.873 80.7768 100.488 80.7741 100.126 80.6675C99.7645 80.5609 99.4399 80.3546 99.1897 80.0722C98.6665 79.6421 98.1217 79.2391 97.5573 78.8648C97.4573 78.8 97.3506 78.7463 97.239 78.7045C96.879 78.7512 96.7714 78.9745 96.8038 79.2353C96.9212 79.9415 97.0306 80.6523 97.1977 81.3513C97.3648 82.0503 97.5563 82.531 97.6883 83.132C97.8203 83.733 97.7872 84.0854 97.8575 84.5608C97.8718 84.8241 97.9369 85.0822 98.0491 85.3209C101.261 90.8838 104.473 96.4468 107.684 102.01C110.645 107.137 113.607 112.268 116.57 117.401C116.803 117.804 117.036 118.207 117.268 118.61C117.368 118.755 117.479 118.892 117.602 119.019C119.01 118.017 120.33 116.896 121.546 115.667ZM78.9193 91.6034C78.9893 91.9374 79.0238 92.2778 79.0219 92.6191C79.0249 92.8386 78.971 93.0552 78.8657 93.2478C78.7603 93.4405 78.607 93.6027 78.4206 93.7187C78.3805 93.8363 78.3725 93.9624 78.3974 94.0841C78.4223 94.2058 78.4792 94.3186 78.5622 94.4109C82.7112 101.597 86.8774 108.77 91.0608 115.929C93.3044 119.815 95.548 123.701 97.7962 127.595C97.9266 127.821 98.0615 128.054 98.1965 128.288C98.3315 128.522 98.517 128.694 98.7029 128.942L99.5091 128.476C99.456 128.309 99.3905 128.145 99.313 127.988C98.5589 126.681 97.8095 125.383 97.06 124.085C96.9576 123.908 96.8599 123.739 96.7575 123.561C96.6551 123.384 96.5108 123.134 96.7256 122.892C97.1629 122.811 97.2417 122.873 97.4385 123.233C98.3694 124.845 99.3112 126.476 100.264 128.127C100.306 128.176 100.354 128.22 100.405 128.26C100.628 128.237 100.849 128.196 101.065 128.137C101.605 127.954 102.126 127.739 102.656 127.541C102.881 127.465 103.102 127.401 103.323 127.317C103.543 127.233 103.734 126.951 103.557 126.644C97.3759 115.938 91.181 105.239 84.9727 94.5475C84.7446 94.1525 84.5072 93.7413 84.2931 93.3704C84.1255 93.0871 83.8837 92.855 83.5938 92.6992C83.139 92.4262 82.7098 92.1127 82.3113 91.7626C81.6772 91.2043 81.0775 90.5938 80.4388 90.0274C80.0992 89.7824 79.7402 89.5654 79.3655 89.3786C79.0875 89.1951 79.0345 89.2149 78.6754 89.4867C78.7011 90.1976 78.7827 90.9053 78.9193 91.6034ZM78.2199 61.6071C78.2624 61.4835 78.2617 61.3492 78.218 61.2261C78.1742 61.1029 78.09 60.9983 77.979 60.9292C76.7114 59.9626 75.4358 59.0007 74.1556 58.0306C73.6967 57.6828 73.2528 57.3049 72.7893 56.949C72.6455 56.8436 72.492 56.7523 72.3308 56.6762C72.0698 56.9129 72.1976 57.0971 72.2954 57.2664L75.2167 62.1586C75.3377 62.3682 75.4633 62.5859 75.589 62.8036C75.6385 62.9222 75.7163 63.0267 75.8158 63.1081C75.9152 63.1894 76.0332 63.2449 76.1592 63.2698L78.2199 61.6071Z" fill="#D1D1D1"/>
<path d="M103.421 142.847C103.161 142.851 102.908 142.76 102.711 142.59C102.514 142.421 102.386 142.185 102.352 141.927C102.332 141.789 102.342 141.649 102.379 141.515C102.417 141.38 102.482 141.256 102.57 141.148C102.659 141.04 102.769 140.952 102.893 140.889C103.017 140.826 103.153 140.79 103.292 140.782C104.473 140.693 105.639 140.471 106.769 140.119C108.1 139.745 109.403 139.277 110.668 138.717L111.439 138.358C112.87 137.671 114.316 137.03 115.724 136.303C118.701 134.724 121.542 132.9 124.218 130.851C125.056 130.217 125.857 129.539 126.645 128.837C127.278 128.256 127.882 127.628 128.47 126.988C128.824 126.568 129.155 126.129 129.462 125.673C129.618 125.464 129.845 125.32 130.101 125.267C130.356 125.215 130.622 125.259 130.847 125.39C131.065 125.516 131.228 125.718 131.305 125.958C131.382 126.198 131.367 126.458 131.263 126.687C131.17 126.79 131.099 126.91 131.054 127.041C131.009 127.172 130.99 127.31 130.999 127.448C131.007 127.586 131.043 127.721 131.105 127.845C131.166 127.969 131.251 128.08 131.356 128.17C131.392 128.224 131.425 128.281 131.454 128.339C132.506 130.162 133.558 131.984 134.609 133.806C134.997 134.388 135.31 135.016 135.539 135.677C135.757 136.363 135.812 137.091 135.701 137.803C135.589 138.514 135.314 139.19 134.897 139.778C134.46 140.366 133.961 140.907 133.409 141.389C132.251 142.491 131.035 143.53 129.767 144.503C128.761 145.255 127.799 146.047 126.738 146.703C124.52 148.16 122.159 149.386 119.692 150.363C119.051 150.593 118.445 150.921 117.799 151.143C116.704 151.518 115.607 151.871 114.508 152.183C113.905 152.385 113.279 152.508 112.645 152.55C111.814 152.619 110.981 152.456 110.238 152.077C109.496 151.699 108.873 151.121 108.441 150.408C107.06 148.164 105.802 145.837 104.485 143.555C104.336 143.297 104.151 143.07 103.978 142.826L103.421 142.847ZM109.215 142.233C109.815 143.273 110.415 144.313 111.016 145.353C111.1 145.458 111.145 145.589 111.145 145.724C111.145 145.859 111.099 145.99 111.015 146.095C110.939 146.186 110.837 146.251 110.723 146.281C110.608 146.31 110.488 146.302 110.378 146.259C110.201 146.179 110.051 146.048 109.947 145.884C109.481 145.078 109.016 144.272 108.55 143.465C108.341 143.103 108.136 142.748 107.927 142.385C107.852 142.256 107.679 142.087 107.559 142.103C107.078 142.079 106.604 142.231 106.225 142.529C106.314 142.682 106.344 142.847 106.423 142.984C107.573 144.976 108.723 146.967 109.877 148.966C110.165 149.517 110.629 149.956 111.194 150.213C111.759 150.471 112.395 150.533 112.999 150.389C114.69 149.929 116.342 149.383 118 148.792C120.371 147.89 122.645 146.75 124.786 145.39C126.207 144.552 127.563 143.607 128.841 142.564C130.298 141.369 131.686 140.094 133 138.745C133.253 138.467 133.438 138.134 133.541 137.773C133.644 137.411 133.661 137.031 133.592 136.661C133.507 136.151 133.315 135.665 133.027 135.235C131.942 133.357 130.858 131.478 129.769 129.592C129.653 129.413 129.529 129.241 129.396 129.076C129.221 129.158 129.054 129.254 128.896 129.365C127.764 130.526 126.539 131.593 125.233 132.554C123.443 133.95 121.547 135.203 119.561 136.302C117.537 137.471 115.506 138.589 113.41 139.649C112.175 140.266 110.805 140.723 109.567 141.223C109.357 141.344 109.148 141.465 108.89 141.614C109.064 141.879 109.121 142.071 109.215 142.233Z" fill="#D1D1D1"/>
<path d="M115.901 130.858C117.041 130.114 118.779 129.046 120.44 127.883C122.329 126.623 124.095 125.189 125.717 123.6C126.548 122.829 127.264 121.942 127.841 120.966C127.96 120.763 128.006 120.526 127.97 120.294C127.934 120.062 127.818 119.849 127.643 119.693C127.539 119.583 127.41 119.499 127.268 119.447C127.126 119.395 126.973 119.376 126.823 119.392C126.672 119.409 126.527 119.459 126.399 119.541C126.271 119.622 126.164 119.732 126.085 119.861C125.16 121.242 124.018 122.464 122.703 123.48C121.696 124.287 120.736 125.175 119.698 125.946C118.815 126.596 117.851 127.142 116.928 127.739C114.405 129.339 111.799 130.804 109.12 132.128C108.419 132.533 107.611 132.753 106.863 133.077C105.107 133.834 103.279 134.411 101.406 134.798C100.924 134.893 100.404 134.925 99.9197 134.979C99.6662 135.014 99.435 135.143 99.2717 135.34C99.1085 135.537 99.025 135.788 99.0377 136.044C99.0504 136.3 99.1585 136.541 99.3405 136.721C99.5225 136.901 99.7654 137.007 100.021 137.016C100.867 137.011 101.707 136.888 102.518 136.65L103.864 136.281C105.429 135.812 106.963 135.249 108.459 134.595C111.005 133.484 113.489 132.236 115.901 130.858Z" fill="#D1D1D1"/>
<path d="M118.814 133.035C119.845 132.344 121.499 131.281 123.098 130.121C124.333 129.225 125.517 128.241 126.661 127.226C127.648 126.36 128.524 125.374 129.267 124.291C129.488 123.949 129.722 123.609 129.615 123.144C129.577 122.973 129.496 122.815 129.378 122.684C129.261 122.554 129.112 122.456 128.946 122.401C128.779 122.345 128.602 122.334 128.429 122.367C128.257 122.401 128.097 122.479 127.964 122.593C127.835 122.7 127.723 122.827 127.632 122.967C126.523 124.47 125.22 125.819 123.756 126.979C122.212 128.253 120.587 129.424 118.891 130.486C117.439 131.454 115.915 132.333 114.371 133.16C112.658 134.085 110.905 134.957 109.139 135.772C108.128 136.205 107.096 136.585 106.046 136.913C104.979 137.301 103.875 137.579 102.751 137.741C102.503 137.776 102.249 137.783 102.006 137.827C101.725 137.857 101.45 137.926 101.188 138.03C100.988 138.118 100.824 138.273 100.727 138.469C100.63 138.665 100.605 138.888 100.656 139.101C100.686 139.309 100.786 139.5 100.94 139.644C101.093 139.788 101.29 139.875 101.5 139.893C101.799 139.921 102.101 139.919 102.4 139.889C103.794 139.729 105.164 139.411 106.485 138.939C110.793 137.416 114.927 135.437 118.814 133.035Z" fill="#D1D1D1"/>
<path d="M113.981 128.183L118.609 125.027C119.036 124.781 119.48 124.525 119.865 124.205C121.568 122.976 123.156 121.595 124.61 120.079C125.143 119.461 125.641 118.814 126.104 118.142C126.222 117.984 126.291 117.794 126.302 117.596C126.312 117.399 126.264 117.203 126.162 117.033C126.077 116.877 125.952 116.745 125.8 116.652C125.648 116.559 125.475 116.507 125.297 116.501C125.119 116.495 124.942 116.536 124.785 116.619C124.627 116.703 124.494 116.826 124.399 116.976C123.55 118.252 122.52 119.397 121.341 120.376C120.296 121.302 119.118 122.111 118.026 122.956C115.328 124.951 112.462 126.709 109.462 128.212C107.889 129.045 106.233 129.732 104.588 130.403C103.244 130.993 101.843 131.442 100.406 131.742C99.7255 131.866 99.0354 131.975 98.3348 132.046C98.1448 132.046 97.9584 132.098 97.7962 132.197C97.6339 132.296 97.5022 132.438 97.4153 132.607C97.3285 132.776 97.2899 132.966 97.3039 133.155C97.3179 133.345 97.3839 133.527 97.4946 133.681C97.5859 133.832 97.718 133.953 97.8755 134.031C98.033 134.11 98.2095 134.142 98.3845 134.124C98.8694 134.11 99.3528 134.064 99.8319 133.987C100.9 133.818 101.949 133.546 102.966 133.178C104.229 132.685 105.538 132.327 106.759 131.761C109.185 130.619 111.634 129.517 113.981 128.183Z" fill="#D1D1D1"/>
<path d="M114.217 119.953C114.652 119.702 114.733 119.655 114.522 119.272C114.311 118.888 114.056 118.465 113.824 118.062C112.074 115.031 110.322 111.997 108.569 108.96C108.448 108.75 108.322 108.533 108.196 108.315C107.973 107.928 107.72 107.956 107.409 108.404C109.569 112.145 111.743 115.91 113.926 119.691C114.014 119.787 114.112 119.875 114.217 119.953Z" fill="#D1D1D1"/>
<path d="M103.901 102.086C103.929 102.193 103.968 102.297 104.016 102.396C104.514 103.259 105.012 104.122 105.515 104.992C105.65 105.226 105.659 105.242 106.025 105.3C106.32 104.99 106.327 104.91 106.109 104.531C105.69 103.806 105.275 103.088 104.856 102.363L104.531 101.798C104.18 101.732 103.997 101.805 103.901 102.086Z" fill="#D1D1D1"/>
<path d="M96.6171 89.4693C96.663 89.5785 96.7224 89.6814 96.794 89.7758C97.0547 90.2274 97.3108 90.6709 97.5669 91.1145C97.7345 91.4048 97.7345 91.4047 98.1043 91.4493C98.3623 91.3003 98.352 91.059 98.2157 90.8043C97.941 90.3286 97.6663 89.8527 97.3916 89.377C97.1524 89.0743 96.9237 89.088 96.6171 89.4693Z" fill="#D1D1D1"/>
<path d="M80.4745 80.891C80.4744 80.6984 80.4503 80.5065 80.4027 80.3198C79.9488 79.0124 79.4708 77.7189 79.0089 76.4161C78.6687 75.4731 78.3493 74.5288 78.0171 73.5811C77.9954 73.4683 77.9364 73.3661 77.8495 73.2909C77.7166 73.2069 77.5568 73.1763 77.4023 73.2051C77.3136 73.2563 77.2578 73.439 77.2157 73.5708C77.2203 73.6552 77.2423 73.7376 77.2803 73.813L79.4557 79.7593C79.5655 80.0614 79.6627 80.36 79.776 80.6493C79.8893 80.9387 80.0711 81.0487 80.4745 80.891Z" fill="#D1D1D1"/>
<path d="M78.0656 84.2594C78.4061 84.2347 78.4848 84.0173 78.4305 83.737C78.3761 83.4566 78.2647 83.0587 78.1777 82.7219C77.7718 81.0321 77.3705 79.3503 76.9566 77.6651C76.8494 77.2003 76.7452 77.1314 76.3275 77.1899C76.1377 77.3639 76.1837 77.5739 76.2343 77.7919L77.1336 81.379C77.2442 81.8312 77.3975 82.3016 77.4941 82.7296C77.5907 83.1576 77.646 83.3836 77.6936 83.6894C77.7411 83.9952 77.7973 84.167 78.0656 84.2594Z" fill="#D1D1D1"/>
<path d="M80.5485 75.6563C80.751 75.4857 80.7351 75.2906 80.6383 75.067C79.9759 73.622 79.3251 72.1595 78.6581 70.7064C78.444 70.3356 78.4021 70.263 77.9686 70.4058C77.8102 70.6155 77.8804 70.8115 77.9759 71.0143C78.3769 71.8578 78.7779 72.7012 79.1627 73.554C79.4402 74.1463 79.6807 74.7491 79.9455 75.338C80.1075 75.6745 80.1503 75.6927 80.5485 75.6563Z" fill="#D1D1D1"/>
<path d="M82.8201 88.2326C83.1425 88.0464 83.0466 87.7686 82.952 87.5115C82.523 86.3402 82.1021 85.1643 81.6544 83.9608C81.5381 83.7592 81.5312 83.5052 81.4436 83.2977C81.3619 83.1372 81.2718 82.9812 81.1737 82.8301C80.679 82.9975 80.6416 83.1374 80.748 83.4521C81.2568 84.9106 81.7737 86.3643 82.2825 87.8228C82.3784 88.1006 82.5016 88.2768 82.8201 88.2326Z" fill="#D1D1D1"/>
<path d="M86.3273 81.6083L86.8354 81.315C86.2161 80.2425 85.6202 79.2103 85.0009 78.1377L84.4752 78.3445C84.4992 78.5136 84.5442 78.6791 84.6091 78.8371C85.1072 79.6999 85.6054 80.5628 86.16 81.3931C86.2112 81.4682 86.2671 81.5401 86.3273 81.6083Z" fill="#D1D1D1"/>
<path d="M75.2721 66.2762C74.805 66.4169 74.7234 66.5177 74.8324 66.8741C74.9414 67.2305 75.0792 67.3015 75.1277 67.5531C75.309 68.072 75.4695 68.5922 75.6509 69.1112C75.7416 69.3438 75.8444 69.5716 75.9588 69.7935C76.4412 69.6978 76.5261 69.5843 76.4019 69.1829C76.2249 68.5969 76.011 68.0215 75.8132 67.4368C75.6828 67.211 75.6492 66.9294 75.5431 66.6896C75.4651 66.5441 75.3745 66.4057 75.2721 66.2762Z" fill="#D1D1D1"/>
<path d="M75.5668 74.5881C76.0076 74.4949 76.091 74.2855 76.0239 74.0017C75.9037 73.4582 75.7788 72.9067 75.6412 72.3517C75.5694 72.0598 75.4363 71.9969 74.9599 72.1214C74.7886 72.8117 75.2603 73.4426 75.2701 74.0928C75.294 74.2833 75.4657 74.4315 75.5668 74.5881Z" fill="#D1D1D1"/>
<path d="M84.0255 83.077C84.0594 82.9146 84.0579 82.7468 84.021 82.585C83.8084 82.0304 83.5588 81.4864 83.3219 80.9457C83.2981 80.8744 83.2601 80.8085 83.2102 80.7522C82.8475 80.7573 82.8475 80.7573 82.6215 81.0921C82.682 81.1969 82.7518 81.3179 82.8263 81.4469C83.0235 81.8815 83.2274 82.2906 83.4304 82.754C83.4441 82.8168 83.4711 82.8759 83.5097 82.9273C83.5483 82.9787 83.5975 83.0212 83.654 83.0518C83.7104 83.0825 83.7729 83.1006 83.837 83.105C83.9011 83.1093 83.9654 83.0998 84.0255 83.077Z" fill="#D1D1D1"/>
<path d="M78.5024 87.1577C78.7613 87.4384 78.9555 87.4768 79.1636 87.2599C79.1856 86.5187 79.0105 85.785 78.6563 85.1336L78.1922 85.1864C78.1227 85.904 78.63 86.5034 78.5024 87.1577Z" fill="#D1D1D1"/>
<path d="M81.938 78.9396C82.2131 78.727 82.1752 78.5123 82.0817 78.276C81.9883 78.0396 81.8178 77.6327 81.6697 77.3203C81.6151 77.1832 81.5209 77.0654 81.3991 76.982C81.1686 76.8247 80.7998 77.0054 80.8911 77.2753C81.0324 77.8907 81.3278 78.4601 81.7497 78.93C81.7832 78.9322 81.9147 78.8993 81.938 78.9396Z" fill="#D1D1D1"/>
<path d="M78.5216 68.0869L78.8845 67.8774C78.8917 67.6799 78.8431 67.4844 78.7442 67.3132C78.6454 67.1421 78.5004 67.0022 78.3258 66.9097L77.9297 67.1921C77.9462 67.3787 78.009 67.5582 78.1123 67.7145C78.2157 67.8707 78.3564 67.9987 78.5216 68.0869Z" fill="#D1D1D1"/>
<path d="M82.954 74.8152C82.3659 75.0257 82.3803 75.4045 83.0099 75.955L83.4342 75.796C83.4515 75.6042 83.416 75.4114 83.3313 75.2384C83.2466 75.0655 83.1161 74.9191 82.954 74.8152Z" fill="#D1D1D1"/>
<path d="M92.1469 114.98C92.0539 115.071 91.9972 115.193 91.9874 115.324C91.9776 115.454 92.0152 115.583 92.0934 115.688C92.2749 116.002 92.4968 116.293 92.6783 116.608C93.2741 117.64 93.8746 118.68 94.4751 119.72C94.5682 119.881 94.6566 120.034 94.7497 120.195C94.7874 120.314 94.8659 120.416 94.9714 120.483C95.0769 120.55 95.2026 120.578 95.3264 120.561C95.5871 120.249 95.6038 120.111 95.4189 119.809C94.6788 118.527 93.8983 117.268 93.1421 115.996C93.0071 115.762 92.8768 115.536 92.7418 115.303C92.6068 115.069 92.4824 114.872 92.1469 114.98Z" fill="#D1D1D1"/>
<path d="M97.2715 120.394C97.7695 121.257 98.2112 122.152 98.677 123.033C98.8492 123.331 99.0598 123.436 99.2729 123.302C99.4859 123.168 99.4951 122.905 99.3288 122.635L96.5592 117.838C96.3963 117.556 96.173 117.449 95.9633 117.57C95.7537 117.691 95.7432 117.933 95.9155 118.231L97.1909 120.441L97.2715 120.394Z" fill="#D1D1D1"/>
<path d="M86.4898 101.627C86.9252 101.375 86.9916 101.229 86.7728 100.85C86.554 100.471 86.2606 99.9633 85.9999 99.5117C85.8183 99.1972 85.6367 98.8827 85.4552 98.5682C85.4198 98.4576 85.3611 98.3558 85.2829 98.2698C85.1625 98.2103 84.9764 98.1673 84.8796 98.2231C84.8268 98.2695 84.7842 98.3261 84.7543 98.3897C84.7243 98.4532 84.7078 98.5222 84.7057 98.5923C84.7461 98.7178 84.8128 98.8332 84.9012 98.931C85.3249 99.6649 85.7486 100.399 86.1723 101.133C86.266 101.305 86.3721 101.47 86.4898 101.627Z" fill="#D1D1D1"/>
<path d="M89.5913 110.553C89.8329 110.339 89.7568 110.114 89.6218 109.88C89.2494 109.235 88.8769 108.59 88.4997 107.936C88.4678 107.862 88.4272 107.792 88.3787 107.727C88.2809 107.557 88.0634 107.479 87.8966 107.618C87.7297 107.757 87.7754 107.892 87.7553 108.044C87.783 108.141 87.8342 108.229 87.9042 108.302C88.2767 108.947 88.6492 109.592 89.0217 110.237C89.1164 110.494 89.2926 110.651 89.5913 110.553Z" fill="#D1D1D1"/>
<path d="M89.6152 106.369C89.6813 106.265 89.7129 106.143 89.7056 106.019C89.6982 105.896 89.6522 105.779 89.574 105.683L88.3402 103.546C88.1959 103.296 88.0209 103.161 87.7281 103.287C87.4353 103.413 87.5902 103.7 87.7159 103.917C88.1163 104.611 88.512 105.296 88.9124 105.99C89.1164 106.399 89.2194 106.447 89.6152 106.369Z" fill="#D1D1D1"/>
<path d="M81.7393 96.8774C82.0941 96.393 81.588 96.0938 81.4455 95.7353C81.303 95.3767 81.1894 95.2917 80.8436 95.4376C80.6023 95.7274 80.7144 95.996 80.913 96.2469C81.1116 96.4978 81.1602 97.0289 81.7393 96.8774Z" fill="#D1D1D1"/>
<path d="M122.508 144.834C122.753 144.761 122.991 144.67 123.222 144.562C125.121 143.483 126.919 142.236 128.595 140.836C129.389 140.175 130.145 139.469 130.858 138.723C131.27 138.267 131.533 137.697 131.613 137.088C131.693 136.479 131.587 135.86 131.309 135.313C130.95 134.693 130.592 134.072 130.233 133.451C130.131 133.28 130.005 133.125 129.859 132.99C129.761 132.897 129.632 132.844 129.498 132.841C129.363 132.837 129.231 132.884 129.128 132.971C129.025 133.043 128.95 133.151 128.918 133.274C128.887 133.396 128.9 133.526 128.956 133.64C129.014 133.76 129.081 133.876 129.156 133.987C129.496 134.575 129.84 135.172 130.18 135.761C130.33 136.048 130.402 136.37 130.389 136.694C130.377 137.018 130.28 137.333 130.108 137.608C129.964 137.875 129.775 138.115 129.549 138.318C127.482 140.287 125.197 142.013 122.739 143.464L122.497 143.604C122.009 143.95 121.985 144.319 122.508 144.834Z" fill="#D1D1D1"/>
<path d="M119.086 146.724C119.473 146.501 119.614 146.205 119.485 145.87C119.455 145.796 119.409 145.73 119.352 145.674C119.294 145.618 119.226 145.575 119.151 145.547C119.077 145.518 118.997 145.506 118.917 145.509C118.837 145.513 118.759 145.533 118.687 145.568C117.997 145.826 117.312 146.092 116.637 146.375C116.222 146.55 116.102 146.845 116.234 147.167C116.259 147.252 116.303 147.331 116.363 147.397C116.423 147.464 116.497 147.516 116.579 147.549C116.662 147.583 116.751 147.598 116.84 147.593C116.929 147.588 117.016 147.563 117.094 147.52C117.775 147.266 118.459 146.979 119.086 146.724Z" fill="#D1D1D1"/>
</svg>
