<svg width="300" height="300" viewBox="0 0 300 300" fill="none" xmlns="http://www.w3.org/2000/svg">
<g clip-path="url(#clip0_48_59)">
<path d="M271.656 53.7396V67.9583H232.073V28.375H246.25V0H189.573V28.375H203.74V67.9583H96.2604V28.375H110.427V0H53.7396V28.375H67.9583V67.9583H0.0416756V164.219H67.9583V203.802H28.375V189.635H0V246.323H28.375V232.083H67.9583V300H232.125V232.083H300.042V135.833H232.125V96.25H271.708V110.417H300.052V53.7396H271.656ZM176.865 96.2604L161.24 111.885L150.073 100.719L138.792 111.917L123.167 96.2917L176.865 96.2604ZM110.365 150L116.74 143.625L123.125 150L116.74 156.385L110.365 150ZM111.938 161.177L96.3125 176.802V123.167L111.938 138.792L100.76 149.969L111.938 161.177ZM150.031 167.333L132.698 150L150.031 132.667L167.365 150L150.031 167.333ZM172.156 154.833L178.531 161.208L161.198 178.542L154.792 172.125L172.156 154.833ZM127.906 145.25L121.5 138.792L138.792 121.5L145.167 127.875L127.906 145.25ZM127.906 154.833L145.208 172.125L138.792 178.5L121.5 161.167L127.906 154.833ZM150.031 176.958L156.417 183.333L150.031 189.719L143.656 183.333L150.031 176.958ZM150.031 199.292L161.208 188.125L176.833 203.75H123.167L138.792 188.125L150.031 199.292ZM165.99 183.333L183.323 166.01L203.771 186.448V203.781H186.406L165.99 183.333ZM203.771 176.875L188.146 161.25L199.323 150.083L188.083 138.792L203.708 123.167L203.771 176.875ZM189.708 150.042L183.323 156.427L176.948 150.042L183.323 143.667L189.708 150.042ZM172.125 145.208L154.792 127.875L161.167 121.5L178.5 138.792L172.125 145.208ZM150 123.094L143.625 116.708L150 110.333L156.385 116.708L150 123.094ZM134.042 116.708L116.708 134.042L96.2604 113.594V96.2604H113.594L134.042 116.708ZM96.2604 186.406L116.698 165.969L134.042 183.292L113.594 203.74H96.2604V186.406ZM203.74 113.594L183.292 134.042L165.958 116.708L186.406 96.2604H203.74V113.594ZM28.375 135.833V96.25H67.9583V135.833H28.375ZM203.74 271.656H96.2604V232.073H203.74V271.656ZM271.656 164.177V203.76H232.073V164.177H271.656Z" fill="white"/>
</g>
<defs>
<clipPath id="clip0_48_59">
<rect width="300" height="300" fill="white"/>
</clipPath>
</defs>
</svg>
