<svg width="315" height="309" viewBox="0 0 315 309" fill="none" xmlns="http://www.w3.org/2000/svg">
<circle cx="157.093" cy="157.093" r="115" transform="rotate(-30 157.093 157.093)" fill="#151515"/>
<path d="M201.229 233.539C186.109 242.268 168.741 246.318 151.319 245.176C133.898 244.035 117.207 237.752 103.356 227.124C89.505 216.496 79.1168 201.999 73.5049 185.467C67.893 168.935 67.3095 151.11 71.8281 134.246C76.3467 117.383 85.7646 102.237 98.8907 90.7262C112.017 79.2149 128.262 71.8545 145.571 69.5756C162.88 67.2968 180.476 70.202 196.135 77.9238C211.793 85.6455 224.81 97.8371 233.539 112.957C245.217 133.238 248.374 157.323 242.317 179.929C236.259 202.534 221.483 221.814 201.229 233.539ZM113.887 82.2592C99.0867 90.8044 87.1524 103.547 79.5935 118.875C72.0346 134.202 69.1907 151.428 71.4214 168.372C73.6522 185.316 80.8574 201.218 92.1258 214.067C103.394 226.917 118.22 236.136 134.728 240.559C151.236 244.982 168.685 244.411 184.869 238.918C201.052 233.424 215.243 223.255 225.647 209.696C236.051 196.138 242.201 179.798 243.318 162.744C244.436 145.691 240.472 128.688 231.927 113.888C220.448 94.0613 201.575 79.5969 179.446 73.6676C157.318 67.7383 133.741 70.828 113.887 82.2592Z" fill="#D1D1D1"/>
<path d="M207.438 244.294C191.396 253.57 173.102 258.232 154.576 257.764L154.608 256.832C174.241 257.316 193.58 251.996 210.204 241.54C226.828 231.083 239.998 215.955 248.064 198.049L248.908 198.432C240.281 217.719 225.762 233.775 207.438 244.294Z" fill="#D1D1D1"/>
<path d="M245.967 196.511L245.557 197.347L250.99 200.011L251.4 199.175L245.967 196.511Z" fill="#D1D1D1"/>
<path d="M155.195 261.965C154.021 259.991 152.393 258.326 150.445 257.108C152.453 255.995 154.179 254.436 155.489 252.551L156.651 252.589C155.424 254.406 153.845 255.957 152.008 257.152C153.771 258.464 155.256 260.113 156.378 262.003L155.195 261.965Z" fill="#D1D1D1"/>
<path d="M157.995 262.047C156.82 260.074 155.191 258.409 153.245 257.19C155.251 256.076 156.977 254.52 158.294 252.641L159.451 252.672C158.227 254.477 156.653 256.019 154.822 257.204C156.58 258.517 158.064 260.162 159.188 262.047L157.995 262.047Z" fill="#D1D1D1"/>
<path d="M135.077 261.079C134.46 260.972 133.878 260.713 133.385 260.326C132.929 259.973 132.582 259.5 132.381 258.96C132.184 258.399 132.148 257.795 132.276 257.214C132.351 256.856 132.493 256.515 132.696 256.209C132.899 255.908 133.156 255.646 133.454 255.438C133.733 255.243 134.048 255.105 134.381 255.032C133.979 254.816 133.625 254.521 133.341 254.163C133.057 253.806 132.849 253.394 132.73 252.954C132.611 252.509 132.596 252.044 132.685 251.593C132.804 250.946 133.109 250.348 133.562 249.872C133.993 249.43 134.537 249.116 135.134 248.964C135.756 248.817 136.403 248.811 137.027 248.946L142.676 250.092L140.243 262.15L135.077 261.079ZM135.185 255.922C134.86 256.036 134.569 256.233 134.343 256.494C134.115 256.759 133.959 257.079 133.89 257.422C133.815 257.767 133.84 258.125 133.961 258.456C134.077 258.764 134.265 259.038 134.509 259.258C134.77 259.485 135.086 259.64 135.425 259.707L138.929 260.415L139.706 256.547L136.215 255.844C135.871 255.782 135.518 255.812 135.19 255.93L135.185 255.922ZM135.712 250.393C135.353 250.507 135.032 250.718 134.785 251.004C134.539 251.297 134.372 251.649 134.3 252.025C134.223 252.391 134.249 252.77 134.375 253.122C134.498 253.481 134.714 253.801 135 254.051C135.285 254.301 135.631 254.472 136.003 254.547L139.968 255.343L140.827 251.116L136.895 250.356C136.505 250.261 136.098 250.277 135.717 250.401L135.712 250.393Z" fill="#D1D1D1"/>
<path d="M121.39 257.221C120.691 256.993 120.057 256.599 119.544 256.072C119.078 255.584 118.76 254.974 118.625 254.313C118.516 253.692 118.551 253.053 118.727 252.447C118.902 251.841 119.213 251.283 119.637 250.816C119.995 250.434 120.438 250.142 120.929 249.962C121.433 249.771 121.972 249.695 122.509 249.738L121.295 244.172L123.041 244.776L124.104 250.043L124.487 250.166L127.323 251.151L128.829 246.777L130.346 247.299L126.314 258.936L121.39 257.221ZM122.176 251.135C121.755 251.199 121.36 251.378 121.035 251.653C120.704 251.95 120.455 252.327 120.312 252.748C120.164 253.16 120.135 253.605 120.227 254.033C120.314 254.451 120.512 254.838 120.799 255.154C121.105 255.49 121.494 255.74 121.927 255.879L125.295 257.041L126.883 252.437L123.452 251.279C123.041 251.133 122.601 251.085 122.168 251.139L122.176 251.135Z" fill="#D1D1D1"/>
<path d="M113.337 253.98L111.879 253.317L117.014 242.139L118.472 242.802L113.337 253.98Z" fill="#D1D1D1"/>
<path d="M99.2336 246.364L97.8663 245.541L104.19 234.989L105.35 235.695L106.904 247.826L111.833 239.606L113.205 240.437L106.881 250.989L105.726 250.291L104.182 238.121L99.2336 246.364Z" fill="#D1D1D1"/>
<path d="M98.7218 231.663C99.1122 232.712 99.2177 233.846 99.0274 234.948C98.8246 236.061 98.3357 237.101 97.6089 237.968C96.8821 238.834 95.9424 239.496 94.8821 239.889C93.8289 240.271 92.6934 240.366 91.5912 240.166C90.4603 239.961 89.4048 239.457 88.534 238.706C87.8664 238.141 87.3127 237.454 86.9026 236.681C86.489 235.922 86.2491 235.08 86.2 234.217C86.1609 233.371 86.3372 232.53 86.7122 231.771L87.9639 232.822C87.6852 233.655 87.6881 234.556 87.9719 235.387C88.2645 236.265 88.805 237.039 89.528 237.617C90.1735 238.176 90.9605 238.547 91.8029 238.689C92.6311 238.842 93.4852 238.761 94.2706 238.458C95.1015 238.144 95.8351 237.616 96.3978 236.929C96.978 236.256 97.3682 235.441 97.5281 234.567C97.6822 233.743 97.611 232.893 97.322 232.106C97.0202 231.309 96.5166 230.603 95.8602 230.058C95.2543 229.524 94.5292 229.143 93.7456 228.947C93.0685 228.777 92.3592 228.787 91.6869 228.974C91.0172 229.188 90.4013 229.544 89.881 230.017L93.4821 233.033L92.5517 234.14L87.6814 230.061C88.4187 229.142 89.3621 228.41 90.4351 227.923C91.4397 227.465 92.5542 227.303 93.6478 227.455C94.7889 227.662 95.8572 228.16 96.7488 228.902C97.6404 229.643 98.3249 230.603 98.7358 231.688L98.7218 231.663Z" fill="#D1D1D1"/>
<path d="M80.7862 231.151L79.6737 229.988L88.578 221.504L89.6859 222.659L80.7862 231.151Z" fill="#D1D1D1"/>
<path d="M70.4705 218.832L69.5018 217.564L79.2466 210.089L80.062 211.166L77.0155 223.019L84.6649 217.183L85.6336 218.451L75.8553 225.924L75.0399 224.847L78.0978 212.977L70.4705 218.832Z" fill="#D1D1D1"/>
<path d="M75.4239 204.976C75.3995 206.094 75.081 207.186 74.5003 208.142C73.9095 209.109 73.0741 209.903 72.0785 210.444C71.0828 210.985 69.9621 211.254 68.8294 211.223C67.6999 211.188 66.5998 210.854 65.641 210.256C64.6821 209.658 63.8985 208.817 63.3698 207.818C62.9488 207.053 62.6829 206.213 62.5874 205.346C62.486 204.488 62.5748 203.618 62.8475 202.798C63.1094 201.985 63.5823 201.256 64.2179 200.685L65.0325 202.096C64.4701 202.766 64.141 203.601 64.0951 204.475C64.0222 205.399 64.2138 206.325 64.6474 207.145C65.0462 207.903 65.6438 208.539 66.3761 208.985C67.0915 209.426 67.913 209.664 68.7532 209.676C69.6417 209.686 70.5171 209.462 71.2919 209.027C72.0793 208.618 72.7425 208.005 73.2123 207.252C73.6573 206.542 73.9022 205.725 73.9212 204.887C73.9352 204.033 73.7265 203.19 73.3156 202.441C72.9463 201.724 72.4149 201.104 71.7637 200.628C71.1918 200.226 70.5264 199.977 69.8309 199.906C69.1328 199.844 68.4295 199.935 67.7698 200.171L69.9843 204.268L68.7347 204.989L65.7006 199.399C66.7264 198.819 67.8727 198.485 69.0495 198.422C70.1531 198.362 71.2503 198.625 72.2064 199.179C73.2269 199.775 74.0542 200.652 74.5895 201.706C75.1575 202.701 75.4458 203.83 75.4239 204.976Z" fill="#D1D1D1"/>
<path d="M62.7382 186.167L56.9032 193.116L56.3431 191.289L61.1188 185.801L54.1208 183.865L53.5687 182.034L62.2579 184.628L66.776 183.256L67.2355 184.796L62.7382 186.167Z" fill="#D1D1D1"/>
<path d="M64.0334 174.616C63.6338 175.677 62.9642 176.616 62.0906 177.339C61.2109 178.056 60.1551 178.523 59.0333 178.692C57.9115 178.862 56.7648 178.727 55.7128 178.302C54.667 177.88 53.7519 177.188 53.0608 176.296C52.3411 175.39 51.8759 174.308 51.7131 173.162C51.5242 172.014 51.6376 170.837 52.042 169.747C52.4446 168.687 53.1138 167.749 53.9848 167.024C54.8619 166.298 55.9215 165.827 57.0479 165.663C58.1683 165.488 59.3156 165.625 60.3626 166.061C61.9536 166.738 63.2219 168.003 63.9032 169.592C64.5845 171.182 64.6261 172.973 64.0194 174.592L64.0334 174.616ZM61.9071 169.071C61.3789 168.394 60.6793 167.87 59.8808 167.554C59.0658 167.222 58.1749 167.123 57.3068 167.266C56.4385 167.393 55.6202 167.75 54.9373 168.301C53.927 169.143 53.2847 170.346 53.1467 171.654C53.0087 172.962 53.386 174.272 54.1983 175.306C54.7371 175.99 55.4475 176.519 56.2572 176.839C57.0669 177.159 57.947 177.259 58.8078 177.128C59.6685 176.997 60.4792 176.64 61.1571 176.094C61.8351 175.548 62.3561 174.831 62.667 174.018C62.9736 173.199 63.0628 172.314 62.9258 171.45C62.7982 170.582 62.4441 169.763 61.8991 169.076L61.9071 169.071Z" fill="#D1D1D1"/>
<path d="M62.6973 159.36C62.2924 160.125 61.678 160.759 60.926 161.189C60.1224 161.643 59.2111 161.872 58.2882 161.852L50.7454 161.82L50.758 160.222L58.1748 160.24C58.8115 160.251 59.4418 160.112 60.0147 159.834C60.5632 159.568 61.0232 159.149 61.3396 158.628C61.6831 158.063 61.8555 157.411 61.8358 156.75C61.8565 156.093 61.6903 155.444 61.3563 154.877C61.0423 154.356 60.5894 153.933 60.0484 153.655C59.4792 153.369 58.8497 153.223 58.2128 153.231L50.7799 153.222L50.7797 151.621L58.3271 151.66C59.2335 151.646 60.1275 151.871 60.9188 152.313C61.6652 152.744 62.2776 153.373 62.6878 154.13C63.1207 154.94 63.3375 155.848 63.3174 156.766C63.3289 157.668 63.1158 158.56 62.6973 159.36Z" fill="#D1D1D1"/>
<path d="M52.0287 140.881C52.1184 140.154 52.3862 139.46 52.8084 138.861C53.2016 138.309 53.7422 137.877 54.3687 137.617C54.9605 137.398 55.5941 137.315 56.2223 137.375C56.8505 137.435 57.4572 137.635 57.9971 137.962C58.4372 138.243 58.8068 138.622 59.0771 139.069C59.3537 139.531 59.527 140.047 59.585 140.582L64.8266 138.34L64.5611 140.17L59.5864 142.204L59.5351 142.599L59.1003 145.57L63.6782 146.238L63.452 147.82L51.2805 146.064L52.0287 140.881ZM58.1493 140.497C58.0039 140.1 57.7537 139.751 57.4254 139.485C57.0739 139.21 56.6539 139.036 56.2107 138.983C55.7794 138.917 55.3383 138.971 54.9355 139.138C54.5389 139.3 54.1954 139.569 53.9436 139.915C53.6725 140.277 53.4998 140.702 53.4421 141.151L52.9278 144.673L57.7542 145.38L58.2846 141.849C58.3571 141.394 58.3105 140.928 58.1493 140.497Z" fill="#D1D1D1"/>
<path d="M67.1007 127.74C66.2413 128.461 65.2071 128.943 64.1022 129.137C62.9973 129.332 61.8607 129.232 60.8067 128.847C59.7354 128.47 58.7845 127.812 58.0523 126.944C57.3252 126.085 56.8396 125.049 56.6455 123.94C56.4515 122.832 56.5559 121.692 56.948 120.637C57.2383 119.812 57.6939 119.056 58.2868 118.413C58.8715 117.777 59.5981 117.287 60.4075 116.985C61.2618 116.67 62.1823 116.579 63.0817 116.72L62.5355 118.25C61.6132 118.155 60.6879 118.399 59.9323 118.936C59.1794 119.5 58.6179 120.282 58.3234 121.176C58.0216 121.972 57.9435 122.835 58.0978 123.671C58.2463 124.492 58.6167 125.256 59.1688 125.88C59.762 126.547 60.5159 127.052 61.3589 127.346C62.1899 127.659 63.0877 127.752 63.9651 127.615C64.7863 127.483 65.5555 127.128 66.1892 126.589C66.8338 126.039 67.3207 125.327 67.6003 124.527C67.9389 123.652 68.0007 122.693 67.7774 121.781C67.54 120.887 66.9847 120.111 66.2157 119.597L66.7781 118.058C67.5459 118.505 68.1887 119.138 68.647 119.9C69.1053 120.661 69.3643 121.525 69.4003 122.413C69.4405 123.286 69.3086 124.159 69.0122 124.981C68.6345 126.055 67.9742 127.008 67.1007 127.74Z" fill="#D1D1D1"/>
<path d="M63.7138 106.25C64.0481 105.598 64.5353 105.036 65.1337 104.613C65.6887 104.223 66.3444 104.001 67.0222 103.974C67.7283 103.95 68.4276 104.119 69.0452 104.462C69.5373 104.72 69.9706 105.077 70.3177 105.511C70.6364 105.928 70.8565 106.411 70.9614 106.924C71.0683 107.451 71.0597 107.995 70.9362 108.519L76.6216 108.182L75.7559 109.81L70.3899 110.049L70.2067 110.402L68.7936 113.056L72.8817 115.221L72.1282 116.635L61.2713 110.863L63.7138 106.25ZM69.6058 107.965C69.6034 107.541 69.4862 107.126 69.2667 106.763C69.0332 106.386 68.7003 106.079 68.3044 105.878C67.9221 105.67 67.4913 105.566 67.056 105.578C66.6275 105.6 66.2133 105.739 65.858 105.979C65.4845 106.233 65.1797 106.575 64.971 106.975L63.2898 110.096L67.5978 112.381L69.3032 109.247C69.5087 108.851 69.6127 108.411 69.6058 107.965Z" fill="#D1D1D1"/>
<path d="M68.2608 98.5621L72.9976 91.8714L74.1873 92.7218L70.3926 98.0838L73.5723 100.333L76.8794 95.6716L77.9949 96.468L74.6878 101.129L78.0493 103.488L81.8852 98.0488L83.0656 98.883L78.2944 105.626L68.2608 98.5621Z" fill="#D1D1D1"/>
<path d="M90.9442 90.1309L88.1129 89.0997L83.9002 93.6818L85.1537 96.4302L84.0022 97.6755L78.5082 85.497L79.5586 84.3746L92.1364 88.9374L90.9442 90.1309ZM83.2844 92.3174L86.7273 88.5989L80.7061 86.3994L80.5244 86.2894L80.6314 86.4748L83.2844 92.3174Z" fill="#D1D1D1"/>
<path d="M87.9561 78.2144L85.0137 80.7517L84.0724 79.6612L91.187 73.5327L92.1283 74.6232L89.1697 77.1698L96.2662 85.4024L95.0527 86.4471L87.9561 78.2144Z" fill="#D1D1D1"/>
<path d="M94.543 71.1332L95.8425 70.2001L102.995 80.2062L101.696 81.1392L94.543 71.1332Z" fill="#D1D1D1"/>
<path d="M99.1528 67.6868L100.628 66.835L109.324 73.7037L108.114 62.7278L109.582 61.8806L111.001 75.1754L109.719 75.9155L99.1528 67.6868Z" fill="#D1D1D1"/>
<path d="M113.279 60.1654L120.828 57.0429L121.393 58.3938L115.317 60.9023L116.805 64.5041L122.084 62.3271L122.61 63.5926L117.323 65.7743L118.899 69.5836L125.053 67.0412L125.605 68.3886L117.974 71.5369L113.279 60.1654Z" fill="#D1D1D1"/>
<path d="M131.134 53.9845L132.688 53.6035L135.607 65.5487L134.054 65.9297L131.134 53.9845Z" fill="#D1D1D1"/>
<path d="M138.172 52.2862L139.547 52.1161L144.929 57.7155L148.809 50.9929L150.205 50.8215L151.684 63.0283L150.098 63.2236L148.927 53.5801L145.392 59.7273L144.928 59.7802L140.053 54.6507L141.266 64.2918L139.68 64.487L138.172 52.2862Z" fill="#D1D1D1"/>
<path d="M164.445 63.2716L163.367 60.4542L157.179 60.2L155.912 62.9412L154.197 62.8564L159.818 50.7323L161.356 50.7902L166.146 63.257L164.445 63.2716ZM157.772 58.9006L162.85 59.0755L160.564 53.0858L160.53 52.8793L160.476 53.0827L157.772 58.9006Z" fill="#D1D1D1"/>
<path d="M170.477 63.3687C169.615 62.6551 168.958 61.724 168.576 60.6717C168.178 59.6141 168.077 58.4675 168.285 57.3567C168.472 56.2331 168.961 55.1814 169.7 54.3147C170.433 53.4541 171.38 52.8022 172.446 52.4248C173.512 52.0474 174.658 51.9579 175.769 52.1653C176.628 52.3201 177.45 52.6374 178.19 53.1002C178.923 53.5576 179.547 54.1691 180.02 54.8922C180.496 55.6019 180.772 56.4268 180.818 57.2801L179.217 57.0008C179.038 56.1408 178.587 55.3608 177.932 54.7757C177.238 54.1635 176.383 53.7619 175.468 53.6181C174.63 53.4593 173.764 53.5285 172.961 53.8186C172.166 54.1027 171.464 54.5976 170.928 55.2503C170.367 55.9363 169.996 56.7585 169.854 57.6338C169.701 58.5159 169.79 59.4228 170.111 60.2584C170.386 61.0494 170.873 61.7501 171.517 62.2845C172.175 62.829 172.965 63.1889 173.807 63.3273C174.578 63.4703 175.372 63.4383 176.129 63.2339C176.806 63.0533 177.424 62.6968 177.919 62.2005C178.405 61.6958 178.77 61.0879 178.988 60.4221L174.376 59.602L174.628 58.1771L180.88 59.2867C180.695 60.4617 180.233 61.5759 179.532 62.5374C178.89 63.4344 178.004 64.1288 176.979 64.5384C175.873 64.9613 174.669 65.0596 173.509 64.8217C172.386 64.6186 171.339 64.1167 170.477 63.3687Z" fill="#D1D1D1"/>
<path d="M186.288 54.8745L187.829 55.3284L184.358 67.1357L182.825 66.6772L186.288 54.8745Z" fill="#D1D1D1"/>
<path d="M201.358 60.3845L202.797 61.0155L198.056 72.3527L196.806 71.8271L193.509 60.0464L189.817 68.9184L188.337 68.3106L193.079 56.9734L194.323 57.4909L197.618 69.3051L201.358 60.3845Z" fill="#D1D1D1"/>
<path d="M209.203 78.7201L209.628 75.7332L204.302 72.5411L201.869 74.3221L200.407 73.4464L211.203 65.5579L212.518 66.3465L210.651 79.5716L209.203 78.7201ZM205.492 71.6605L209.849 74.2727L210.757 67.9328L210.825 67.7327L210.675 67.8835L205.492 71.6605Z" fill="#D1D1D1"/>
<path d="M220.25 73.3519L217.164 70.9846L218.042 69.8433L225.501 75.5767L224.631 76.7133L221.536 74.3507L214.926 82.9724L213.654 81.9977L220.25 73.3519Z" fill="#D1D1D1"/>
<path d="M228.542 78.3467L229.717 79.4315L221.384 88.4777L220.209 87.3928L228.542 78.3467Z" fill="#D1D1D1"/>
<path d="M226.443 92.6625C226.222 91.5462 226.296 90.3914 226.659 89.3129C227.007 88.2357 227.649 87.2771 228.512 86.5449C229.367 85.7929 230.414 85.2926 231.536 85.0996C232.65 84.898 233.798 84.9961 234.861 85.3838C235.949 85.7758 236.916 86.4436 237.667 87.3216C238.42 88.1826 238.936 89.2237 239.166 90.3436C239.396 91.4635 239.333 92.6238 238.981 93.7117C238.624 94.7889 237.983 95.7495 237.124 96.4913C236.265 97.2331 235.222 97.7285 234.104 97.925C232.985 98.1216 231.835 98.0224 230.767 97.6373C229.675 97.2412 228.703 96.571 227.945 95.6912C227.186 94.8113 226.667 93.7513 226.436 92.6129L226.443 92.6625ZM231.195 96.2186C231.81 96.4343 232.462 96.5262 233.113 96.4892C233.764 96.4522 234.402 96.2869 234.989 96.0029C235.576 95.7189 236.101 95.3217 236.535 94.8341C236.968 94.3465 237.3 93.7782 237.513 93.1617C237.79 92.3451 237.849 91.4701 237.682 90.624C237.508 89.7624 237.112 88.9611 236.533 88.299C235.968 87.6319 235.235 87.1274 234.41 86.8373C233.602 86.5481 232.731 86.4794 231.887 86.6384C231.027 86.7898 230.223 87.1672 229.556 87.7321C228.89 88.297 228.386 89.029 228.096 89.8529C227.805 90.6769 227.74 91.5632 227.905 92.4209C228.07 93.2787 228.461 94.077 229.037 94.734C229.619 95.4106 230.373 95.9185 231.219 96.2047L231.195 96.2186Z" fill="#D1D1D1"/>
<path d="M249.39 104.236L250.226 105.591L239.775 112.066L239.055 110.912L243.245 99.4201L235.061 104.478L234.22 103.115L244.684 96.6436L245.359 97.8126L241.149 109.326L249.39 104.236Z" fill="#D1D1D1"/>
<path d="M254.997 119.476L253.623 115.83L254.965 115.324L258.298 124.15L256.951 124.648L255.577 121.001L245.405 124.832L244.844 123.339L254.997 119.476Z" fill="#D1D1D1"/>
<path d="M248.555 132.559C248.871 131.474 249.468 130.491 250.286 129.711C251.096 128.918 252.112 128.369 253.218 128.125C254.326 127.856 255.487 127.901 256.571 128.253C257.658 128.603 258.634 129.232 259.402 130.077C260.169 130.923 260.701 131.955 260.944 133.071C261.214 134.183 261.189 135.346 260.872 136.446C260.554 137.545 259.956 138.543 259.134 139.34C258.318 140.135 257.297 140.687 256.185 140.935C255.089 141.195 253.941 141.143 252.873 140.783C251.796 140.435 250.829 139.811 250.066 138.975C249.284 138.124 248.738 137.082 248.483 135.954C248.207 134.836 248.231 133.665 248.555 132.559ZM251.104 137.924C251.68 138.559 252.415 139.029 253.233 139.285C254.07 139.558 254.967 139.588 255.82 139.372C256.67 139.183 257.453 138.77 258.09 138.176C258.726 137.581 259.191 136.828 259.438 135.993C259.685 135.152 259.711 134.262 259.513 133.408C259.316 132.554 258.902 131.766 258.311 131.118C257.722 130.479 256.973 130.006 256.141 129.75C255.309 129.494 254.425 129.462 253.577 129.659C252.729 129.855 251.949 130.273 251.315 130.87C250.681 131.466 250.217 132.22 249.969 133.054C249.731 133.895 249.71 134.784 249.908 135.636C250.107 136.487 250.518 137.275 251.104 137.924Z" fill="#D1D1D1"/>
<path d="M263.267 150.67L263.313 152.277L252.451 152.604L252.667 158.564L251.218 158.605L250.993 151.027L263.267 150.67Z" fill="#D1D1D1"/>
<path d="M263.275 162.265L263.187 163.863L250.904 163.161L250.999 161.558L263.275 162.265Z" fill="#D1D1D1"/>
<path d="M262.759 169.227L261.555 177.307L260.122 177.06L261.095 170.553L256.815 169.917L255.975 175.574L254.619 175.367L255.465 169.719L250.368 168.953L250.607 167.375L262.759 169.227Z" fill="#D1D1D1"/>
<path d="M260.568 181.704L258.405 189.596L256.997 189.205L258.701 182.847L254.934 181.796L253.466 187.353L252.194 187.012L253.707 181.495L249.733 180.403L247.957 186.803L246.561 186.416L248.736 178.452L260.568 181.704Z" fill="#D1D1D1"/>
<path d="M245.468 189.401C245.584 189.344 245.709 189.312 245.837 189.307C245.966 189.301 246.094 189.322 246.213 189.368C246.332 189.413 246.44 189.481 246.531 189.569C246.623 189.657 246.695 189.762 246.744 189.879C246.799 190.003 246.829 190.136 246.831 190.271C246.833 190.407 246.809 190.541 246.758 190.667C246.67 190.924 246.483 191.136 246.239 191.257C246.124 191.313 245.998 191.345 245.87 191.351C245.742 191.356 245.614 191.335 245.494 191.289C245.373 191.246 245.262 191.177 245.168 191.089C245.075 191.001 245 190.894 244.95 190.775C244.893 190.652 244.863 190.519 244.863 190.383C244.863 190.248 244.892 190.114 244.949 189.991C244.987 189.861 245.054 189.74 245.143 189.638C245.233 189.536 245.344 189.455 245.468 189.401Z" fill="#D1D1D1"/>
<path d="M214.593 256.686C194.895 268.058 172.268 273.334 149.572 271.847C126.875 270.359 105.13 262.175 87.0854 248.329C69.0407 234.482 55.5071 215.596 48.196 194.058C40.8849 172.521 40.1247 149.299 46.0115 127.329C51.8983 105.359 64.1677 85.6281 81.2682 70.6314C98.3687 55.6347 119.532 46.0456 142.082 43.0768C164.633 40.108 187.557 43.8928 207.956 53.9526C228.355 64.0124 245.313 79.8953 256.686 99.593C271.898 126.015 276.01 157.392 268.119 186.842C260.228 216.292 240.978 241.41 214.593 256.686ZM100.524 59.1125C81.1452 70.3008 65.5194 86.9843 55.6225 107.053C45.7256 127.122 42.0021 149.675 44.9228 171.86C47.8435 194.046 57.2773 214.866 72.0312 231.69C86.7852 248.514 106.197 260.584 127.811 266.376C149.425 272.167 172.271 271.42 193.46 264.227C214.649 257.034 233.229 243.72 246.851 225.967C260.473 208.214 268.525 186.821 269.989 164.493C271.452 142.164 266.262 119.903 255.073 100.524C240.046 74.5643 215.335 55.6254 186.361 47.862C157.388 40.0986 126.518 44.1446 100.524 59.1125Z" fill="#D1D1D1"/>
<path d="M110.038 106.572L111.225 107.027C111.955 107.304 112.689 107.569 113.427 107.842C113.819 107.981 114.037 107.93 114.226 107.681C114.297 107.607 114.347 107.517 114.373 107.419C114.398 107.32 114.398 107.217 114.373 107.119C114.347 107.02 114.297 106.93 114.227 106.857C114.156 106.783 114.069 106.729 113.971 106.699C113.513 106.501 113.04 106.334 112.583 106.157C112.126 105.98 111.472 105.723 110.935 105.592C110.397 105.462 109.901 105.684 110.038 106.572Z" fill="#D1D1D1"/>
<path d="M108.825 113.464C108.729 113.663 108.65 113.87 108.591 114.083C108.58 114.193 108.612 114.303 108.68 114.389C108.748 114.476 108.847 114.533 108.957 114.549C109.179 114.612 109.408 114.646 109.638 114.65L112.429 114.662C112.529 114.676 112.63 114.667 112.725 114.635C112.82 114.604 112.907 114.55 112.978 114.479C113.048 114.408 113.101 114.321 113.133 114.226C113.164 114.13 113.172 114.029 113.157 113.93C113.165 113.803 113.123 113.679 113.041 113.582C112.959 113.485 112.843 113.423 112.717 113.41C112.572 113.388 112.424 113.375 112.277 113.374C111.442 113.361 110.612 113.357 109.778 113.365C109.459 113.381 109.141 113.414 108.825 113.464Z" fill="#D1D1D1"/>
<path d="M154.444 121.579C154.323 121.476 154.192 121.386 154.052 121.31C153.011 120.922 151.966 120.526 150.918 120.164C150.82 120.121 150.713 120.105 150.608 120.117C150.502 120.129 150.401 120.169 150.316 120.233C150.23 120.296 150.163 120.381 150.121 120.479C150.079 120.577 150.063 120.684 150.076 120.79C150.064 120.9 150.087 121.01 150.142 121.106C150.198 121.202 150.282 121.277 150.383 121.322C151.457 121.712 152.528 122.115 153.618 122.475C153.713 122.523 153.82 122.544 153.927 122.535C154.033 122.527 154.136 122.489 154.222 122.427C154.309 122.365 154.377 122.28 154.42 122.182C154.462 122.083 154.476 121.975 154.461 121.869C154.465 121.772 154.459 121.675 154.444 121.579Z" fill="#D1D1D1"/>
<path d="M151.636 114.611C151.811 114.617 151.996 114.639 152.18 114.641C153.176 114.635 154.178 114.638 155.177 114.619C155.64 114.621 155.83 114.447 155.862 114.074C155.878 113.981 155.871 113.887 155.844 113.798C155.816 113.709 155.768 113.627 155.703 113.56C155.638 113.493 155.558 113.442 155.47 113.411C155.382 113.381 155.288 113.371 155.195 113.384C154.1 113.349 153.019 113.339 151.934 113.321C151.799 113.323 151.668 113.368 151.56 113.449C151.453 113.531 151.374 113.644 151.335 113.774C151.201 114.174 151.351 114.378 151.636 114.611Z" fill="#D1D1D1"/>
<path d="M128.537 137.31C128.651 137.135 128.744 136.947 128.816 136.751C128.931 136.298 129.012 135.843 129.101 135.383C129.19 134.923 129.353 134.162 129.439 133.511C129.478 133.424 129.496 133.329 129.493 133.234C129.49 133.139 129.466 133.046 129.422 132.961C129.378 132.877 129.316 132.803 129.239 132.746C129.163 132.69 129.075 132.65 128.982 132.632C128.888 132.614 128.792 132.617 128.7 132.641C128.608 132.666 128.522 132.71 128.45 132.772C128.378 132.834 128.32 132.911 128.282 132.998C128.243 133.085 128.225 133.18 128.228 133.275C128.036 134.321 127.849 135.375 127.678 136.419C127.601 136.937 127.786 137.239 128.186 137.298C128.302 137.315 128.42 137.319 128.537 137.31Z" fill="#D1D1D1"/>
<path d="M135.964 95.2478C136.082 95.0918 136.178 94.9204 136.25 94.7384C136.465 93.6578 136.654 92.5704 136.835 91.4876C136.857 91.4016 136.86 91.3117 136.844 91.2243C136.828 91.1369 136.794 91.054 136.742 90.9814C136.691 90.9087 136.625 90.848 136.548 90.8035C136.471 90.7589 136.386 90.7316 136.297 90.7233C136.221 90.6999 136.14 90.694 136.061 90.7061C135.982 90.7182 135.907 90.748 135.841 90.7933C135.775 90.8385 135.72 90.8981 135.681 90.9675C135.641 91.0369 135.618 91.1143 135.612 91.194C135.395 92.3081 135.204 93.429 135.008 94.5419C134.974 94.6569 134.982 94.7801 135.03 94.89C135.078 95 135.162 95.0896 135.27 95.1435C135.494 95.2132 135.729 95.2483 135.964 95.2478Z" fill="#D1D1D1"/>
<path d="M141.407 96.9317C141.498 97.3309 141.661 97.5588 142.014 97.5918C142.164 97.5972 142.313 97.5549 142.438 97.471C142.563 97.3871 142.659 97.2659 142.711 97.1245L144.078 94.7444C144.125 94.6771 144.167 94.6062 144.203 94.5325C144.32 94.2502 144.419 93.9565 144.194 93.6781C143.968 93.3996 143.689 93.4747 143.346 93.5871C142.633 94.6622 141.986 95.7791 141.407 96.9317Z" fill="#D1D1D1"/>
<path d="M121.971 130.576C121.899 130.641 121.838 130.716 121.789 130.8L120.185 133.607C120.135 133.694 120.102 133.789 120.089 133.888C120.064 134.012 120.08 134.141 120.135 134.255C120.189 134.368 120.278 134.462 120.39 134.521C120.489 134.586 120.608 134.615 120.727 134.604C120.845 134.592 120.956 134.54 121.041 134.457C121.14 134.368 121.226 134.265 121.293 134.15L122.855 131.474C122.947 131.353 122.995 131.204 122.992 131.052C122.988 130.9 122.932 130.754 122.834 130.637C122.712 130.543 122.566 130.487 122.412 130.477C122.259 130.466 122.105 130.501 121.971 130.576Z" fill="#D1D1D1"/>
<path d="M114.11 99.5876C114.194 99.6819 114.284 99.7699 114.381 99.8509C115.075 100.439 115.769 101.027 116.472 101.611C116.603 101.715 116.741 101.811 116.885 101.899C116.984 101.978 117.109 102.016 117.235 102.007C117.362 101.998 117.48 101.942 117.566 101.849C117.666 101.749 117.731 101.619 117.753 101.479C117.774 101.34 117.751 101.196 117.686 101.071C117.602 100.946 117.498 100.835 117.379 100.743C116.631 100.099 115.911 99.5046 115.17 98.8901C115.058 98.7925 114.933 98.7128 114.797 98.6539C114.687 98.5916 114.558 98.5699 114.434 98.5926C114.31 98.6153 114.197 98.681 114.116 98.7782C114.027 98.894 113.978 99.0358 113.977 99.1819C113.976 99.3281 114.023 99.4706 114.11 99.5876Z" fill="#D1D1D1"/>
<path d="M128.795 91.0987C128.723 90.9523 128.599 90.8371 128.449 90.7741C128.298 90.7112 128.129 90.7047 127.974 90.7559C127.841 90.8134 127.732 90.9161 127.667 91.046C127.603 91.1758 127.586 91.3244 127.62 91.4653C127.679 91.8831 127.775 92.3111 127.851 92.7403L128.189 94.5551C128.214 94.7156 128.27 94.8696 128.354 95.0082C128.428 95.1112 128.532 95.1885 128.652 95.2291C128.772 95.2698 128.902 95.2719 129.023 95.235C129.138 95.2059 129.239 95.1378 129.309 95.0423C129.38 94.9468 129.415 94.8298 129.408 94.7114C129.414 94.5307 129.403 94.3498 129.376 94.1711C129.217 93.2631 129.055 92.3677 128.888 91.4643C128.851 91.3248 128.833 91.1632 128.795 91.0987Z" fill="#D1D1D1"/>
<path d="M154.114 106.763C154.252 106.593 154.369 106.407 154.46 106.208C154.485 106.14 154.493 106.067 154.484 105.995C154.475 105.923 154.45 105.854 154.41 105.794C154.37 105.733 154.316 105.683 154.253 105.647C154.19 105.611 154.12 105.59 154.048 105.586C153.835 105.547 153.616 105.556 153.407 105.612C152.512 105.925 151.632 106.261 150.751 106.598C150.613 106.656 150.483 106.731 150.364 106.821C150.251 106.908 150.17 107.03 150.133 107.168C150.096 107.306 150.105 107.452 150.159 107.584C150.222 107.704 150.322 107.801 150.444 107.858C150.567 107.916 150.705 107.931 150.837 107.902C150.982 107.866 151.124 107.819 151.263 107.764L153.758 106.872L154.056 106.699L154.114 106.763Z" fill="#D1D1D1"/>
<path d="M117.751 126.897C117.772 126.73 117.738 126.561 117.654 126.416C117.57 126.27 117.441 126.156 117.286 126.091C116.961 126.095 116.651 126.227 116.424 126.459C115.732 127.03 115.05 127.618 114.376 128.2L114.199 128.378C113.897 128.692 113.857 128.995 114.077 129.265C114.298 129.536 114.613 129.579 115.001 129.302L115.662 128.77L117.531 127.185C117.612 127.095 117.686 126.999 117.751 126.897Z" fill="#D1D1D1"/>
<path d="M149.468 98.7165L149.355 98.7817L146.941 100.874C146.889 100.914 146.844 100.962 146.808 101.016C146.755 101.064 146.712 101.123 146.682 101.187C146.652 101.252 146.635 101.323 146.632 101.394C146.629 101.466 146.641 101.537 146.666 101.604C146.691 101.672 146.73 101.733 146.779 101.785C146.882 101.909 147.03 101.988 147.19 102.006C147.351 102.023 147.512 101.978 147.639 101.879C147.841 101.763 147.979 101.555 148.153 101.411L149.965 99.9129C150.058 99.8409 150.146 99.7617 150.227 99.6762C150.339 99.5762 150.414 99.44 150.438 99.2911C150.462 99.1421 150.433 98.9894 150.357 98.8592C150.244 98.7431 150.096 98.6665 149.936 98.6408C149.776 98.6151 149.612 98.6416 149.468 98.7165Z" fill="#D1D1D1"/>
<path d="M114.313 121.11C114.369 120.923 114.359 120.723 114.285 120.542C114.21 120.362 114.075 120.213 113.904 120.121C113.765 120.143 113.628 120.172 113.492 120.208C112.503 120.543 111.505 120.882 110.517 121.237C110.337 121.319 110.181 121.446 110.064 121.607C109.993 121.701 109.954 121.816 109.954 121.934C109.955 122.053 109.994 122.168 110.066 122.261C110.124 122.365 110.218 122.444 110.33 122.484C110.442 122.524 110.564 122.522 110.675 122.479C111.13 122.335 111.575 122.175 112.04 122.014L113.494 121.497C113.783 121.383 114.058 121.225 114.313 121.11Z" fill="#D1D1D1"/>
<path d="M122.062 97.5339C122.845 97.662 123.145 97.3062 122.88 96.6423C122.782 96.473 122.68 96.2956 122.577 96.1182C122.223 95.5055 121.865 94.8847 121.507 94.2639C121.398 94.0563 121.264 93.8627 121.109 93.6871C120.855 93.4146 120.578 93.3812 120.355 93.5531C120.223 93.6453 120.133 93.7852 120.104 93.9428C120.074 94.1004 120.108 94.2633 120.197 94.3967C120.439 94.816 120.662 95.203 120.918 95.6464C121.303 96.2948 121.692 96.9304 122.062 97.5339Z" fill="#D1D1D1"/>
<path d="M208.742 206.594C208.661 207.189 208.414 207.749 208.03 208.21C206.961 209.575 205.74 210.814 204.389 211.902C203.39 212.759 202.337 213.56 201.282 214.341C197.774 216.868 194.1 219.158 190.287 221.195C187.827 222.546 185.282 223.735 182.668 224.755C181.534 225.194 180.407 225.662 179.248 226.02C178.309 226.288 177.356 226.501 176.392 226.658C175.948 226.726 175.5 226.759 175.051 226.756C174.682 226.758 174.325 226.629 174.045 226.391C173.673 226.1 173.393 226.1 173.159 226.364C173.039 226.496 172.974 226.668 172.979 226.846C172.983 227.024 173.056 227.193 173.183 227.318C173.509 227.661 173.943 227.881 174.413 227.941C175.375 228.068 176.352 228.011 177.293 227.772C178.549 227.518 179.783 227.165 180.983 226.716C182.176 226.232 183.395 225.829 184.579 225.329C185.608 224.896 186.585 224.353 187.613 223.899C190.838 222.404 193.956 220.687 196.943 218.76C198.29 217.928 199.541 216.948 200.879 216.1C202.217 215.253 203.309 214.332 204.506 213.426C205.215 212.874 205.893 212.282 206.535 211.653C207.072 211.149 207.574 210.623 208.084 210.092C208.724 209.456 209.258 208.722 209.668 207.919C209.794 207.649 209.886 207.365 209.943 207.073C210 206.874 210.017 206.666 209.992 206.46C209.967 206.255 209.901 206.057 209.798 205.878C209.694 205.698 209.556 205.542 209.39 205.418C209.225 205.293 209.036 205.204 208.835 205.154C208.351 205.003 207.845 204.932 207.337 204.944C205.887 205.041 204.458 205.342 203.091 205.837C201.936 206.256 200.748 206.62 199.608 207.084C198.285 207.623 196.974 208.218 195.689 208.842C194.242 209.538 192.832 210.298 191.412 211.042C191.129 211.17 190.859 211.326 190.606 211.508C190.486 211.586 190.4 211.707 190.366 211.846C190.333 211.986 190.354 212.133 190.426 212.257C190.57 212.507 190.818 212.6 191.171 212.45C191.525 212.299 191.978 211.984 192.449 211.777L195.646 210.221C196.308 209.839 197.019 209.525 197.717 209.208C199.592 208.338 201.519 207.585 203.487 206.952C204.498 206.61 205.54 206.369 206.597 206.231C207.046 206.176 207.498 206.156 207.949 206.171C208.106 206.169 208.261 206.206 208.4 206.281C208.539 206.355 208.656 206.463 208.742 206.594Z" fill="#D1D1D1"/>
<path d="M183.952 215.511C183.589 215.72 183.226 215.93 182.909 216.199C182.591 216.469 182.507 216.732 182.718 217.062C182.754 217.139 182.807 217.206 182.873 217.259C182.94 217.312 183.018 217.348 183.101 217.365C183.184 217.382 183.27 217.379 183.352 217.357C183.433 217.334 183.509 217.293 183.572 217.236C184.249 216.845 184.88 216.373 185.52 215.917C185.642 215.813 185.718 215.666 185.734 215.507C185.75 215.347 185.705 215.188 185.606 215.061C185.453 214.795 185.189 214.786 184.859 214.977L183.947 215.503L183.952 215.511Z" fill="#D1D1D1"/>
<path d="M177.075 222.33C177.327 222.077 177.672 221.781 177.953 221.447C178.002 221.395 178.041 221.334 178.066 221.267C178.092 221.2 178.104 221.129 178.102 221.057C178.099 220.985 178.083 220.915 178.053 220.849C178.023 220.784 177.98 220.726 177.927 220.677C177.824 220.565 177.681 220.496 177.529 220.484C177.377 220.472 177.226 220.519 177.106 220.614C176.783 220.872 176.477 221.153 176.193 221.453C176.078 221.553 176.008 221.694 175.997 221.845C175.985 221.996 176.034 222.146 176.133 222.262C176.256 222.384 176.418 222.458 176.591 222.47C176.764 222.483 176.936 222.433 177.075 222.33Z" fill="#D1D1D1"/>
<path d="M211.518 126.648L209.616 128.531C209.006 129.131 208.408 129.734 207.788 130.317C207.168 130.901 206.482 131.555 205.817 132.154C204.598 133.245 203.396 134.347 202.123 135.362C200.351 136.836 198.678 138.426 196.77 139.721C195.83 140.382 194.971 141.147 194.049 141.84C193.446 142.285 192.797 142.67 192.194 143.115C190.177 144.624 188.05 145.981 185.831 147.176C185.61 147.331 185.337 147.392 185.07 147.346C184.975 147.333 184.885 147.294 184.81 147.234C184.735 147.174 184.678 147.095 184.643 147.005C184.609 146.915 184.599 146.818 184.615 146.723C184.631 146.628 184.672 146.539 184.734 146.466C184.803 146.374 184.891 146.298 184.991 146.242C186.7 145.105 188.435 143.995 190.122 142.839C191.604 141.819 193.07 140.771 194.521 139.697C195.443 139.004 196.324 138.258 197.192 137.51C198.505 136.376 199.827 135.258 201.076 134.053C202.2 132.963 203.265 131.811 204.278 130.624C205.237 129.513 206.133 128.349 206.964 127.139C208.467 125.004 209.497 122.573 209.985 120.009C210.241 118.693 210.245 117.341 209.996 116.025C209.775 114.686 209.233 113.42 208.415 112.337C208.309 112.18 208.214 112.015 208.131 111.845C208.072 111.827 208.009 111.822 207.948 111.83C207.887 111.837 207.827 111.857 207.774 111.887C207.72 111.918 207.674 111.96 207.637 112.009C207.6 112.059 207.573 112.115 207.559 112.175C206.094 115.467 204.419 118.66 202.543 121.736C201.85 122.899 201.177 124.062 200.445 125.194C199.43 126.769 198.405 128.328 197.329 129.852C196.253 131.377 195.058 132.937 193.881 134.455C192.913 135.702 191.942 136.962 190.895 138.146C189.513 139.718 188.061 141.244 186.618 142.766C185.951 143.473 185.192 144.169 184.475 144.863C184.381 144.971 184.258 145.05 184.12 145.089C183.983 145.129 183.837 145.127 183.7 145.085C183.633 145.072 183.57 145.045 183.515 145.005C183.459 144.966 183.413 144.915 183.379 144.856C183.345 144.797 183.324 144.732 183.318 144.664C183.311 144.596 183.319 144.528 183.341 144.464C183.38 144.267 183.471 144.084 183.606 143.935C185.146 142.415 186.605 140.816 187.977 139.143C189.292 137.567 190.634 136.018 191.91 134.411C193.452 132.446 194.973 130.407 196.304 128.337C197.522 126.462 198.658 124.538 199.694 122.553C201.455 119.287 202.71 115.772 203.414 112.128C203.731 110.369 203.781 108.571 203.561 106.797C203.434 105.707 203.176 104.636 202.794 103.607C202.239 102.099 201.398 100.712 200.318 99.522C199.369 98.5226 198.299 97.6453 197.133 96.9104C197.068 96.9476 197 96.9225 196.968 96.9411C196.887 96.9809 196.809 97.026 196.734 97.0761L196.7 97.2033C196.629 98.3837 196.604 99.5697 196.474 100.741C196.279 102.563 196.055 104.391 195.755 106.198C195.396 108.351 195.007 110.489 194.54 112.64C193.95 115.453 193.19 118.214 192.324 120.96C191.525 123.486 190.637 125.987 189.645 128.441C188.654 130.894 187.488 133.438 186.236 135.848C185.269 137.729 184.186 139.558 183.08 141.368C182.322 142.623 181.454 143.801 180.63 145.019C180.473 145.249 180.286 145.465 180.065 145.753C180.158 145.95 180.267 146.139 180.391 146.318C181.307 147.316 181.946 148.538 182.243 149.86C182.593 151.33 182.464 152.874 181.874 154.266C181.535 155.084 181.05 155.834 180.442 156.479C179.746 157.245 178.917 157.877 177.993 158.344C177.896 158.411 177.794 158.471 177.687 158.521C177.319 158.647 177.025 158.548 176.913 158.28C176.853 158.125 176.85 157.953 176.906 157.797C176.961 157.64 177.072 157.509 177.217 157.427L178.555 156.655C179.577 155.97 180.348 154.971 180.749 153.808C181.162 152.898 181.332 151.896 181.241 150.9C181.151 149.905 180.803 148.95 180.233 148.129C179.98 147.721 179.703 147.328 179.403 146.953C179.162 146.705 178.898 146.479 178.616 146.278C178.477 145.907 178.679 145.661 178.872 145.399C179.799 144.101 180.774 142.829 181.645 141.488C183.003 139.413 184.241 137.262 185.354 135.046C186.114 133.533 186.841 132.037 187.506 130.471C188.325 128.537 189.075 126.577 189.833 124.613C190.806 122.073 191.562 119.454 192.277 116.838C193.074 113.948 193.725 111.036 194.23 108.1C194.828 104.648 195.282 101.171 195.539 97.6692C195.576 97.0998 195.606 96.5558 195.643 95.9863C195.679 95.4169 196.021 95.0586 196.658 95.3998C197.556 95.8416 198.413 96.3609 199.221 96.9519C200.779 98.1099 202.07 99.5901 203.006 101.292C203.651 102.462 204.141 103.711 204.463 105.008C205.068 107.581 205.112 110.254 204.592 112.846C204.348 114.062 203.942 115.295 203.602 116.513C203.528 116.813 203.37 117.098 203.437 117.436C203.751 117.459 203.815 117.217 203.927 117.056C204.124 116.653 204.29 116.234 204.495 115.825L206.948 110.765C207.072 110.532 207.23 110.322 207.34 110.141C207.492 110.079 207.658 110.064 207.818 110.098C207.978 110.132 208.124 110.214 208.236 110.333C209.202 111.262 209.974 112.372 210.509 113.6C211.097 114.967 211.412 116.436 211.436 117.924C211.409 120.317 210.845 122.674 209.786 124.821C209.324 125.842 208.75 126.809 208.073 127.702C207.913 127.943 207.772 128.197 207.652 128.461L207.717 128.574C207.832 128.57 207.945 128.545 208.05 128.5C208.254 128.355 208.444 128.192 208.617 128.011L210.738 125.894C210.947 125.677 211.128 125.433 211.341 125.224C211.735 124.846 212.05 124.814 212.372 125.317C213.121 126.41 213.581 127.675 213.711 128.994C213.864 131.417 213.137 133.815 211.663 135.744C210.421 137.444 208.929 138.946 207.239 140.202C205.897 141.25 204.463 142.175 202.954 142.965C202.822 143.006 202.705 143.086 202.618 143.193C202.531 143.301 202.478 143.432 202.465 143.57C202.657 143.56 202.847 143.526 203.031 143.47L205.806 142.319L210.751 140.27C211.081 140.079 211.412 139.889 211.784 139.77C211.867 139.719 211.96 139.688 212.057 139.681C212.154 139.673 212.251 139.689 212.341 139.727C212.43 139.765 212.509 139.824 212.571 139.899C212.633 139.974 212.675 140.063 212.696 140.158C212.763 140.363 212.799 140.577 212.805 140.793C212.842 142.377 212.336 143.925 211.371 145.18C210.157 146.74 208.604 148.005 206.829 148.876C206.305 149.179 205.761 149.429 205.213 149.67C204.797 149.84 204.373 149.988 203.942 150.113C203.53 150.255 203.106 150.36 202.693 150.501C202.542 150.573 202.396 150.657 202.258 150.753C202.5 151.022 202.742 150.957 202.961 150.927C203.958 150.792 204.881 150.678 205.837 150.546L207.917 150.259C208.048 150.234 208.18 150.226 208.312 150.235C208.407 150.225 208.503 150.242 208.59 150.283C208.676 150.324 208.75 150.387 208.804 150.466C208.857 150.545 208.888 150.638 208.894 150.733C208.899 150.829 208.878 150.924 208.834 151.008C208.715 151.392 208.548 151.76 208.337 152.102C207.707 153.144 206.905 154.072 205.966 154.847C205.323 155.429 204.625 155.948 203.881 156.394C202.566 157.088 201.158 157.59 199.7 157.884C198.925 157.993 198.145 158.052 197.362 158.062C197.155 158.074 196.935 158.029 196.773 158.251C196.936 158.534 197.249 158.536 197.494 158.588C198.638 158.819 199.789 159.025 200.937 159.244L201.085 159.277C201.741 159.446 201.92 159.924 201.441 160.415C201.056 160.805 200.626 161.148 200.159 161.435C199.053 162.191 197.798 162.703 196.479 162.936C195.791 163.041 195.096 163.083 194.401 163.061C192.158 162.938 189.987 162.231 188.101 161.012C186.584 160.038 185.177 158.905 183.902 157.631C183.597 157.345 183.32 157.032 183.031 156.736C182.962 156.681 182.905 156.611 182.865 156.532C182.824 156.453 182.8 156.367 182.794 156.278C182.788 156.19 182.801 156.101 182.831 156.017C182.862 155.934 182.909 155.857 182.97 155.793C183.211 155.558 183.521 155.593 183.852 155.886C184.998 156.923 186.091 158.033 187.316 158.982C189.212 160.54 191.521 161.511 193.961 161.778C195.41 161.973 196.883 161.732 198.195 161.086C198.468 160.962 198.75 160.86 199.04 160.78C199.098 160.768 199.154 160.744 199.203 160.71C199.252 160.676 199.294 160.633 199.326 160.582C199.358 160.531 199.379 160.475 199.389 160.416C199.399 160.357 199.396 160.297 199.382 160.239C199.202 160.156 199.014 160.092 198.82 160.047C196.244 159.607 193.719 158.904 191.287 157.947C189.805 157.372 188.343 156.776 186.91 156.174C186.087 155.811 185.345 155.325 184.515 154.912C184.379 154.82 184.267 154.697 184.189 154.552C184.126 154.463 184.092 154.355 184.092 154.246C184.092 154.136 184.126 154.029 184.19 153.939C184.261 153.844 184.359 153.773 184.471 153.735C184.584 153.697 184.705 153.694 184.819 153.726C184.982 153.767 185.14 153.823 185.292 153.894C187.948 155.169 190.767 156.074 193.67 156.582C195.622 156.951 197.624 156.971 199.583 156.64C201.016 156.405 202.391 155.896 203.631 155.141C204.632 154.506 205.533 153.726 206.303 152.824L206.812 152.273C206.855 152.233 206.89 152.185 206.913 152.131C206.936 152.078 206.948 152.02 206.948 151.961C206.948 151.903 206.935 151.845 206.911 151.791C206.887 151.738 206.852 151.69 206.808 151.651C206.692 151.647 206.575 151.65 206.458 151.66C205.018 151.846 203.585 152.083 202.142 152.228C200.116 152.441 198.066 152.614 196.063 152.738C193.506 152.931 190.941 152.976 188.38 152.874C187.397 152.829 186.427 152.712 185.442 152.646C185.334 152.633 185.232 152.591 185.146 152.524C185.06 152.457 184.994 152.368 184.956 152.267C184.917 152.165 184.907 152.055 184.926 151.947C184.946 151.84 184.994 151.741 185.066 151.659C185.179 151.524 185.336 151.434 185.51 151.403C187.008 151.355 188.515 151.377 190.011 151.287C191.752 151.175 193.497 150.995 195.233 150.799C196.471 150.654 197.698 150.451 198.941 150.238C200.526 149.959 202.085 149.544 203.6 148.999C205.064 148.535 206.457 147.872 207.74 147.028C209.069 146.181 210.161 145.011 210.914 143.626C211.171 143.066 211.392 142.49 211.574 141.902C211.592 141.817 211.589 141.728 211.565 141.645C211.542 141.561 211.497 141.485 211.437 141.422C211.386 141.333 211.125 141.366 210.987 141.424C209.462 142.079 207.94 142.775 206.401 143.405C204.443 144.203 202.47 144.976 200.501 145.736C198.533 146.497 196.63 147.111 194.678 147.733C192.726 148.355 190.738 148.933 188.73 149.458C187.807 149.722 186.852 149.93 185.901 150.145C185.708 150.194 185.507 150.212 185.308 150.198C185.182 150.185 185.063 150.132 184.971 150.045C184.878 149.959 184.817 149.844 184.795 149.719C184.765 149.604 184.777 149.482 184.831 149.376C184.884 149.269 184.975 149.187 185.086 149.143C185.341 149.021 185.604 148.917 185.872 148.829C187.61 148.245 189.337 147.624 191.091 147.106C192.603 146.652 193.999 145.943 195.485 145.407C196.158 145.159 196.792 144.804 197.456 144.538C199.817 143.526 202.094 142.327 204.264 140.952C205.624 140.1 206.905 139.127 208.089 138.044C208.974 137.286 209.771 136.433 210.468 135.499C211.881 133.774 212.628 131.6 212.574 129.371C212.484 128.61 212.327 127.859 212.105 127.126C212.124 127.049 212.121 126.968 212.096 126.893C212.07 126.818 212.024 126.751 211.963 126.701C211.901 126.651 211.827 126.62 211.748 126.61C211.669 126.601 211.589 126.614 211.518 126.648Z" fill="#D1D1D1"/>
<path d="M209.34 178.751C209.448 178.84 209.516 178.968 209.529 179.107C209.543 179.246 209.502 179.385 209.414 179.493C209.332 179.6 209.217 179.677 209.087 179.711C208.957 179.745 208.819 179.735 208.695 179.682L201.688 177.805C200.277 177.427 198.856 177.032 197.44 176.646C197.329 176.617 197.22 176.579 197.116 176.532C197.01 176.499 196.921 176.428 196.865 176.332C196.81 176.237 196.793 176.124 196.818 176.016C196.835 175.899 196.894 175.792 196.983 175.715C197.073 175.637 197.187 175.595 197.306 175.595C197.472 175.599 197.636 175.627 197.794 175.678L207.21 178.208C207.938 178.389 208.645 178.572 209.34 178.751Z" fill="#D1D1D1"/>
<path d="M192.69 124.275C192.396 124.101 192.457 123.872 192.544 123.65C193.693 120.588 194.638 117.453 195.371 114.267C196.168 110.954 196.741 107.593 197.086 104.204C197.229 102.831 197.3 101.446 197.392 100.06C197.41 99.8675 197.381 99.669 197.382 99.4646C197.382 99.2602 197.398 99.1758 197.724 98.9769C198.016 99.0553 198.026 99.2966 198.035 99.5171C197.929 100.879 197.849 102.248 197.705 103.599C197.541 105.177 197.377 106.755 197.129 108.318C196.881 109.88 196.54 111.636 196.188 113.279C195.836 114.923 195.456 116.368 195.021 117.887C194.587 119.406 194.039 121.045 193.549 122.617C193.425 122.979 193.326 123.348 193.215 123.714C193.103 124.079 193.066 124.219 192.69 124.275Z" fill="#D1D1D1"/>
<path d="M173.564 117.903L174.213 117.947C174.323 118.029 174.399 118.147 174.431 118.28C174.463 118.413 174.447 118.553 174.386 118.675L173.023 123.762L171.699 128.729L171.304 130.13C171.285 130.203 171.251 130.271 171.206 130.331C171.16 130.391 171.103 130.441 171.038 130.479C170.972 130.517 170.9 130.541 170.826 130.551C170.751 130.56 170.675 130.555 170.602 130.535C170.306 130.469 170.193 130.255 170.299 129.86C170.753 128.165 171.208 126.469 171.662 124.774L173.332 118.542C173.38 118.31 173.442 118.156 173.564 117.903Z" fill="#D1D1D1"/>
<path d="M207.645 114.448C208.066 114.581 208.168 114.758 208.003 115.068C207.08 116.859 206.175 118.661 205.209 120.433C204.345 122.007 203.456 123.595 202.514 125.074C201.416 126.783 200.269 128.521 199.101 130.184C198.987 130.277 198.859 130.351 198.722 130.403C198.424 130.091 198.544 129.871 198.701 129.641C199.752 128.109 200.829 126.606 201.82 125.045C202.811 123.484 203.749 121.889 204.645 120.275C205.541 118.661 206.322 117.017 207.187 115.368C207.276 115.187 207.323 114.988 207.412 114.808C207.481 114.682 207.559 114.562 207.645 114.448Z" fill="#D1D1D1"/>
<path d="M211.21 128.685C211.305 128.942 211.166 129.13 210.997 129.303L210.514 129.807L207.924 132.377C207.306 132.982 206.696 133.602 206.051 134.179C205.406 134.756 204.541 135.492 203.787 136.142C203.522 136.37 203.265 136.615 203.012 136.847C202.759 137.079 202.648 137.165 202.395 136.989C202.255 136.747 202.407 136.562 202.569 136.415L203.606 135.548C204.437 134.81 205.272 134.059 206.094 133.305C206.542 132.907 206.972 132.497 207.41 132.083C207.981 131.527 208.57 130.983 209.132 130.411C209.694 129.84 210.061 129.413 210.505 128.898C210.745 128.588 210.831 128.549 211.21 128.685Z" fill="#D1D1D1"/>
<path d="M176.068 111.738C176.098 111.969 176.1 112.203 176.072 112.435C175.735 113.726 175.381 115.023 175.009 116.327C174.996 116.398 174.968 116.465 174.927 116.524C174.886 116.582 174.832 116.632 174.77 116.667C174.708 116.703 174.638 116.725 174.567 116.732C174.495 116.738 174.423 116.729 174.356 116.704C174.281 116.692 174.21 116.663 174.148 116.62C174.086 116.577 174.034 116.521 173.996 116.455C173.958 116.39 173.935 116.316 173.929 116.241C173.923 116.166 173.933 116.09 173.96 116.019L175.025 112.018C175.087 111.789 175.198 111.553 175.472 111.545C175.68 111.579 175.88 111.644 176.068 111.738Z" fill="#D1D1D1"/>
<path d="M215.832 180.593C215.829 180.799 215.8 181.005 215.744 181.203C215.7 181.295 215.624 181.368 215.531 181.408C215.437 181.448 215.332 181.453 215.235 181.421C214.851 181.332 214.458 181.247 214.071 181.137C213.153 180.886 212.24 180.628 211.335 180.363C211.171 180.327 211.018 180.253 210.888 180.147C210.778 180.013 210.722 179.842 210.73 179.669C210.736 179.566 210.783 179.469 210.86 179.401C210.937 179.332 211.039 179.297 211.142 179.302C211.29 179.305 211.438 179.329 211.58 179.372C212.824 179.664 213.995 179.998 215.207 180.33C215.422 180.403 215.63 180.491 215.832 180.593Z" fill="#D1D1D1"/>
<path d="M209.946 143.196C209.863 143.324 209.754 143.435 209.628 143.52C208.657 143.962 207.684 144.417 206.698 144.814C205.123 145.455 203.532 146.051 201.95 146.663C201.526 146.822 201.475 146.808 201.298 146.427C201.346 146.194 201.54 146.158 201.732 146.079L205.268 144.758C206.03 144.458 206.797 144.165 207.545 143.841C208.093 143.6 208.614 143.31 209.161 143.048C209.537 142.841 209.631 142.873 209.946 143.196Z" fill="#D1D1D1"/>
<path d="M204.712 152.711C204.754 153.138 204.678 153.268 204.347 153.309C202.889 153.484 201.44 153.654 199.981 153.808C199.098 153.899 198.222 153.964 197.342 154.042C197.043 154.064 196.738 154.112 196.578 153.742C196.677 153.448 196.92 153.458 197.134 153.42C198.914 153.264 200.69 153.119 202.469 152.942C203.058 152.881 203.646 152.746 204.241 152.66C204.4 152.66 204.557 152.677 204.712 152.711Z" fill="#D1D1D1"/>
<path d="M197.001 160.636C196.863 160.92 196.597 160.869 196.366 160.841C195.544 160.628 194.718 160.427 193.859 160.224C193.363 160.091 192.866 159.937 192.373 159.792C191.881 159.646 191.946 159.554 192.143 159.15C192.268 159.143 192.394 159.154 192.516 159.182C193.848 159.661 195.215 160.036 196.605 160.305C196.857 160.332 196.862 160.34 197.001 160.636Z" fill="#D1D1D1"/>
<path d="M190.564 128.933C190.598 128.731 190.649 128.533 190.716 128.339L191.889 125.511C192.018 125.437 192.199 125.397 192.501 125.696C192.424 125.808 192.356 125.927 192.297 126.05L191.269 128.665C191.114 128.991 191.057 129.024 190.564 128.933Z" fill="#D1D1D1"/>
<path d="M197.664 131.884C197.604 132.077 197.524 132.264 197.426 132.441L196.181 134.009C196.057 134.167 195.963 134.339 195.852 134.5C195.74 134.661 195.564 134.784 195.162 134.608C195.216 134.43 195.289 134.257 195.381 134.095C195.757 133.609 196.162 133.138 196.538 132.653C196.681 132.473 196.798 132.266 196.924 132.075C197.051 131.883 197.174 131.78 197.664 131.884Z" fill="#D1D1D1"/>
<path d="M200.923 138.14C201.036 138.43 200.861 138.574 200.69 138.705L198.655 140.246C198.477 140.348 198.308 140.446 198.099 140.308C197.891 140.17 198.11 139.861 198.325 139.694L200.228 138.24C200.449 138.102 200.658 137.96 200.923 138.14Z" fill="#D1D1D1"/>
<path d="M218.111 181.244C218.227 181.225 218.346 181.218 218.464 181.223C218.822 181.294 219.175 181.384 219.523 181.493C219.588 181.509 219.65 181.538 219.704 181.578C219.757 181.618 219.802 181.669 219.836 181.727C219.87 181.785 219.891 181.849 219.899 181.916C219.907 181.983 219.901 182.05 219.882 182.114C219.87 182.184 219.842 182.251 219.802 182.309C219.761 182.368 219.708 182.416 219.646 182.452C219.585 182.488 219.516 182.509 219.445 182.515C219.374 182.521 219.303 182.512 219.236 182.487C218.913 182.414 218.594 182.321 218.281 182.21C218.177 182.176 218.089 182.104 218.034 182.009C217.979 181.914 217.961 181.802 217.983 181.694C218.012 181.541 218.054 181.39 218.111 181.244Z" fill="#D1D1D1"/>
<path d="M176.492 109.494C175.915 109.333 175.822 109.171 175.994 108.631C176.055 108.402 176.1 108.183 176.174 107.957C176.193 107.885 176.225 107.817 176.27 107.757C176.315 107.698 176.372 107.648 176.436 107.61C176.501 107.573 176.573 107.549 176.647 107.54C176.721 107.531 176.796 107.536 176.868 107.557C176.937 107.572 177.002 107.602 177.059 107.644C177.117 107.686 177.164 107.739 177.2 107.8C177.235 107.862 177.258 107.93 177.265 108C177.273 108.071 177.266 108.142 177.245 108.21C177.191 108.488 177.119 108.756 177.039 109.027C177.018 109.157 176.951 109.275 176.851 109.361C176.751 109.446 176.623 109.493 176.492 109.494Z" fill="#D1D1D1"/>
<path d="M198.111 147.739C198.023 147.382 198.245 147.264 198.47 147.188C198.907 147.032 199.365 146.876 199.8 146.754C200.235 146.631 200.235 146.707 200.382 147.073C200.321 147.302 200.127 147.339 199.93 147.388C199.556 147.486 199.192 147.599 198.827 147.713C198.463 147.827 198.373 147.932 198.111 147.739Z" fill="#D1D1D1"/>
<path d="M196.268 148.029L196.336 148.463C196.035 148.57 195.728 148.661 195.418 148.735C195.313 148.796 195.14 148.627 194.999 148.569C195.184 148.107 195.554 147.947 196.268 148.029Z" fill="#D1D1D1"/>
<path d="M192.953 153.814C193.038 153.72 193.14 153.645 193.255 153.593C193.369 153.541 193.493 153.512 193.619 153.509C193.744 153.505 193.869 153.528 193.986 153.574C194.103 153.62 194.209 153.69 194.299 153.779C194.314 153.827 194.316 153.878 194.306 153.927C194.296 153.976 194.273 154.022 194.24 154.06C194.208 154.098 194.166 154.128 194.119 154.145C194.072 154.163 194.021 154.168 193.971 154.161C193.626 154.178 193.205 154.249 192.953 153.814Z" fill="#D1D1D1"/>
<path d="M192.28 138.218C192.268 137.547 192.548 137.192 193.09 137.126C193.139 137.152 193.18 137.19 193.209 137.237C193.239 137.283 193.256 137.337 193.258 137.392C193.261 137.447 193.249 137.501 193.223 137.55C193.198 137.599 193.161 137.641 193.114 137.671C192.873 137.886 192.807 138.386 192.28 138.218Z" fill="#D1D1D1"/>
<path d="M189.237 131.923C189.291 131.932 189.342 131.955 189.386 131.988C189.429 132.022 189.464 132.065 189.487 132.115C189.511 132.164 189.522 132.219 189.52 132.273C189.518 132.328 189.503 132.382 189.476 132.43C189.413 132.663 189.293 132.877 189.126 133.051C188.956 133.149 188.777 133.081 188.67 132.82C188.801 132.508 188.83 132.093 189.237 131.923Z" fill="#D1D1D1"/>
<path d="M189.214 158.229C189.454 157.919 189.753 158.101 190.017 158.185C190.073 158.198 190.126 158.222 190.172 158.257C190.219 158.291 190.258 158.334 190.286 158.384C190.315 158.434 190.333 158.49 190.34 158.547C190.346 158.604 190.341 158.662 190.324 158.718C190.222 158.776 190.107 158.81 189.989 158.816C189.871 158.822 189.754 158.801 189.646 158.753C189.538 158.706 189.443 158.633 189.368 158.543C189.293 158.452 189.24 158.344 189.214 158.229Z" fill="#D1D1D1"/>
<path d="M194.519 142.729C194.529 142.61 194.566 142.494 194.627 142.391C194.688 142.288 194.773 142.201 194.873 142.135C194.974 142.07 195.088 142.029 195.207 142.015C195.326 142 195.446 142.014 195.559 142.054C195.75 142.384 195.451 142.536 195.223 142.7C194.995 142.863 194.788 143.026 194.519 142.729Z" fill="#D1D1D1"/>
<path d="M92.3446 178.608L92.6611 179.156C93.2907 180.451 94.1859 181.597 95.2885 182.522C96.3911 183.447 97.6762 184.129 99.0601 184.524C101.137 185.176 103.313 185.452 105.486 185.339C106.693 185.288 107.906 185.136 109.115 184.996C111.199 184.733 113.255 184.29 115.263 183.672C117.009 183.159 118.715 182.539 120.435 181.944C121.436 181.592 122.439 181.206 123.419 180.801C124.4 180.396 125.538 179.89 126.576 179.398C128.503 178.479 130.426 177.545 132.343 176.595C132.754 176.358 133.149 176.13 133.62 175.922C133.701 175.864 133.788 175.814 133.878 175.773C134.01 175.717 134.156 175.705 134.294 175.74C134.432 175.774 134.556 175.853 134.645 175.965C134.731 176.093 134.764 176.249 134.737 176.401C134.711 176.552 134.626 176.688 134.502 176.779C134.051 177.114 133.563 177.406 133.076 177.698C131.314 178.721 129.495 179.642 127.628 180.457C126.511 180.962 125.406 181.524 124.276 182.005C122.787 182.628 121.27 183.203 119.757 183.786C118.547 184.259 117.331 184.704 116.111 185.16C115.613 185.34 115.098 185.509 114.59 185.673C112.962 186.204 111.331 186.749 109.697 187.251C107.87 187.811 106.087 188.26 104.318 188.809C104.105 188.867 103.884 188.876 103.676 188.943C103.552 189.02 103.439 189.113 103.342 189.222C103.508 189.416 103.639 189.588 103.774 189.746C104.531 190.608 105.468 191.293 106.518 191.754C107.568 192.216 108.706 192.442 109.853 192.418C112.076 192.398 114.276 191.956 116.335 191.115C118.681 190.196 120.927 189.039 123.039 187.664C124.135 187.031 125.112 186.209 126.135 185.468C126.751 185.026 127.368 184.606 127.962 184.145C129.345 183.077 130.746 182.021 132.034 180.826C133.322 179.631 134.516 178.609 135.767 177.499C135.924 177.376 136.098 177.276 136.283 177.201C136.378 177.165 136.481 177.156 136.58 177.176C136.68 177.196 136.772 177.243 136.846 177.313C136.919 177.382 136.972 177.471 136.998 177.57C137.023 177.668 137.021 177.771 136.99 177.868C136.902 178.066 136.782 178.248 136.635 178.406C136.009 179.09 135.374 179.779 134.713 180.44C133.781 181.376 132.861 182.316 131.898 183.216C130.538 184.474 129.143 185.688 127.765 186.913C127.061 187.556 126.314 188.235 125.559 188.864C124.57 189.683 123.554 190.474 122.55 191.268C121.547 192.062 120.456 192.928 119.395 193.735C118.47 194.441 117.518 195.119 116.575 195.814L116.293 195.977C116.205 196.308 116.378 196.422 116.6 196.509C118.034 196.939 119.561 196.946 120.998 196.529C122.676 196.058 124.235 195.238 125.575 194.123C126.288 193.496 127.029 192.918 127.742 192.291C128.225 191.869 128.683 191.418 129.112 190.941C130.271 189.67 131.364 188.361 132.417 187.001C133.99 184.929 135.458 182.78 136.814 180.56C137.225 179.893 137.605 179.211 138.04 178.476C138.22 178.452 138.402 178.448 138.582 178.465C138.667 178.466 138.751 178.489 138.824 178.533C138.898 178.576 138.959 178.637 139.002 178.711C139.045 178.785 139.067 178.869 139.068 178.954C139.069 179.04 139.047 179.124 139.006 179.198C138.749 179.885 138.455 180.557 138.125 181.211C137.173 182.933 136.222 184.654 135.187 186.326C134.004 188.224 132.76 190.071 131.49 191.912C130.676 193.091 129.784 194.208 128.918 195.353L127.457 197.271C127.465 197.329 127.486 197.383 127.518 197.431C127.55 197.479 127.593 197.52 127.643 197.549C127.693 197.578 127.749 197.595 127.806 197.6C127.864 197.604 127.922 197.595 127.976 197.574C128.795 197.432 129.605 197.245 130.403 197.011C131.684 196.567 132.869 195.883 133.894 194.996C135.608 193.475 136.963 191.591 137.859 189.482C138.675 187.577 139.271 185.585 139.633 183.544C139.884 182.228 140.003 180.869 140.169 179.537C140.235 179.037 140.446 178.807 140.845 178.846C140.928 178.852 141.01 178.874 141.085 178.912C141.16 178.95 141.226 179.002 141.28 179.066C141.334 179.13 141.375 179.205 141.4 179.285C141.424 179.365 141.432 179.449 141.424 179.533C141.448 180.068 141.446 180.604 141.416 181.139C141.277 183.602 140.955 186.051 140.454 188.467C140.087 190.299 139.601 192.106 138.998 193.876C138.924 194.101 138.807 194.309 138.716 194.523C138.624 194.737 138.525 194.955 138.746 195.171C138.968 195.388 139.211 195.064 139.416 194.935C140.548 194.223 141.5 193.258 142.196 192.116C142.571 191.487 142.874 190.819 143.098 190.122C143.823 187.799 143.934 185.328 143.418 182.95C143.198 181.787 142.884 180.646 142.611 179.503C142.511 179.088 142.603 178.82 142.918 178.713C142.995 178.677 143.079 178.659 143.164 178.66C143.249 178.66 143.333 178.68 143.409 178.718C143.485 178.755 143.552 178.809 143.605 178.876C143.657 178.943 143.694 179.021 143.713 179.103C143.984 179.912 144.214 180.733 144.403 181.565C144.779 183.174 144.962 184.822 144.948 186.474C144.955 188.586 144.424 190.665 143.404 192.515C142.241 194.462 140.464 195.968 138.352 196.797C138.103 196.893 137.844 196.963 137.58 197.006C137.478 197.038 137.369 197.04 137.266 197.013C137.163 196.986 137.069 196.93 136.996 196.852C136.923 196.774 136.873 196.677 136.853 196.572C136.833 196.468 136.842 196.359 136.881 196.259C136.97 195.874 137.123 195.507 137.287 195.101C137.584 194.219 137.881 193.338 138.17 192.441C138.21 192.269 138.238 192.094 138.255 191.919C138.202 191.904 138.147 191.9 138.093 191.906C138.039 191.913 137.987 191.931 137.939 191.958C137.892 191.985 137.851 192.022 137.818 192.066C137.785 192.109 137.761 192.159 137.747 192.212C137.245 193.272 136.535 194.219 135.658 194.998C134.423 196.248 132.94 197.225 131.305 197.866C130.123 198.323 128.885 198.615 127.624 198.734C127.046 198.752 126.467 198.727 125.893 198.658C125.763 198.651 125.64 198.599 125.545 198.51C125.45 198.421 125.39 198.301 125.376 198.172C125.479 197.931 125.605 197.7 125.751 197.482C126.772 196.14 127.814 194.818 128.823 193.494C128.975 193.31 129.122 193.117 128.839 192.851C128.696 192.954 128.56 193.065 128.429 193.184C127.401 194.283 126.217 195.223 124.914 195.977C123.558 196.869 122.052 197.509 120.469 197.866C118.758 198.234 116.972 198.01 115.405 197.231C115.15 197.105 114.914 196.945 114.701 196.757C114.249 196.383 114.276 195.927 114.784 195.634L119.652 191.963L122.019 190.199C122.303 190.023 122.529 189.769 122.672 189.467C122.527 189.452 122.382 189.456 122.239 189.481C121.958 189.614 121.688 189.769 121.433 189.946C119.285 191.273 116.965 192.298 114.537 192.992C112.369 193.701 110.057 193.857 107.812 193.445C106.302 193.185 104.895 192.509 103.749 191.491C103.038 190.835 102.443 190.063 101.99 189.207C101.897 189.008 101.815 188.804 101.744 188.596C101.833 188.433 101.96 188.295 102.115 188.192C102.269 188.09 102.447 188.027 102.631 188.009L106.382 187.058C106.516 187.046 106.647 187.005 106.764 186.937C106.88 186.87 106.981 186.778 107.059 186.667C106.919 186.425 106.671 186.461 106.472 186.469C106.272 186.477 105.837 186.524 105.525 186.542C102.678 186.784 99.8158 186.308 97.2004 185.157C95.7596 184.562 94.4833 183.628 93.4793 182.436C93.0962 181.958 92.6807 181.499 92.2985 180.967C91.6973 180.005 91.2475 178.956 90.9648 177.857C90.9239 177.762 90.9078 177.659 90.9181 177.556C90.9284 177.454 90.9647 177.356 91.0235 177.271C91.0823 177.187 91.1618 177.118 91.2543 177.073C91.3468 177.028 91.4494 177.007 91.5522 177.012C91.9055 176.991 92.2544 177.037 92.6377 177.031L98.2235 177.396L99.1627 177.477C99.298 177.466 99.4319 177.443 99.5631 177.408L99.5878 177.264C99.4501 177.17 99.3012 177.094 99.1446 177.036C98.666 176.915 98.1759 176.811 97.6858 176.707C95.169 176.187 92.7732 175.196 90.6245 173.786C88.6921 172.55 87.0697 170.886 85.8824 168.924C85.1312 167.661 84.579 166.29 84.2454 164.859C83.9505 163.609 83.8133 162.327 83.8369 161.043C83.7778 160.579 83.8889 160.11 84.1498 159.722C84.3141 159.679 84.486 159.672 84.6534 159.701C84.8208 159.731 84.9798 159.797 85.1193 159.894C87.4989 161.111 89.9481 162.169 92.4088 163.21C93.598 163.706 94.8043 164.138 96.0072 164.583C99.41 165.855 102.891 166.908 106.427 167.736C108.369 168.195 110.331 168.632 112.289 169.007C115.711 169.681 119.177 170.115 122.66 170.307C124.576 170.405 126.491 170.482 128.412 170.512C130.795 170.515 133.177 170.389 135.546 170.134C135.799 170.107 136.04 170.021 136.288 169.985C136.792 169.909 137.012 170.105 137.116 170.582C137.287 171.76 137.791 172.865 138.568 173.766C139.346 174.668 140.365 175.328 141.505 175.67C142.394 175.944 143.331 176.022 144.253 175.9C145.175 175.778 146.06 175.458 146.847 174.961C147.016 174.864 147.193 174.761 147.363 174.664C147.509 174.579 147.682 174.553 147.847 174.592C148.011 174.631 148.154 174.732 148.247 174.873C148.283 174.944 148.304 175.022 148.31 175.101C148.315 175.181 148.305 175.261 148.28 175.336C148.254 175.412 148.214 175.482 148.162 175.542C148.11 175.602 148.046 175.651 147.975 175.686C147.327 176.095 146.643 176.443 145.931 176.726C144.447 177.277 142.829 177.351 141.301 176.938C139.602 176.485 138.13 175.421 137.168 173.949C136.686 173.287 136.328 172.542 136.114 171.752C136.107 171.683 136.084 171.617 136.048 171.559C136.011 171.5 135.962 171.451 135.903 171.414C135.845 171.378 135.779 171.355 135.711 171.347C135.642 171.34 135.573 171.348 135.508 171.371C133.759 171.615 131.997 171.752 130.231 171.784C127.065 171.889 123.895 171.802 120.74 171.523C119.057 171.42 117.325 171.195 115.674 170.923C113.321 170.572 111.024 170.167 108.726 169.688C106.804 169.282 104.903 168.745 103.004 168.23C101.626 167.854 100.238 167.461 98.8839 166.996C96.7328 166.249 94.5759 165.474 92.452 164.625C90.4994 163.85 88.5949 162.972 86.6996 162.109C86.3351 161.944 85.9855 161.748 85.6325 161.565C85.2795 161.381 85.3397 161.411 85.0371 161.65C85.0547 164.354 85.8936 166.989 87.4425 169.205C88.4576 170.597 89.7164 171.793 91.1579 172.736C93.1766 174.019 95.3916 174.962 97.7152 175.529C100.856 176.313 104.078 176.726 107.315 176.759C109.968 176.825 112.623 176.728 115.264 176.469C118.245 176.178 121.225 175.79 124.21 175.207C125.509 174.962 126.82 174.775 128.1 174.498C129.381 174.221 130.856 173.853 132.235 173.54C132.461 173.485 132.693 173.455 132.926 173.453C133.054 173.45 133.179 173.491 133.28 173.57C133.381 173.65 133.451 173.762 133.477 173.887C133.508 174 133.5 174.12 133.457 174.229C133.413 174.338 133.335 174.429 133.234 174.49C133.107 174.596 132.962 174.679 132.807 174.736C131.272 175.15 129.755 175.595 128.213 175.959C126.671 176.323 125.006 176.735 123.378 176.987C120.925 177.393 118.463 177.74 115.992 178.027C113.72 178.264 111.481 178.481 109.219 178.605C107.424 178.717 105.623 178.725 103.815 178.758C100.553 178.825 97.3112 178.665 94.0286 178.453C93.7271 178.433 93.4325 178.389 93.1297 178.348C92.989 178.294 92.8338 178.29 92.6906 178.338C92.5475 178.385 92.4251 178.481 92.3446 178.608Z" fill="#D1D1D1"/>
<path d="M86.4645 163.191C86.551 163.126 86.6561 163.091 86.7643 163.09C86.8725 163.09 86.9779 163.124 87.0649 163.188C90.0261 164.755 93.0886 166.122 96.2319 167.28C98.5614 168.15 100.932 168.867 103.34 169.519C105.748 170.171 107.893 170.684 110.218 171.062C110.35 171.074 110.48 171.1 110.607 171.139C110.88 171.239 110.902 171.334 110.732 171.69C110.639 171.709 110.543 171.713 110.449 171.703C108.446 171.268 106.432 170.872 104.438 170.379C101.441 169.651 98.494 168.731 95.6145 167.626C93.6852 166.891 91.7993 166.045 89.918 165.207C88.864 164.74 87.8503 164.251 86.7972 163.73C86.5704 163.635 86.3827 163.496 86.4645 163.191Z" fill="#D1D1D1"/>
<path d="M127.163 154.98C127.266 155.086 127.327 155.226 127.332 155.373C127.338 155.521 127.289 155.666 127.194 155.779C127.019 155.998 126.771 155.959 126.542 155.897L122.576 154.855L115.271 152.891L115.132 152.854C115.057 152.843 114.986 152.818 114.922 152.779C114.857 152.741 114.801 152.69 114.756 152.63C114.712 152.57 114.679 152.502 114.661 152.429C114.643 152.356 114.639 152.281 114.651 152.207C114.692 152.059 114.789 151.934 114.922 151.857C115.055 151.781 115.212 151.759 115.36 151.797C116.066 151.959 116.758 152.151 117.444 152.335L125.075 154.38C125.819 154.627 126.484 154.791 127.163 154.98Z" fill="#D1D1D1"/>
<path d="M153.06 200.99C153.619 200.935 153.662 200.953 153.97 201.356C153.824 201.978 153.629 202.628 153.503 203.303L151.102 212.289C151.023 212.582 150.928 212.863 150.837 213.152L150.778 213.293C150.715 213.42 150.607 213.52 150.474 213.573C150.342 213.625 150.195 213.627 150.061 213.578C149.822 213.479 149.739 213.28 149.82 212.954C150.083 211.921 150.354 210.882 150.63 209.852L152.26 203.719L152.856 201.494C152.915 201.322 152.983 201.154 153.06 200.99Z" fill="#D1D1D1"/>
<path d="M113.118 179.977C112.442 180.034 111.782 180.103 111.122 180.151C109.755 180.241 108.395 180.36 107.023 180.367C104.898 180.412 102.76 180.431 100.671 180.369C98.8831 180.326 97.1112 180.199 95.3244 180.102C95.0946 180.095 94.8499 180.118 94.7527 179.819C94.6555 179.521 95.0156 179.474 95.2768 179.517C97.0521 179.631 98.8345 179.795 100.615 179.864C102.141 179.918 103.679 179.901 105.208 179.867C106.736 179.834 108.362 179.745 109.909 179.669C110.74 179.619 111.559 179.511 112.389 179.441C112.571 179.418 112.755 179.428 112.933 179.471C113.194 179.513 113.292 179.683 113.118 179.977Z" fill="#D1D1D1"/>
<path d="M105.417 189.744C105.373 189.426 105.542 189.328 105.81 189.27C106.563 189.104 107.329 188.941 108.081 188.754C108.833 188.567 109.798 188.322 110.642 188.071C111.487 187.82 112.455 187.487 113.354 187.182L116.472 186.103C116.665 185.991 116.898 186.039 117.033 186.273C117.168 186.507 116.838 186.644 116.629 186.71C115.391 187.135 114.149 187.572 112.897 187.973C111.645 188.373 110.278 188.743 108.961 189.106C108.034 189.362 107.088 189.585 106.151 189.825C105.877 189.908 105.639 189.981 105.417 189.744Z" fill="#D1D1D1"/>
<path d="M113.431 151.362C113.465 151.478 113.483 151.598 113.486 151.718C113.466 152.149 113.248 152.329 112.833 152.224C112.13 152.05 111.414 151.871 110.71 151.676C110.006 151.481 109.438 151.335 108.843 151.142C108.717 151.11 108.6 151.048 108.503 150.962C108.419 150.89 108.361 150.792 108.34 150.684C108.318 150.575 108.333 150.463 108.383 150.364C108.419 150.261 108.491 150.174 108.586 150.119C108.681 150.065 108.792 150.046 108.899 150.066C109.047 150.091 109.192 150.126 109.335 150.169L112.845 151.11C113.046 151.182 113.242 151.266 113.431 151.362Z" fill="#D1D1D1"/>
<path d="M149.387 214.795C149.523 214.792 149.658 214.796 149.793 214.808C150.164 214.873 150.268 215.017 150.224 215.387C150.202 215.57 150.167 215.752 150.119 215.931L149.069 219.698C148.993 219.815 148.875 219.898 148.74 219.931C148.604 219.963 148.461 219.941 148.341 219.871C148.104 219.739 148.03 219.481 148.125 219.125C148.466 217.853 148.758 216.609 149.125 215.419C149.198 215.205 149.285 214.996 149.387 214.795Z" fill="#D1D1D1"/>
<path d="M118.511 195.814C118.425 195.498 118.642 195.352 118.845 195.202C119.418 194.872 119.97 194.488 120.501 194.085C121.708 193.141 122.906 192.181 124.095 191.225C124.505 190.892 124.891 190.518 125.296 190.177C125.427 190.076 125.571 189.993 125.723 189.93L125.898 190.399C125.817 190.446 125.83 190.524 125.798 190.543C124.624 191.489 123.457 192.465 122.261 193.391C121.384 194.07 120.463 194.709 119.564 195.367C119.411 195.456 119.304 195.625 119.165 195.738C119.026 195.85 118.758 196.037 118.511 195.814Z" fill="#D1D1D1"/>
<path d="M129.475 196.17C129.512 196.037 129.564 195.91 129.632 195.79C130.247 194.994 130.881 194.23 131.483 193.41C132.261 192.337 133.008 191.229 133.764 190.136C133.913 189.91 134.007 189.609 134.398 189.652C134.604 189.898 134.514 190.133 134.349 190.368L131 195.032L130.162 196.15C129.989 196.39 129.842 196.378 129.475 196.17Z" fill="#D1D1D1"/>
<path d="M141.274 188.434L141.755 188.597C141.778 188.703 141.783 188.813 141.771 188.921C141.488 190.052 141.206 191.182 140.911 192.309C140.834 192.599 140.735 192.883 140.615 193.157C140.509 193.401 140.333 193.525 140.009 193.335C140.018 193.179 140.043 193.023 140.085 192.872C140.566 191.577 140.916 190.237 141.13 188.872C141.165 188.766 141.215 188.629 141.274 188.434Z" fill="#D1D1D1"/>
<path d="M115.935 172.213C115.864 172.48 115.669 172.496 115.467 172.483C114.496 172.345 113.515 172.212 112.528 172.029C112.392 171.998 112.261 171.952 112.136 171.89C112.207 171.473 112.326 171.361 112.646 171.413L115.466 171.828C115.698 171.876 115.898 171.944 115.935 172.213Z" fill="#D1D1D1"/>
<path d="M122.037 184.233C122.072 184.536 121.895 184.638 121.679 184.73L119.526 185.619C119.292 185.754 119.018 185.912 118.774 185.601C118.721 185.288 118.94 185.183 119.156 185.09L120.89 184.369C121.059 184.271 121.229 184.173 121.421 184.116C121.614 184.058 121.839 183.982 122.037 184.233Z" fill="#D1D1D1"/>
<path d="M118.514 178.818C118.606 179.184 118.478 179.333 118.217 179.366L115.554 179.688C115.314 179.719 115.069 179.742 114.957 179.344C115.08 179.242 115.219 179.161 115.369 179.107C116.241 178.98 117.115 178.873 117.994 178.774C118.168 178.774 118.342 178.788 118.514 178.818Z" fill="#D1D1D1"/>
<path d="M105.705 150.341C105.416 150.25 105.064 150.163 104.715 150.042C104.641 150.035 104.57 150.013 104.506 149.976C104.441 149.94 104.386 149.89 104.342 149.83C104.298 149.771 104.268 149.702 104.253 149.63C104.238 149.558 104.238 149.483 104.254 149.411C104.27 149.338 104.301 149.27 104.345 149.211C104.389 149.152 104.446 149.103 104.511 149.067C104.575 149.031 104.647 149.009 104.721 149.003C104.794 148.997 104.868 149.007 104.938 149.032C105.263 149.087 105.583 149.168 105.896 149.275C106.003 149.299 106.098 149.361 106.163 149.45C106.228 149.539 106.259 149.648 106.25 149.758C106.247 150.05 106.098 150.222 105.705 150.341Z" fill="#D1D1D1"/>
<path d="M148.201 222.327C148.201 222.327 148.276 222.456 148.259 222.52C148.176 222.952 148.062 223.377 147.918 223.792C147.839 224.009 147.555 224.001 147.344 223.952C147.289 223.942 147.238 223.922 147.191 223.893C147.145 223.863 147.105 223.825 147.074 223.78C147.043 223.735 147.021 223.684 147.01 223.63C146.999 223.576 146.999 223.521 147.01 223.467C147.087 223.034 147.201 222.608 147.351 222.195C147.466 221.892 147.962 221.949 148.201 222.327Z" fill="#D1D1D1"/>
<path d="M128.434 187.903C128.539 188.197 128.36 188.333 128.206 188.476C127.873 188.776 127.541 189.075 127.226 189.386C126.911 189.697 126.875 189.653 126.506 189.35C126.596 189.191 126.7 189.041 126.817 188.902C127.116 188.6 127.445 188.313 127.761 188.023C127.951 187.849 128.146 187.683 128.434 187.903Z" fill="#D1D1D1"/>
<path d="M129.889 186.795C129.802 186.688 129.733 186.568 129.684 186.44C129.741 186.238 129.847 186.054 129.995 185.905C130.142 185.756 130.325 185.647 130.526 185.588C130.623 185.608 130.766 185.687 130.783 185.773C130.801 185.86 130.752 186.017 130.713 186.136C130.68 186.169 130.638 186.193 130.592 186.206L129.889 186.795Z" fill="#D1D1D1"/>
<path d="M123.137 178.245C122.885 178.702 122.449 178.524 122.106 178.582C122.06 178.591 122.013 178.589 121.968 178.576C121.923 178.563 121.883 178.539 121.849 178.506C121.816 178.474 121.79 178.434 121.776 178.389C121.761 178.345 121.757 178.298 121.765 178.252C122.251 177.81 122.76 177.796 123.137 178.245Z" fill="#D1D1D1"/>
<path d="M135.57 187.696C135.618 186.884 135.897 186.529 136.396 186.649C136.557 187.04 136.321 187.338 136.108 187.622C136.082 187.667 136.046 187.706 136.002 187.735C135.959 187.764 135.909 187.783 135.857 187.79C135.806 187.797 135.753 187.793 135.703 187.776C135.653 187.76 135.608 187.732 135.57 187.696Z" fill="#D1D1D1"/>
<path d="M141.865 186.739C141.755 186.675 141.665 186.581 141.605 186.468C141.546 186.356 141.518 186.229 141.526 186.102C141.534 185.975 141.577 185.853 141.65 185.748C141.723 185.644 141.824 185.563 141.941 185.512C142.168 185.532 142.239 185.674 142.251 185.882C142.269 186.046 142.242 186.212 142.174 186.363C142.106 186.513 141.999 186.643 141.865 186.739Z" fill="#D1D1D1"/>
<path d="M119.209 172.354C119.588 172.135 119.95 172.259 120.281 172.348C120.36 172.764 120.297 172.898 120.02 172.939C119.835 172.966 119.647 172.921 119.496 172.811C119.344 172.702 119.241 172.538 119.209 172.354Z" fill="#D1D1D1"/>
<path d="M124.785 182.83C124.817 182.716 124.876 182.611 124.957 182.525C125.038 182.438 125.138 182.372 125.249 182.332C125.361 182.292 125.48 182.279 125.597 182.294C125.715 182.309 125.827 182.352 125.924 182.419C126.021 182.847 125.656 182.886 125.408 182.997C125.16 183.108 125.065 183.109 124.785 182.83Z" fill="#D1D1D1"/>
<path d="M146.38 169.297L144.197 165.516C141.628 161.066 139.077 156.647 136.489 152.165C135.973 151.388 135.637 150.507 135.504 149.584C135.231 147.248 134.881 144.892 134.584 142.59C134.393 141.217 134.22 139.855 134.037 138.477C133.918 137.471 133.741 136.401 133.612 135.358C133.397 133.794 133.198 132.221 133.032 130.63C132.865 129.038 132.62 127.589 132.42 126.07C132.013 123.081 131.611 120.088 131.214 117.092L130.723 113.226C130.696 113.025 130.725 112.82 130.809 112.635C130.892 112.45 131.026 112.292 131.195 112.18C131.351 112.069 131.538 112.008 131.729 112.007C131.921 112.006 132.109 112.065 132.266 112.174C132.513 112.313 132.749 112.472 132.97 112.649C133.232 112.842 133.487 113.06 133.75 113.274C134.301 113.687 134.846 114.092 135.375 114.486C136.914 115.682 138.446 116.883 139.994 118.075C141.289 119.069 142.594 120.046 143.864 121.054C145.373 122.215 146.862 123.398 148.366 124.55C149.608 125.51 150.873 126.435 152.143 127.368C153.661 128.545 155.163 129.731 156.68 130.908C157.363 131.438 158.065 131.947 158.755 132.473C159.744 133.235 160.721 134.015 161.721 134.76C162.114 135.043 162.443 135.406 162.689 135.823C163.672 137.524 164.658 139.234 165.641 140.935L182.691 170.467C183.007 171.015 183.329 171.571 183.622 172.079C183.915 172.587 183.962 172.668 184.526 172.546C184.705 172.503 184.894 172.519 185.063 172.591C185.233 172.664 185.375 172.789 185.467 172.949C185.581 173.093 185.649 173.268 185.663 173.452C185.677 173.635 185.636 173.818 185.546 173.978L185.181 174.576C184.449 175.611 183.592 176.554 182.63 177.381C181.258 178.676 179.782 179.855 178.217 180.908C175.865 182.527 173.426 184.014 170.91 185.363C168.845 186.491 166.714 187.495 164.53 188.369C163.338 188.8 162.141 189.222 160.923 189.57C159.873 189.906 158.777 190.074 157.675 190.07C157.489 190.069 157.306 190.017 157.148 189.918C156.991 189.819 156.864 189.678 156.782 189.51C156.691 189.34 156.656 189.146 156.68 188.955C156.705 188.763 156.788 188.585 156.918 188.443C157.231 188.09 157.253 187.905 157.028 187.498C156.879 187.24 156.73 186.982 156.563 186.691L146.485 169.237L146.38 169.297ZM177.493 178.929C177.438 178.744 177.37 178.565 177.29 178.39C174.744 173.98 172.202 169.578 169.656 165.168C166.603 159.879 163.547 154.588 160.491 149.294C159.648 147.834 158.806 146.375 157.963 144.916C157.868 144.724 157.714 144.568 157.524 144.471C156.67 144.093 155.848 143.647 155.066 143.138C154.05 142.524 152.901 142.163 151.716 142.083C150.963 142.052 150.212 142.201 149.528 142.519C148.847 142.798 148.232 143.218 147.725 143.752C147.218 144.286 146.83 144.921 146.586 145.615C146.291 146.589 146.151 147.602 146.169 148.618C146.17 149.457 146.071 150.309 146.099 151.121C146.099 151.35 146.159 151.574 146.271 151.774C151.596 160.997 156.921 170.22 162.246 179.443C163.354 181.362 164.462 183.281 165.574 185.208C165.654 185.345 165.737 185.49 165.83 185.651C169.978 183.895 173.895 181.638 177.493 178.929ZM134.335 125.309C134.711 127.958 135.073 130.584 135.421 133.185C135.687 135.117 135.911 137.051 136.165 138.979C136.53 141.79 136.907 144.603 137.28 147.409C137.345 148.136 137.454 148.86 137.606 149.574C137.787 150.197 138.019 150.804 138.299 151.389C138.35 151.478 138.483 151.54 138.574 151.606C138.913 151.41 138.793 151.146 138.749 150.903C138.642 150.234 138.523 149.561 138.432 148.883C138.391 148.601 138.416 148.314 138.504 148.043C138.592 147.773 138.74 147.526 138.939 147.321C139.085 147.167 139.272 147.059 139.479 147.01C139.826 146.947 140.183 146.963 140.523 147.054C140.864 147.145 141.18 147.31 141.45 147.538C142.453 148.31 143.391 149.163 144.256 150.089C144.321 150.202 144.438 150.274 144.531 150.36C144.897 150.342 144.934 150.127 144.934 149.848C144.922 149.027 144.902 148.211 144.937 147.395C144.983 146.016 145.435 144.682 146.237 143.559C147.253 142.206 148.736 141.278 150.398 140.956C152.059 140.634 153.781 140.942 155.229 141.818C155.815 142.125 156.367 142.505 156.915 142.877C156.999 142.951 157.106 142.993 157.218 142.997C157.33 143.001 157.44 142.966 157.529 142.898C157.52 142.72 157.497 142.543 157.46 142.368C157.22 141.432 156.948 140.514 156.725 139.568C156.605 139.117 156.546 138.652 156.55 138.186C156.514 137.858 156.58 137.528 156.738 137.239C156.896 136.95 157.138 136.716 157.433 136.569C157.728 136.423 158.061 136.37 158.387 136.418C158.712 136.466 159.016 136.613 159.255 136.839C159.855 137.245 160.394 137.75 160.968 138.204C161.1 138.294 161.237 138.376 161.379 138.45C161.685 138.273 161.593 138.058 161.483 137.885C161.07 137.18 160.518 136.566 159.86 136.081C158.935 135.465 158.105 134.697 157.225 134.012C155.712 132.843 154.183 131.683 152.661 130.519L147.393 126.477C145.796 125.249 144.198 124.022 142.601 122.794C142.054 122.368 141.51 121.929 140.959 121.495C140.788 121.368 140.595 121.275 140.379 121.142C138.686 122.808 136.596 124.014 134.308 124.647C134.301 124.868 134.31 125.089 134.335 125.309ZM182.547 174.667C182.482 174.446 182.401 174.231 182.304 174.023C181.294 172.273 180.284 170.524 179.278 168.782L163.885 142.12C163.517 141.483 163.149 140.847 162.786 140.218C162.672 140.039 162.547 139.867 162.413 139.702C162.304 139.679 162.266 139.669 162.237 139.675C161.873 139.777 161.489 139.774 161.127 139.667C160.765 139.561 160.44 139.355 160.19 139.072C159.667 138.642 159.122 138.239 158.558 137.865C158.458 137.8 158.351 137.746 158.24 137.705C157.879 137.751 157.772 137.974 157.804 138.235C157.922 138.941 158.031 139.652 158.198 140.351C158.365 141.05 158.557 141.531 158.689 142.132C158.821 142.733 158.788 143.085 158.858 143.561C158.872 143.824 158.937 144.082 159.05 144.321C162.261 149.884 165.473 155.447 168.685 161.01C171.645 166.137 174.607 171.268 177.571 176.401C177.804 176.804 178.036 177.207 178.269 177.61C178.368 177.755 178.48 177.892 178.602 178.019C180.011 177.017 181.331 175.896 182.547 174.667ZM139.92 150.603C139.99 150.937 140.024 151.278 140.022 151.619C140.025 151.839 139.971 152.055 139.866 152.248C139.761 152.44 139.608 152.603 139.421 152.719C139.381 152.836 139.373 152.962 139.398 153.084C139.423 153.206 139.48 153.319 139.563 153.411C143.712 160.597 147.878 167.77 152.061 174.929C154.305 178.815 156.548 182.701 158.797 186.595C158.927 186.821 159.062 187.054 159.197 187.288C159.332 187.522 159.518 187.694 159.703 187.942L160.51 187.476C160.457 187.309 160.391 187.145 160.313 186.988C159.559 185.681 158.81 184.383 158.061 183.085C157.958 182.908 157.86 182.739 157.758 182.561C157.656 182.384 157.511 182.134 157.726 181.892C158.163 181.811 158.242 181.873 158.439 182.233C159.37 183.845 160.312 185.476 161.264 187.127C161.307 187.176 161.354 187.22 161.406 187.26C161.629 187.237 161.849 187.196 162.066 187.137C162.605 186.954 163.126 186.739 163.657 186.541C163.881 186.465 164.103 186.401 164.323 186.317C164.543 186.233 164.735 185.951 164.558 185.644C158.376 174.938 152.182 164.239 145.973 153.548C145.745 153.152 145.508 152.741 145.294 152.37C145.126 152.087 144.884 151.855 144.594 151.699C144.14 151.426 143.71 151.113 143.312 150.763C142.678 150.204 142.078 149.594 141.439 149.027C141.1 148.782 140.741 148.565 140.366 148.379C140.088 148.195 140.035 148.215 139.676 148.487C139.702 149.198 139.783 149.905 139.92 150.603ZM139.22 120.607C139.263 120.484 139.262 120.349 139.218 120.226C139.175 120.103 139.09 119.998 138.979 119.929C137.712 118.963 136.436 118.001 135.156 117.031C134.697 116.683 134.253 116.305 133.79 115.949C133.646 115.844 133.493 115.752 133.331 115.676C133.07 115.913 133.198 116.097 133.296 116.266L136.217 121.159C136.338 121.368 136.464 121.586 136.59 121.804C136.639 121.922 136.717 122.027 136.816 122.108C136.916 122.189 137.034 122.245 137.16 122.27L139.22 120.607Z" fill="#D1D1D1"/>
<path d="M164.421 201.847C164.161 201.851 163.909 201.76 163.712 201.59C163.515 201.421 163.387 201.185 163.352 200.927C163.333 200.789 163.342 200.649 163.38 200.515C163.417 200.38 163.482 200.256 163.571 200.148C163.659 200.04 163.769 199.952 163.894 199.889C164.018 199.826 164.154 199.79 164.293 199.782C165.473 199.693 166.639 199.471 167.769 199.119C169.101 198.745 170.404 198.277 171.668 197.717L172.439 197.358C173.87 196.671 175.316 196.03 176.724 195.303C179.702 193.724 182.543 191.9 185.218 189.851C186.056 189.217 186.858 188.539 187.646 187.837C188.278 187.256 188.883 186.628 189.47 185.988C189.824 185.568 190.156 185.129 190.463 184.673C190.619 184.464 190.846 184.32 191.101 184.267C191.357 184.215 191.622 184.259 191.847 184.39C192.065 184.516 192.228 184.718 192.305 184.958C192.382 185.198 192.367 185.458 192.263 185.687C192.171 185.79 192.1 185.91 192.055 186.041C192.009 186.172 191.99 186.31 191.999 186.448C192.008 186.586 192.044 186.721 192.105 186.845C192.166 186.969 192.252 187.08 192.356 187.17C192.393 187.224 192.426 187.281 192.454 187.339C193.506 189.162 194.558 190.984 195.61 192.806C195.998 193.388 196.31 194.016 196.54 194.677C196.757 195.363 196.813 196.091 196.701 196.803C196.59 197.514 196.315 198.19 195.898 198.778C195.46 199.366 194.961 199.907 194.409 200.389C193.251 201.491 192.036 202.53 190.767 203.503C189.762 204.255 188.8 205.047 187.738 205.703C185.52 207.16 183.159 208.386 180.692 209.363C180.051 209.593 179.445 209.921 178.8 210.143C177.704 210.518 176.608 210.871 175.509 211.183C174.906 211.385 174.28 211.508 173.645 211.55C172.815 211.619 171.981 211.456 171.239 211.077C170.496 210.699 169.874 210.121 169.442 209.408C168.06 207.164 166.803 204.837 165.485 202.555C165.336 202.297 165.152 202.07 164.979 201.826L164.421 201.847ZM170.215 201.233C170.815 202.273 171.416 203.313 172.016 204.353C172.1 204.458 172.146 204.589 172.146 204.724C172.145 204.859 172.099 204.99 172.015 205.095C171.94 205.186 171.838 205.251 171.723 205.281C171.609 205.31 171.488 205.302 171.378 205.259C171.201 205.179 171.051 205.048 170.947 204.884C170.482 204.078 170.016 203.272 169.551 202.465C169.341 202.103 169.137 201.748 168.927 201.385C168.853 201.256 168.68 201.087 168.56 201.103C168.078 201.079 167.604 201.231 167.226 201.529C167.314 201.682 167.345 201.847 167.424 201.984C168.574 203.976 169.723 205.967 170.878 207.966C171.166 208.517 171.629 208.956 172.194 209.213C172.76 209.471 173.395 209.533 174 209.389C175.69 208.929 177.343 208.383 179 207.792C181.372 206.89 183.645 205.75 185.786 204.39C187.208 203.552 188.564 202.607 189.842 201.564C191.298 200.369 192.686 199.094 194 197.745C194.253 197.467 194.439 197.134 194.542 196.773C194.644 196.411 194.662 196.031 194.593 195.661C194.508 195.151 194.315 194.665 194.027 194.235C192.943 192.357 191.858 190.478 190.769 188.592C190.654 188.413 190.529 188.241 190.396 188.076C190.222 188.158 190.054 188.254 189.896 188.365C188.765 189.526 187.54 190.593 186.234 191.554C184.444 192.95 182.547 194.203 180.561 195.302C178.538 196.471 176.507 197.589 174.41 198.649C173.175 199.266 171.805 199.723 170.567 200.223C170.358 200.344 170.148 200.465 169.89 200.614C170.064 200.879 170.122 201.071 170.215 201.233Z" fill="#D1D1D1"/>
<path d="M176.902 189.858C178.041 189.114 179.779 188.046 181.44 186.883C183.329 185.623 185.096 184.189 186.718 182.6C187.549 181.829 188.264 180.942 188.841 179.966C188.961 179.763 189.006 179.526 188.97 179.294C188.934 179.062 188.819 178.849 188.644 178.693C188.539 178.583 188.411 178.499 188.268 178.447C188.126 178.395 187.974 178.376 187.823 178.392C187.672 178.409 187.527 178.459 187.4 178.541C187.272 178.622 187.164 178.732 187.086 178.861C186.16 180.242 185.018 181.464 183.703 182.48C182.697 183.287 181.736 184.175 180.698 184.946C179.816 185.596 178.851 186.142 177.928 186.739C175.405 188.339 172.799 189.804 170.121 191.128C169.42 191.533 168.611 191.753 167.863 192.077C166.107 192.834 164.279 193.411 162.407 193.798C161.924 193.893 161.405 193.925 160.92 193.979C160.667 194.014 160.435 194.143 160.272 194.34C160.109 194.537 160.025 194.788 160.038 195.044C160.051 195.3 160.159 195.541 160.341 195.721C160.523 195.901 160.766 196.007 161.022 196.016C161.867 196.011 162.708 195.888 163.519 195.65L164.865 195.281C166.429 194.812 167.964 194.249 169.46 193.595C172.006 192.484 174.49 191.236 176.902 189.858Z" fill="#D1D1D1"/>
<path d="M179.815 192.035C180.845 191.344 182.5 190.281 184.098 189.121C185.333 188.225 186.517 187.241 187.662 186.226C188.649 185.36 189.524 184.374 190.267 183.291C190.489 182.949 190.723 182.609 190.616 182.144C190.578 181.973 190.496 181.815 190.379 181.684C190.262 181.554 190.113 181.456 189.946 181.401C189.78 181.345 189.602 181.334 189.43 181.367C189.258 181.401 189.097 181.479 188.964 181.593C188.835 181.7 188.724 181.827 188.632 181.967C187.524 183.47 186.221 184.819 184.756 185.979C183.213 187.253 181.587 188.424 179.891 189.486C178.439 190.454 176.916 191.333 175.372 192.16C173.659 193.085 171.905 193.957 170.14 194.772C169.129 195.205 168.097 195.585 167.047 195.913C165.98 196.301 164.876 196.579 163.752 196.741C163.504 196.776 163.25 196.783 163.006 196.827C162.725 196.857 162.45 196.926 162.188 197.03C161.988 197.118 161.825 197.273 161.728 197.469C161.63 197.665 161.605 197.888 161.656 198.101C161.687 198.309 161.787 198.5 161.94 198.644C162.093 198.788 162.291 198.875 162.5 198.893C162.8 198.921 163.102 198.919 163.401 198.889C164.794 198.729 166.165 198.411 167.486 197.939C171.794 196.416 175.927 194.437 179.815 192.035Z" fill="#D1D1D1"/>
<path d="M174.981 187.183L179.609 184.027C180.036 183.781 180.48 183.525 180.865 183.205C182.568 181.976 184.156 180.595 185.61 179.079C186.143 178.461 186.641 177.814 187.104 177.142C187.222 176.984 187.291 176.794 187.302 176.596C187.312 176.399 187.264 176.203 187.162 176.033C187.077 175.877 186.952 175.745 186.8 175.652C186.648 175.559 186.475 175.507 186.297 175.501C186.119 175.495 185.942 175.536 185.785 175.619C185.627 175.703 185.494 175.826 185.399 175.976C184.55 177.252 183.52 178.397 182.341 179.376C181.296 180.302 180.118 181.111 179.026 181.956C176.328 183.951 173.462 185.709 170.462 187.212C168.889 188.045 167.233 188.732 165.588 189.403C164.244 189.993 162.843 190.442 161.406 190.742C160.725 190.866 160.035 190.975 159.335 191.046C159.145 191.046 158.958 191.098 158.796 191.197C158.634 191.296 158.502 191.438 158.415 191.607C158.328 191.776 158.29 191.966 158.304 192.155C158.318 192.345 158.384 192.527 158.495 192.681C158.586 192.832 158.718 192.953 158.875 193.031C159.033 193.11 159.209 193.142 159.385 193.124C159.869 193.11 160.353 193.064 160.832 192.987C161.9 192.818 162.949 192.546 163.966 192.178C165.229 191.685 166.538 191.327 167.759 190.761C170.185 189.619 172.634 188.517 174.981 187.183Z" fill="#D1D1D1"/>
<path d="M175.217 178.953C175.652 178.702 175.733 178.655 175.522 178.272C175.311 177.888 175.056 177.465 174.824 177.062C173.074 174.031 171.322 170.997 169.569 167.96C169.448 167.75 169.322 167.533 169.196 167.315C168.973 166.928 168.72 166.956 168.409 167.404C170.569 171.145 172.743 174.91 174.926 178.691C175.014 178.787 175.112 178.875 175.217 178.953Z" fill="#D1D1D1"/>
<path d="M164.902 161.086C164.93 161.193 164.968 161.297 165.016 161.396C165.514 162.259 166.013 163.122 166.515 163.992C166.65 164.226 166.66 164.242 167.026 164.3C167.32 163.99 167.328 163.91 167.109 163.531C166.69 162.806 166.276 162.088 165.857 161.363L165.531 160.798C165.181 160.732 164.998 160.805 164.902 161.086Z" fill="#D1D1D1"/>
<path d="M157.617 148.469C157.663 148.578 157.722 148.681 157.794 148.776C158.055 149.227 158.311 149.671 158.567 150.114C158.734 150.405 158.734 150.405 159.104 150.449C159.362 150.3 159.352 150.059 159.216 149.804C158.941 149.329 158.666 148.853 158.392 148.377C158.152 148.074 157.924 148.088 157.617 148.469Z" fill="#D1D1D1"/>
<path d="M141.475 139.891C141.474 139.698 141.45 139.506 141.403 139.32C140.949 138.012 140.471 136.719 140.009 135.416C139.669 134.473 139.349 133.529 139.017 132.581C138.995 132.468 138.936 132.366 138.85 132.291C138.717 132.207 138.557 132.176 138.402 132.205C138.314 132.256 138.258 132.439 138.216 132.571C138.22 132.655 138.242 132.738 138.28 132.813L140.456 138.759C140.566 139.061 140.663 139.36 140.776 139.649C140.889 139.939 141.071 140.049 141.475 139.891Z" fill="#D1D1D1"/>
<path d="M139.066 143.259C139.406 143.235 139.485 143.017 139.43 142.737C139.376 142.457 139.265 142.059 139.178 141.722C138.772 140.032 138.371 138.35 137.957 136.665C137.849 136.2 137.745 136.131 137.327 136.19C137.138 136.364 137.184 136.574 137.234 136.792L138.134 140.379C138.244 140.831 138.398 141.302 138.494 141.73C138.591 142.158 138.646 142.384 138.694 142.689C138.741 142.995 138.797 143.167 139.066 143.259Z" fill="#D1D1D1"/>
<path d="M141.549 134.656C141.751 134.486 141.735 134.291 141.638 134.067C140.976 132.622 140.325 131.16 139.658 129.706C139.444 129.336 139.402 129.263 138.969 129.406C138.81 129.616 138.88 129.812 138.976 130.014C139.377 130.858 139.778 131.701 140.163 132.554C140.44 133.146 140.681 133.749 140.945 134.338C141.107 134.674 141.15 134.693 141.549 134.656Z" fill="#D1D1D1"/>
<path d="M143.821 147.233C144.143 147.046 144.047 146.769 143.952 146.512C143.523 145.34 143.103 144.164 142.655 142.961C142.539 142.759 142.532 142.505 142.444 142.298C142.362 142.137 142.272 141.981 142.174 141.83C141.68 141.997 141.642 142.137 141.749 142.452C142.257 143.911 142.774 145.364 143.283 146.823C143.379 147.101 143.502 147.277 143.821 147.233Z" fill="#D1D1D1"/>
<path d="M147.328 140.608L147.836 140.315C147.217 139.242 146.621 138.21 146.002 137.138L145.476 137.344C145.5 137.514 145.545 137.679 145.61 137.837C146.108 138.7 146.606 139.563 147.161 140.393C147.212 140.468 147.268 140.54 147.328 140.608Z" fill="#D1D1D1"/>
<path d="M136.272 125.276C135.805 125.417 135.723 125.518 135.832 125.874C135.941 126.231 136.079 126.302 136.128 126.553C136.309 127.072 136.47 127.592 136.651 128.111C136.742 128.344 136.844 128.572 136.959 128.794C137.441 128.698 137.526 128.584 137.402 128.183C137.225 127.597 137.011 127.022 136.813 126.437C136.683 126.211 136.649 125.929 136.543 125.69C136.465 125.544 136.374 125.406 136.272 125.276Z" fill="#D1D1D1"/>
<path d="M136.567 133.588C137.008 133.495 137.091 133.285 137.024 133.002C136.904 132.458 136.779 131.907 136.641 131.352C136.569 131.06 136.436 130.997 135.96 131.121C135.789 131.812 136.26 132.443 136.27 133.093C136.294 133.283 136.466 133.432 136.567 133.588Z" fill="#D1D1D1"/>
<path d="M145.026 142.077C145.059 141.915 145.058 141.747 145.021 141.585C144.808 141.03 144.559 140.486 144.322 139.946C144.298 139.874 144.26 139.809 144.21 139.752C143.848 139.757 143.848 139.757 143.621 140.092C143.682 140.197 143.752 140.318 143.826 140.447C144.023 140.881 144.227 141.291 144.43 141.754C144.444 141.817 144.471 141.876 144.51 141.927C144.548 141.979 144.597 142.021 144.654 142.052C144.71 142.083 144.773 142.101 144.837 142.105C144.901 142.109 144.965 142.1 145.026 142.077Z" fill="#D1D1D1"/>
<path d="M139.503 146.158C139.762 146.438 139.956 146.477 140.164 146.26C140.186 145.519 140.011 144.785 139.657 144.134L139.193 144.186C139.123 144.904 139.631 145.503 139.503 146.158Z" fill="#D1D1D1"/>
<path d="M142.938 137.94C143.213 137.727 143.175 137.512 143.082 137.276C142.988 137.04 142.818 136.633 142.67 136.32C142.615 136.183 142.521 136.065 142.399 135.982C142.169 135.825 141.8 136.005 141.891 136.275C142.032 136.891 142.328 137.46 142.75 137.93C142.783 137.932 142.915 137.899 142.938 137.94Z" fill="#D1D1D1"/>
<path d="M139.522 127.087L139.885 126.877C139.892 126.68 139.844 126.484 139.745 126.313C139.646 126.142 139.501 126.002 139.326 125.91L138.93 126.192C138.947 126.379 139.009 126.558 139.113 126.714C139.216 126.871 139.357 126.999 139.522 127.087Z" fill="#D1D1D1"/>
<path d="M143.955 133.815C143.367 134.026 143.381 134.405 144.011 134.955L144.435 134.796C144.453 134.604 144.417 134.411 144.332 134.238C144.248 134.066 144.117 133.919 143.955 133.815Z" fill="#D1D1D1"/>
<path d="M153.147 173.98C153.054 174.071 152.997 174.193 152.987 174.324C152.978 174.454 153.015 174.583 153.093 174.688C153.275 175.002 153.497 175.293 153.678 175.608C154.274 176.64 154.875 177.68 155.475 178.72C155.568 178.881 155.657 179.034 155.75 179.195C155.787 179.314 155.866 179.416 155.971 179.483C156.077 179.55 156.203 179.578 156.326 179.561C156.587 179.249 156.604 179.111 156.419 178.809C155.679 177.527 154.898 176.268 154.142 174.996C154.007 174.762 153.877 174.536 153.742 174.303C153.607 174.069 153.482 173.872 153.147 173.98Z" fill="#D1D1D1"/>
<path d="M158.272 179.394C158.771 180.257 159.212 181.152 159.678 182.033C159.85 182.331 160.061 182.436 160.274 182.302C160.487 182.168 160.496 181.905 160.33 181.635L157.56 176.838C157.397 176.556 157.174 176.449 156.964 176.57C156.755 176.691 156.744 176.933 156.916 177.231L158.192 179.441L158.272 179.394Z" fill="#D1D1D1"/>
<path d="M147.491 160.627C147.926 160.375 147.993 160.229 147.774 159.85C147.555 159.471 147.262 158.963 147.001 158.512C146.819 158.197 146.638 157.883 146.456 157.568C146.421 157.458 146.362 157.356 146.284 157.27C146.163 157.21 145.977 157.167 145.881 157.223C145.828 157.269 145.785 157.326 145.755 157.39C145.725 157.453 145.709 157.522 145.707 157.592C145.747 157.718 145.814 157.833 145.902 157.931C146.326 158.665 146.75 159.399 147.173 160.133C147.267 160.305 147.373 160.47 147.491 160.627Z" fill="#D1D1D1"/>
<path d="M150.592 169.553C150.833 169.339 150.757 169.114 150.622 168.88C150.25 168.235 149.877 167.59 149.5 166.936C149.468 166.862 149.428 166.792 149.379 166.727C149.281 166.557 149.064 166.479 148.897 166.618C148.73 166.757 148.776 166.892 148.756 167.044C148.783 167.141 148.835 167.229 148.905 167.302C149.277 167.947 149.65 168.592 150.022 169.237C150.117 169.494 150.293 169.651 150.592 169.553Z" fill="#D1D1D1"/>
<path d="M150.616 165.369C150.682 165.265 150.713 165.143 150.706 165.019C150.699 164.896 150.653 164.779 150.575 164.683L149.341 162.546C149.196 162.296 149.021 162.161 148.729 162.287C148.436 162.413 148.591 162.7 148.716 162.917C149.117 163.611 149.513 164.296 149.913 164.99C150.117 165.399 150.22 165.447 150.616 165.369Z" fill="#D1D1D1"/>
<path d="M142.739 155.877C143.094 155.393 142.588 155.094 142.445 154.735C142.303 154.377 142.189 154.292 141.844 154.438C141.602 154.727 141.714 154.996 141.913 155.247C142.112 155.498 142.16 156.029 142.739 155.877Z" fill="#D1D1D1"/>
<path d="M183.509 203.834C183.754 203.761 183.992 203.67 184.223 203.562C186.122 202.483 187.92 201.236 189.596 199.836C190.39 199.175 191.146 198.469 191.859 197.723C192.271 197.267 192.534 196.697 192.614 196.088C192.694 195.479 192.588 194.86 192.31 194.313C191.951 193.693 191.593 193.072 191.234 192.451C191.132 192.28 191.006 192.125 190.86 191.99C190.762 191.897 190.633 191.844 190.499 191.841C190.364 191.837 190.232 191.884 190.129 191.971C190.025 192.043 189.951 192.151 189.919 192.274C189.888 192.396 189.901 192.526 189.957 192.64C190.015 192.76 190.082 192.876 190.157 192.987C190.497 193.575 190.841 194.172 191.181 194.761C191.331 195.048 191.403 195.37 191.39 195.694C191.378 196.018 191.281 196.333 191.108 196.608C190.965 196.875 190.776 197.115 190.55 197.318C188.483 199.287 186.198 201.013 183.74 202.464L183.498 202.604C183.01 202.95 182.986 203.319 183.509 203.834Z" fill="#D1D1D1"/>
<path d="M180.086 205.724C180.473 205.501 180.614 205.205 180.486 204.87C180.455 204.796 180.41 204.73 180.352 204.674C180.295 204.618 180.227 204.575 180.152 204.547C180.077 204.518 179.997 204.506 179.917 204.509C179.838 204.513 179.759 204.533 179.687 204.568C178.998 204.826 178.313 205.092 177.637 205.375C177.222 205.55 177.102 205.845 177.234 206.167C177.26 206.252 177.304 206.331 177.363 206.397C177.423 206.464 177.497 206.516 177.58 206.549C177.662 206.583 177.751 206.598 177.84 206.593C177.929 206.588 178.016 206.563 178.094 206.52C178.776 206.266 179.459 205.979 180.086 205.724Z" fill="#D1D1D1"/>
</svg>
