<svg width="192" height="196" viewBox="0 0 192 196" fill="none" xmlns="http://www.w3.org/2000/svg">
<path d="M49.0381 47.5722L50.2251 48.0266C50.9552 48.304 51.6886 48.5687 52.4267 48.8415C52.8189 48.9807 53.0369 48.93 53.2264 48.6809C53.2967 48.6074 53.3471 48.5172 53.3727 48.4189C53.3983 48.3205 53.3984 48.2172 53.3728 48.1188C53.3473 48.0204 53.297 47.9302 53.2267 47.8567C53.1564 47.7833 53.0685 47.729 52.9714 47.6991C52.5131 47.5013 52.04 47.3336 51.583 47.1567C51.126 46.9797 50.4723 46.7227 49.9346 46.5923C49.397 46.4619 48.9013 46.6835 49.0381 47.5722Z" fill="#D1D1D1"/>
<path d="M47.8249 54.4641C47.7287 54.6631 47.6504 54.8702 47.5909 55.083C47.5801 55.1928 47.6121 55.3026 47.6802 55.3894C47.7484 55.4763 47.8475 55.5334 47.9568 55.549C48.1787 55.612 48.4078 55.6459 48.6385 55.6499L51.4295 55.6617C51.5287 55.6762 51.63 55.6672 51.7252 55.6354C51.8204 55.6037 51.9068 55.5501 51.9775 55.479C52.0483 55.4078 52.1014 55.3211 52.1325 55.2257C52.1637 55.1304 52.1722 55.029 52.1571 54.9298C52.1647 54.8032 52.1232 54.6786 52.0413 54.5818C51.9594 54.4849 51.8433 54.4234 51.7172 54.4099C51.5715 54.3876 51.4245 54.3755 51.2771 54.3737C50.4422 54.3613 49.6119 54.3569 48.7783 54.3652C48.4589 54.3811 48.1407 54.4141 47.8249 54.4641Z" fill="#D1D1D1"/>
<path d="M93.4439 62.5786C93.3233 62.4755 93.1921 62.3855 93.0524 62.3101C92.0115 61.9222 90.9659 61.5261 89.9181 61.1636C89.8204 61.1211 89.7133 61.1051 89.6075 61.1173C89.5017 61.1294 89.401 61.1692 89.3155 61.2327C89.2301 61.2963 89.1629 61.3812 89.1208 61.479C89.0786 61.5768 89.0631 61.684 89.0756 61.7897C89.0639 61.8995 89.0873 62.0102 89.1425 62.1059C89.1977 62.2015 89.2819 62.2771 89.3828 62.3218C90.4573 62.712 91.5283 63.1148 92.6177 63.4749C92.7133 63.5228 92.8201 63.5436 92.9267 63.5352C93.0333 63.5268 93.1356 63.4894 93.2224 63.4271C93.3093 63.3647 93.3775 63.2799 93.4196 63.1816C93.4617 63.0833 93.4762 62.9754 93.4614 62.8695C93.4649 62.7722 93.4591 62.6748 93.4439 62.5786Z" fill="#D1D1D1"/>
<path d="M90.6359 55.6108C90.8115 55.6169 90.9963 55.6392 91.1799 55.6407C92.1764 55.6351 93.1775 55.6376 94.1774 55.6192C94.6405 55.6206 94.8302 55.4466 94.8621 55.0735C94.8776 54.9814 94.8714 54.887 94.8437 54.7978C94.8161 54.7086 94.7678 54.6271 94.7029 54.56C94.638 54.4928 94.5582 54.4419 94.47 54.4113C94.3818 54.3806 94.2876 54.3712 94.195 54.3836C93.1002 54.3493 92.0194 54.3391 90.9339 54.3208C90.7988 54.3226 90.6679 54.3675 90.5603 54.449C90.4526 54.5305 90.3738 54.6443 90.3354 54.7738C90.201 55.1739 90.3508 55.3777 90.6359 55.6108Z" fill="#D1D1D1"/>
<path d="M67.5369 78.3103C67.6506 78.135 67.7443 77.9475 67.8162 77.7513C67.9308 77.2982 68.0119 76.8428 68.101 76.3828C68.1902 75.9229 68.3531 75.1623 68.4391 74.5107C68.4778 74.4237 68.4963 74.3292 68.4934 74.234C68.4904 74.1389 68.4661 74.0457 68.4221 73.9613C68.3782 73.8769 68.3157 73.8034 68.2395 73.7465C68.1632 73.6895 68.0751 73.6505 67.9817 73.6323C67.8883 73.6141 67.7919 73.6172 67.6999 73.6413C67.6078 73.6655 67.5224 73.7101 67.45 73.7719C67.3775 73.8336 67.3199 73.9109 67.2815 73.998C67.2431 74.085 67.2248 74.1796 67.2279 74.2748C67.0363 75.3206 66.8493 76.3746 66.6784 77.4192C66.6011 77.9368 66.786 78.2386 67.1858 78.298C67.3021 78.3146 67.4198 78.3188 67.5369 78.3103Z" fill="#D1D1D1"/>
<path d="M74.964 36.2478C75.0821 36.0918 75.1785 35.9204 75.2504 35.7384C75.465 34.6578 75.6541 33.5704 75.8352 32.4876C75.8573 32.4016 75.8604 32.3117 75.8444 32.2243C75.8284 32.1369 75.7936 32.054 75.7425 31.9814C75.6913 31.9087 75.625 31.848 75.5481 31.8035C75.4713 31.7589 75.3856 31.7316 75.2972 31.7233C75.2208 31.6999 75.1401 31.694 75.0611 31.7061C74.9822 31.7182 74.9069 31.748 74.8411 31.7933C74.7752 31.8385 74.7204 31.8981 74.6808 31.9675C74.6412 32.0369 74.6178 32.1143 74.6122 32.194C74.3955 33.3081 74.2042 34.429 74.0082 35.5419C73.9745 35.6569 73.9822 35.7801 74.0299 35.89C74.0777 36 74.1625 36.0896 74.2695 36.1435C74.4944 36.2132 74.7286 36.2483 74.964 36.2478Z" fill="#D1D1D1"/>
<path d="M80.4068 37.9317C80.4975 38.3309 80.6613 38.5588 81.0137 38.5918C81.1643 38.5972 81.3129 38.5549 81.4381 38.471C81.5634 38.3871 81.659 38.2659 81.7113 38.1245L83.0783 35.7444C83.1254 35.6771 83.1671 35.6062 83.2032 35.5325C83.3198 35.2502 83.4189 34.9565 83.1937 34.6781C82.9684 34.3996 82.6893 34.4747 82.3457 34.5871C81.6331 35.6622 80.9856 36.7791 80.4068 37.9317Z" fill="#D1D1D1"/>
<path d="M60.9715 71.5764C60.8993 71.641 60.8377 71.7165 60.7889 71.8001L59.1848 74.6074C59.1346 74.6938 59.102 74.7893 59.089 74.8884C59.0644 75.0121 59.0804 75.1405 59.1346 75.2545C59.1888 75.3685 59.2782 75.4619 59.3897 75.521C59.4893 75.5862 59.6081 75.6154 59.7265 75.6038C59.845 75.5921 59.9558 75.5403 60.0407 75.4569C60.1404 75.3683 60.2256 75.2646 60.2934 75.1498L61.8554 72.4743C61.9474 72.3531 61.9954 72.2042 61.9916 72.0521C61.9878 71.8999 61.9323 71.7536 61.8343 71.6372C61.7124 71.5433 61.5656 71.4875 61.4121 71.4766C61.2586 71.4658 61.1053 71.5005 60.9715 71.5764Z" fill="#D1D1D1"/>
<path d="M53.1105 40.5876C53.1939 40.6819 53.2843 40.7699 53.3807 40.8509C54.075 41.439 54.7693 42.0271 55.4716 42.6106C55.6034 42.715 55.7415 42.8112 55.8851 42.8986C55.984 42.9776 56.109 43.0164 56.2353 43.0073C56.3615 42.9982 56.4797 42.9418 56.5662 42.8493C56.6659 42.7488 56.7312 42.6194 56.7527 42.4794C56.7743 42.3395 56.751 42.1964 56.6863 42.0705C56.6018 41.9457 56.498 41.8351 56.3788 41.7428C55.6312 41.0995 54.9114 40.5046 54.1697 39.8901C54.0584 39.7925 53.9326 39.7128 53.7968 39.6539C53.6868 39.5916 53.5583 39.5699 53.4339 39.5926C53.3095 39.6153 53.197 39.681 53.1161 39.7782C53.027 39.894 52.9783 40.0358 52.9773 40.1819C52.9762 40.3281 53.023 40.4706 53.1105 40.5876Z" fill="#D1D1D1"/>
<path d="M67.7953 32.0987C67.7225 31.9523 67.5994 31.8371 67.4485 31.7741C67.2977 31.7112 67.1292 31.7047 66.9739 31.7559C66.8407 31.8134 66.7321 31.9161 66.6674 32.046C66.6027 32.1758 66.586 32.3244 66.6203 32.4653C66.6787 32.8831 66.7753 33.3111 66.8511 33.7403L67.1895 35.5551C67.2137 35.7156 67.2697 35.8696 67.3543 36.0082C67.428 36.1112 67.5321 36.1885 67.652 36.2291C67.7719 36.2698 67.9016 36.2719 68.0227 36.235C68.1377 36.2059 68.239 36.1378 68.3094 36.0423C68.3797 35.9468 68.4147 35.8298 68.4084 35.7114C68.4142 35.5307 68.4034 35.3498 68.376 35.1711C68.2172 34.2631 68.055 33.3677 67.8882 32.4643C67.8506 32.3248 67.8326 32.1632 67.7953 32.0987Z" fill="#D1D1D1"/>
<path d="M93.1141 47.7628C93.2522 47.5931 93.3686 47.4067 93.4603 47.2081C93.4848 47.1399 93.4929 47.0669 93.4842 46.9949C93.4754 46.923 93.45 46.8541 93.4099 46.7937C93.3698 46.7334 93.3162 46.6832 93.2533 46.6472C93.1904 46.6112 93.12 46.5904 93.0476 46.5864C92.8348 46.5472 92.6159 46.5561 92.4069 46.6123C91.5122 46.9246 90.6315 47.2611 89.7508 47.5976C89.6131 47.6558 89.4831 47.7308 89.3638 47.821C89.2509 47.9083 89.1697 48.0302 89.1328 48.168C89.0959 48.3059 89.1052 48.452 89.1594 48.584C89.2215 48.7044 89.3217 48.8008 89.4444 48.8583C89.567 48.9158 89.7052 48.9312 89.8375 48.902C89.9822 48.8656 90.1244 48.8195 90.2629 48.7639L92.7577 47.8717L93.056 47.6995L93.1141 47.7628Z" fill="#D1D1D1"/>
<path d="M56.7515 67.8968C56.7721 67.73 56.7378 67.5612 56.6538 67.4157C56.5698 67.2702 56.4407 67.1561 56.286 67.0905C55.9612 67.0947 55.6512 67.2272 55.4239 67.4593C54.7325 68.0305 54.0503 68.6178 53.3763 69.2004L53.1992 69.3779C52.897 69.6922 52.8567 69.9949 53.0773 70.2653C53.2979 70.5356 53.6134 70.5793 54.0013 70.3016L54.6617 69.7698L56.5311 68.1853C56.6125 68.0954 56.6862 67.9989 56.7515 67.8968Z" fill="#D1D1D1"/>
<path d="M88.4683 39.7165L88.3554 39.7817L85.941 41.8744C85.8893 41.9142 85.8443 41.9619 85.8076 42.0159C85.7547 42.0642 85.712 42.1225 85.6818 42.1875C85.6517 42.2525 85.6348 42.3228 85.6321 42.3944C85.6294 42.466 85.641 42.5374 85.6662 42.6045C85.6913 42.6715 85.7296 42.7329 85.7787 42.785C85.8821 42.9091 86.0295 42.9883 86.1901 43.0059C86.3506 43.0235 86.5116 42.9781 86.6394 42.8794C86.841 42.763 86.9786 42.5545 87.1535 42.4106L88.9655 40.9129C89.0585 40.8409 89.1458 40.7617 89.2265 40.6762C89.3395 40.5762 89.4142 40.44 89.438 40.2911C89.4617 40.1421 89.4331 39.9894 89.3569 39.8592C89.2438 39.7431 89.0962 39.6665 88.9362 39.6408C88.7761 39.6151 88.612 39.6416 88.4683 39.7165Z" fill="#D1D1D1"/>
<path d="M53.3134 62.1098C53.3694 61.9229 53.3592 61.7225 53.2845 61.5424C53.2099 61.3622 53.0754 61.2133 52.9037 61.1208C52.765 61.1427 52.6275 61.1719 52.4919 61.2081C51.5026 61.5427 50.5053 61.8821 49.5173 62.2375C49.3368 62.3193 49.1806 62.4465 49.064 62.6067C48.9925 62.701 48.954 62.8161 48.9543 62.9344C48.9546 63.0526 48.9938 63.1676 49.0657 63.2614C49.124 63.3651 49.2178 63.4442 49.3298 63.4843C49.4418 63.5243 49.5645 63.5225 49.6752 63.4793C50.1296 63.3352 50.5746 63.175 51.0403 63.0136L52.4941 62.4968C52.7835 62.3835 53.0576 62.2252 53.3134 62.1098Z" fill="#D1D1D1"/>
<path d="M61.0616 38.5339C61.8451 38.662 62.1449 38.3062 61.8798 37.6423C61.7821 37.473 61.6796 37.2956 61.5772 37.1182C61.2235 36.5055 60.8651 35.8847 60.5067 35.2639C60.3979 35.0563 60.2645 34.8627 60.1092 34.6871C59.8551 34.4146 59.5778 34.3812 59.3546 34.5531C59.2233 34.6453 59.1334 34.7852 59.1039 34.9428C59.0744 35.1004 59.1077 35.2633 59.1967 35.3967C59.4387 35.816 59.6621 36.203 59.9182 36.6464C60.3033 37.2948 60.6917 37.9304 61.0616 38.5339Z" fill="#D1D1D1"/>
<path d="M147.742 147.594C147.661 148.189 147.414 148.749 147.03 149.21C145.961 150.575 144.74 151.814 143.389 152.902C142.39 153.759 141.337 154.56 140.282 155.341C136.774 157.868 133.1 160.158 129.287 162.195C126.827 163.546 124.282 164.735 121.668 165.755C120.534 166.194 119.407 166.662 118.248 167.02C117.309 167.288 116.356 167.501 115.392 167.658C114.948 167.726 114.5 167.759 114.051 167.756C113.682 167.758 113.325 167.629 113.045 167.391C112.673 167.1 112.393 167.1 112.159 167.364C112.039 167.496 111.974 167.668 111.979 167.846C111.983 168.024 112.056 168.193 112.183 168.318C112.509 168.661 112.943 168.881 113.413 168.941C114.375 169.068 115.352 169.011 116.293 168.772C117.549 168.518 118.783 168.165 119.983 167.716C121.176 167.232 122.395 166.829 123.579 166.329C124.608 165.896 125.585 165.353 126.613 164.899C129.838 163.404 132.956 161.687 135.943 159.76C137.29 158.928 138.541 157.948 139.879 157.1C141.217 156.253 142.309 155.332 143.506 154.426C144.215 153.874 144.893 153.282 145.535 152.653C146.072 152.149 146.574 151.623 147.084 151.092C147.724 150.456 148.258 149.722 148.668 148.919C148.794 148.649 148.886 148.365 148.943 148.073C149 147.874 149.017 147.666 148.992 147.46C148.967 147.255 148.901 147.057 148.798 146.878C148.694 146.698 148.556 146.542 148.39 146.418C148.225 146.293 148.036 146.204 147.835 146.154C147.351 146.003 146.845 145.932 146.337 145.944C144.887 146.041 143.458 146.342 142.091 146.837C140.936 147.256 139.748 147.62 138.608 148.084C137.285 148.623 135.974 149.218 134.689 149.842C133.242 150.538 131.832 151.298 130.412 152.042C130.129 152.17 129.859 152.326 129.606 152.508C129.486 152.586 129.4 152.707 129.366 152.846C129.333 152.986 129.354 153.133 129.426 153.257C129.57 153.507 129.818 153.6 130.171 153.45C130.525 153.299 130.978 152.984 131.449 152.777L134.646 151.221C135.308 150.839 136.019 150.525 136.717 150.208C138.592 149.338 140.519 148.585 142.487 147.952C143.498 147.61 144.54 147.369 145.597 147.231C146.046 147.176 146.498 147.156 146.949 147.171C147.106 147.169 147.261 147.206 147.4 147.281C147.539 147.355 147.656 147.463 147.742 147.594Z" fill="#D1D1D1"/>
<path d="M122.952 156.511C122.589 156.72 122.226 156.93 121.909 157.199C121.591 157.469 121.507 157.732 121.718 158.062C121.754 158.139 121.807 158.206 121.873 158.259C121.94 158.312 122.018 158.348 122.101 158.365C122.184 158.382 122.27 158.379 122.352 158.357C122.433 158.334 122.509 158.293 122.572 158.236C123.249 157.845 123.88 157.373 124.52 156.917C124.642 156.813 124.718 156.666 124.734 156.507C124.75 156.347 124.705 156.188 124.606 156.061C124.453 155.795 124.189 155.786 123.859 155.977L122.947 156.503L122.952 156.511Z" fill="#D1D1D1"/>
<path d="M116.075 163.33C116.327 163.077 116.672 162.781 116.953 162.447C117.002 162.395 117.041 162.334 117.066 162.267C117.092 162.2 117.104 162.129 117.102 162.057C117.099 161.985 117.083 161.915 117.053 161.849C117.023 161.784 116.98 161.726 116.927 161.677C116.824 161.565 116.681 161.496 116.529 161.484C116.377 161.472 116.226 161.519 116.106 161.614C115.783 161.872 115.477 162.153 115.193 162.453C115.078 162.553 115.008 162.694 114.997 162.845C114.985 162.996 115.034 163.146 115.133 163.262C115.256 163.384 115.418 163.458 115.591 163.47C115.764 163.483 115.936 163.433 116.075 163.33Z" fill="#D1D1D1"/>
<path d="M150.518 67.6483L148.616 69.5308C148.006 70.1305 147.408 70.7336 146.788 71.3172C146.168 71.9008 145.482 72.5551 144.817 73.1539C143.598 74.2447 142.396 75.3471 141.123 76.362C139.351 77.8363 137.678 79.4257 135.77 80.7206C134.83 81.3818 133.971 82.1466 133.049 82.84C132.446 83.285 131.797 83.6701 131.194 84.115C129.177 85.6238 127.05 86.9811 124.831 88.1756C124.61 88.3308 124.337 88.3922 124.07 88.3464C123.975 88.3326 123.885 88.2936 123.81 88.2336C123.735 88.1735 123.678 88.0945 123.643 88.0048C123.609 87.915 123.599 87.8178 123.615 87.723C123.631 87.6282 123.672 87.5394 123.734 87.4657C123.803 87.374 123.891 87.2977 123.991 87.2417C125.7 86.1048 127.435 84.9955 129.122 83.839C130.604 82.8186 132.07 81.7713 133.521 80.6971C134.443 80.0036 135.324 79.2584 136.192 78.5097C137.505 77.3757 138.827 76.2579 140.076 75.0526C141.2 73.9633 142.265 72.8108 143.278 71.6238C144.237 70.5125 145.133 69.349 145.964 68.1385C147.467 66.004 148.497 63.5732 148.985 61.0086C149.241 59.6933 149.245 58.3414 148.996 57.0248C148.775 55.6855 148.233 54.4199 147.415 53.3368C147.309 53.1797 147.214 53.0153 147.131 52.8449C147.072 52.8274 147.009 52.8222 146.948 52.8295C146.887 52.8368 146.827 52.8565 146.774 52.8874C146.72 52.9184 146.674 52.9598 146.637 53.0093C146.6 53.0588 146.573 53.1153 146.559 53.1754C145.094 56.4668 143.419 59.6602 141.543 62.7357C140.85 63.8992 140.177 65.0616 139.445 66.1941C138.43 67.7691 137.405 69.3278 136.329 70.8522C135.253 72.3766 134.058 73.9373 132.881 75.4552C131.913 76.702 130.942 77.9615 129.895 79.1463C128.513 80.7182 127.061 82.2443 125.618 83.7657C124.951 84.4731 124.192 85.1692 123.475 85.863C123.381 85.9713 123.258 86.0501 123.12 86.0894C122.983 86.1288 122.837 86.1272 122.7 86.0847C122.633 86.0717 122.57 86.0446 122.515 86.0051C122.459 85.9657 122.413 85.9148 122.379 85.856C122.345 85.7971 122.324 85.7317 122.318 85.664C122.311 85.5964 122.319 85.5281 122.341 85.4639C122.38 85.2667 122.471 85.0838 122.606 84.935C124.146 83.4152 125.605 81.8157 126.977 80.1431C128.292 78.5668 129.634 77.0182 130.91 75.4109C132.452 73.4457 133.973 71.4066 135.304 69.3372C136.522 67.4623 137.658 65.5382 138.694 63.5532C140.455 60.287 141.71 56.7717 142.414 53.1281C142.731 51.3687 142.781 49.5715 142.561 47.7973C142.434 46.707 142.176 45.6358 141.794 44.6068C141.239 43.0986 140.398 41.7116 139.318 40.522C138.369 39.5226 137.299 38.6453 136.133 37.9104C136.068 37.9476 136 37.9225 135.968 37.9411C135.887 37.9809 135.809 38.026 135.734 38.0761L135.7 38.2033C135.629 39.3837 135.604 40.5697 135.474 41.7412C135.279 43.563 135.055 45.3908 134.755 47.1981C134.396 49.3509 134.007 51.4889 133.54 53.6399C132.95 56.4531 132.19 59.2139 131.324 61.9602C130.525 64.4856 129.637 66.9872 128.645 69.4408C127.654 71.8943 126.488 74.4375 125.236 76.8484C124.269 78.7291 123.186 80.5584 122.08 82.3681C121.322 83.6232 120.454 84.8014 119.63 86.0187C119.473 86.2491 119.286 86.4648 119.065 86.7533C119.158 86.9504 119.267 87.1392 119.391 87.3176C120.307 88.3164 120.946 89.5377 121.243 90.8601C121.593 92.3305 121.464 93.8743 120.874 95.2658C120.535 96.0844 120.05 96.8344 119.442 97.4788C118.746 98.2447 117.917 98.8768 116.993 99.3442C116.896 99.4114 116.794 99.4706 116.687 99.5211C116.319 99.6474 116.025 99.5483 115.913 99.2798C115.853 99.125 115.85 98.9534 115.906 98.7967C115.961 98.6401 116.072 98.5089 116.217 98.4274L117.555 97.6547C118.577 96.9703 119.348 95.9706 119.749 94.8078C120.162 93.8975 120.332 92.8957 120.241 91.9002C120.151 90.9047 119.803 89.9498 119.233 89.1289C118.98 88.7208 118.703 88.328 118.403 87.9525C118.162 87.7047 117.898 87.479 117.616 87.2782C117.477 86.907 117.679 86.6613 117.872 86.3994C118.799 85.1009 119.774 83.8287 120.645 82.4877C122.003 80.4129 123.241 78.2623 124.354 76.0463C125.114 74.5326 125.841 73.0374 126.506 71.471C127.325 69.5367 128.075 67.5773 128.833 65.6132C129.806 63.0732 130.562 60.4543 131.277 57.838C132.074 54.9485 132.725 52.0357 133.23 49.0998C133.828 45.648 134.282 42.1714 134.539 38.6692C134.576 38.0998 134.606 37.5558 134.643 36.9863C134.679 36.4169 135.021 36.0586 135.658 36.3998C136.556 36.8416 137.413 37.3609 138.221 37.9519C139.779 39.1099 141.07 40.5901 142.006 42.2918C142.651 43.4621 143.141 44.7113 143.463 46.0081C144.068 48.5811 144.112 51.2542 143.592 53.8457C143.348 55.0615 142.942 56.2954 142.602 57.5128C142.528 57.8134 142.37 58.0982 142.437 58.4362C142.751 58.459 142.815 58.2174 142.927 58.0564C143.124 57.6525 143.29 57.2338 143.495 56.8252L145.948 51.7648C146.072 51.5321 146.23 51.3224 146.34 51.1407C146.492 51.0786 146.658 51.0637 146.818 51.098C146.978 51.1323 147.124 51.2142 147.236 51.333C148.202 52.2617 148.974 53.3719 149.509 54.5999C150.097 55.9669 150.412 57.4357 150.436 58.9237C150.409 61.3173 149.845 63.6742 148.786 65.8211C148.324 66.8423 147.75 67.8085 147.073 68.7017C146.913 68.9435 146.772 69.1974 146.652 69.461L146.717 69.5739C146.832 69.5699 146.945 69.5448 147.05 69.4997C147.254 69.3551 147.444 69.1915 147.617 69.011L149.738 66.8942C149.947 66.6774 150.128 66.4329 150.341 66.2242C150.735 65.846 151.05 65.8145 151.372 66.3165C152.121 67.41 152.581 68.675 152.711 69.9941C152.864 72.4174 152.137 74.8146 150.663 76.7444C149.421 78.4438 147.929 79.9464 146.239 81.2017C144.897 82.2502 143.463 83.1752 141.954 83.9655C141.822 84.0064 141.705 84.0858 141.618 84.1935C141.531 84.3012 141.478 84.4324 141.465 84.5704C141.657 84.5598 141.847 84.526 142.031 84.4698L144.806 83.3189L149.751 81.2703C150.081 81.0795 150.412 80.8886 150.784 80.7703C150.867 80.719 150.96 80.6882 151.057 80.6807C151.154 80.6732 151.251 80.6891 151.341 80.7271C151.43 80.7651 151.509 80.8241 151.571 80.899C151.633 80.974 151.675 81.0627 151.696 81.1577C151.763 81.3633 151.799 81.5774 151.805 81.7935C151.842 83.3765 151.336 84.9245 150.371 86.1797C149.157 87.7405 147.604 89.0046 145.829 89.8765C145.305 90.1791 144.761 90.4286 144.213 90.6701C143.797 90.8402 143.373 90.9881 142.942 91.1134C142.53 91.2549 142.106 91.3596 141.693 91.5011C141.542 91.5726 141.396 91.6567 141.258 91.7525C141.5 92.0216 141.742 91.957 141.961 91.9272C142.958 91.7923 143.881 91.6785 144.837 91.546L146.917 91.2585C147.048 91.234 147.18 91.226 147.312 91.2348C147.407 91.2255 147.503 91.2421 147.59 91.2828C147.676 91.3236 147.75 91.3869 147.804 91.4662C147.857 91.5454 147.888 91.6376 147.894 91.7331C147.899 91.8285 147.878 91.9236 147.834 92.0084C147.715 92.3923 147.548 92.7596 147.337 93.1018C146.707 94.144 145.905 95.0721 144.966 95.8468C144.323 96.4294 143.625 96.9477 142.881 97.3941C141.566 98.0885 140.158 98.5902 138.7 98.8838C137.925 98.9931 137.145 99.0525 136.362 99.0617C136.155 99.0741 135.935 99.0289 135.773 99.2513C135.936 99.5335 136.249 99.5356 136.494 99.5876C137.638 99.8192 138.789 100.025 139.937 100.244L140.085 100.277C140.741 100.446 140.92 100.924 140.441 101.415C140.056 101.805 139.626 102.148 139.159 102.435C138.053 103.191 136.798 103.703 135.479 103.936C134.791 104.041 134.096 104.083 133.401 104.061C131.158 103.938 128.987 103.231 127.101 102.012C125.584 101.038 124.177 99.9047 122.902 98.6308C122.597 98.3447 122.32 98.0318 122.031 97.7364C121.962 97.6805 121.905 97.611 121.865 97.5321C121.824 97.4533 121.8 97.3668 121.794 97.2781C121.788 97.1895 121.801 97.1006 121.831 97.0172C121.862 96.9337 121.909 96.8575 121.97 96.7933C122.211 96.5578 122.521 96.5933 122.852 96.8863C123.998 97.9228 125.091 99.0333 126.316 99.9817C128.212 101.54 130.521 102.511 132.961 102.778C134.41 102.973 135.883 102.732 137.195 102.086C137.468 101.962 137.75 101.86 138.04 101.78C138.098 101.768 138.154 101.744 138.203 101.71C138.252 101.676 138.294 101.633 138.326 101.582C138.358 101.531 138.379 101.475 138.389 101.416C138.399 101.357 138.396 101.297 138.382 101.239C138.202 101.156 138.014 101.092 137.82 101.047C135.244 100.607 132.719 99.9035 130.287 98.9467C128.805 98.3725 127.343 97.7762 125.91 97.1741C125.087 96.8105 124.345 96.3254 123.515 95.9122C123.379 95.8204 123.267 95.6969 123.189 95.5523C123.126 95.4626 123.092 95.3554 123.092 95.2456C123.092 95.1357 123.126 95.0287 123.19 94.9391C123.261 94.8441 123.359 94.7729 123.471 94.7348C123.584 94.6968 123.705 94.6938 123.819 94.7261C123.982 94.7667 124.14 94.8228 124.292 94.8938C126.948 96.1695 129.767 97.0739 132.67 97.5816C134.622 97.9514 136.624 97.971 138.583 97.6396C140.016 97.4052 141.391 96.8965 142.631 96.1412C143.632 95.5064 144.533 94.7255 145.303 93.8245L145.812 93.2726C145.855 93.233 145.89 93.1849 145.913 93.1313C145.936 93.0776 145.948 93.0196 145.948 92.9611C145.948 92.9026 145.935 92.8448 145.911 92.7915C145.887 92.7381 145.852 92.6904 145.808 92.6514C145.692 92.6475 145.575 92.6503 145.458 92.6599C144.018 92.8464 142.585 93.0826 141.142 93.2276C139.116 93.441 137.066 93.614 135.063 93.7384C132.506 93.931 129.941 93.9763 127.38 93.8743C126.397 93.829 125.427 93.7121 124.442 93.646C124.334 93.6333 124.232 93.5912 124.146 93.5243C124.06 93.4574 123.994 93.3683 123.956 93.2666C123.917 93.1649 123.907 93.0545 123.926 92.9475C123.946 92.8404 123.994 92.7407 124.066 92.6593C124.179 92.5242 124.336 92.4335 124.51 92.4033C126.008 92.355 127.515 92.3772 129.011 92.2874C130.752 92.1745 132.497 91.9947 134.233 91.7988C135.471 91.6535 136.698 91.4506 137.941 91.2384C139.526 90.9586 141.085 90.5441 142.6 89.9994C144.064 89.5352 145.457 88.872 146.74 88.0284C148.069 87.1813 149.161 86.0107 149.914 84.6263C150.171 84.0663 150.392 83.4902 150.574 82.9017C150.592 82.8166 150.589 82.7284 150.565 82.6447C150.542 82.5611 150.497 82.4846 150.437 82.422C150.386 82.3333 150.125 82.3657 149.987 82.424C148.462 83.0786 146.94 83.7747 145.401 84.4051C143.443 85.2025 141.47 85.9757 139.501 86.7362C137.533 87.4967 135.63 88.1114 133.678 88.7332C131.726 89.355 129.738 89.9331 127.73 90.4582C126.807 90.7222 125.852 90.9296 124.901 91.1452C124.708 91.1943 124.507 91.212 124.308 91.1975C124.182 91.1851 124.063 91.1315 123.971 91.0451C123.878 90.9587 123.817 90.8443 123.795 90.7194C123.765 90.6044 123.777 90.482 123.831 90.3757C123.884 90.2694 123.975 90.1865 124.086 90.1431C124.341 90.0214 124.604 89.9165 124.872 89.8289C126.61 89.245 128.337 88.6242 130.091 88.106C131.603 87.6524 132.999 86.943 134.485 86.4075C135.158 86.1585 135.792 85.8035 136.456 85.5385C138.817 84.5261 141.094 83.3267 143.264 81.9516C144.624 81.0999 145.905 80.1268 147.089 79.0444C147.974 78.2861 148.771 77.4325 149.468 76.4991C150.881 74.7745 151.628 72.5999 151.574 70.371C151.484 69.6103 151.327 68.8591 151.105 68.126C151.124 68.049 151.121 67.9681 151.096 67.8929C151.07 67.8177 151.024 67.7512 150.963 67.7012C150.901 67.6511 150.827 67.6196 150.748 67.6102C150.669 67.6008 150.589 67.614 150.518 67.6483Z" fill="#D1D1D1"/>
<path d="M148.34 119.751C148.448 119.84 148.516 119.968 148.529 120.107C148.543 120.246 148.502 120.385 148.414 120.493C148.332 120.6 148.217 120.677 148.087 120.711C147.957 120.745 147.819 120.735 147.695 120.682L140.688 118.805C139.277 118.427 137.856 118.032 136.44 117.646C136.329 117.617 136.22 117.579 136.116 117.532C136.01 117.499 135.921 117.428 135.865 117.332C135.81 117.237 135.793 117.124 135.818 117.016C135.835 116.899 135.894 116.792 135.983 116.715C136.073 116.637 136.187 116.595 136.306 116.595C136.472 116.599 136.636 116.627 136.794 116.678L146.21 119.208C146.938 119.389 147.645 119.572 148.34 119.751Z" fill="#D1D1D1"/>
<path d="M131.69 65.2748C131.396 65.1006 131.457 64.8717 131.544 64.6496C132.693 61.5881 133.638 58.4535 134.371 55.2665C135.168 51.9545 135.741 48.5926 136.086 45.2037C136.229 43.8313 136.3 42.4464 136.392 41.0604C136.41 40.8675 136.381 40.669 136.382 40.4646C136.382 40.2602 136.398 40.1758 136.724 39.9769C137.016 40.0553 137.026 40.2966 137.035 40.5171C136.929 41.879 136.849 43.2477 136.705 44.5993C136.541 46.1774 136.377 47.7554 136.129 49.3177C135.881 50.88 135.54 52.6355 135.188 54.2791C134.836 55.9227 134.456 57.3677 134.021 58.8869C133.587 60.4062 133.039 62.0448 132.549 63.6174C132.425 63.9794 132.326 64.3482 132.215 64.7136C132.103 65.079 132.066 65.2188 131.69 65.2748Z" fill="#D1D1D1"/>
<path d="M112.564 58.9027L113.213 58.9472C113.323 59.0294 113.399 59.1471 113.431 59.28C113.463 59.4128 113.447 59.5526 113.386 59.675L112.023 64.7618L110.699 69.7295L110.304 71.1296C110.285 71.2026 110.251 71.2711 110.206 71.3311C110.16 71.3911 110.103 71.4415 110.038 71.4792C109.972 71.5169 109.9 71.5411 109.826 71.5507C109.751 71.5602 109.675 71.5547 109.602 71.5346C109.306 71.4689 109.193 71.2546 109.299 70.8604C109.753 69.1648 110.208 67.4692 110.662 65.7736L112.332 59.5423C112.38 59.31 112.442 59.1562 112.564 58.9027Z" fill="#D1D1D1"/>
<path d="M146.645 55.4476C147.066 55.5808 147.168 55.7582 147.003 56.0684C146.08 57.8589 145.175 59.6608 144.209 61.4329C143.345 63.0072 142.456 64.5954 141.514 66.0742C140.416 67.7834 139.269 69.5205 138.101 71.1839C137.987 71.2774 137.859 71.3513 137.722 71.4027C137.424 71.0911 137.544 70.8712 137.701 70.6407C138.752 69.1095 139.829 67.6058 140.82 66.0449C141.811 64.4839 142.749 62.8886 143.645 61.2749C144.541 59.6613 145.322 58.0169 146.187 56.3676C146.276 56.1871 146.323 55.9883 146.412 55.8078C146.481 55.6824 146.559 55.5621 146.645 55.4476Z" fill="#D1D1D1"/>
<path d="M150.21 69.685C150.305 69.9421 150.166 70.1298 149.997 70.3026L149.514 70.8071L146.924 73.3775C146.306 73.9818 145.696 74.6023 145.051 75.1791C144.406 75.7558 143.541 76.4917 142.787 77.1417C142.522 77.3704 142.265 77.6152 142.012 77.8472C141.759 78.0793 141.648 78.1653 141.395 77.9885C141.255 77.7467 141.407 77.5625 141.569 77.4151L142.606 76.5479C143.437 75.8098 144.272 75.059 145.094 74.3048C145.542 73.9067 145.972 73.4971 146.41 73.083C146.981 72.5273 147.57 71.9831 148.132 71.4114C148.694 70.8396 149.061 70.413 149.505 69.8984C149.745 69.5878 149.831 69.5493 150.21 69.685Z" fill="#D1D1D1"/>
<path d="M115.068 52.7383C115.098 52.9693 115.1 53.2032 115.072 53.4346C114.735 54.7255 114.381 56.0231 114.009 57.3272C113.996 57.3979 113.968 57.465 113.927 57.5237C113.886 57.5825 113.832 57.6315 113.77 57.6674C113.708 57.7033 113.638 57.7252 113.567 57.7316C113.495 57.738 113.423 57.7286 113.356 57.7043C113.281 57.6919 113.21 57.6631 113.148 57.6201C113.086 57.577 113.034 57.5207 112.996 57.4551C112.958 57.3896 112.935 57.3165 112.929 57.2411C112.923 57.1656 112.933 57.0898 112.96 57.019L114.025 53.0178C114.087 52.7889 114.198 52.5528 114.472 52.5447C114.68 52.5786 114.88 52.6439 115.068 52.7383Z" fill="#D1D1D1"/>
<path d="M154.832 121.593C154.829 121.799 154.8 122.005 154.744 122.203C154.7 122.295 154.624 122.368 154.531 122.408C154.437 122.448 154.332 122.453 154.235 122.421C153.851 122.332 153.458 122.247 153.071 122.137C152.153 121.886 151.24 121.628 150.335 121.363C150.171 121.327 150.018 121.253 149.888 121.147C149.778 121.013 149.722 120.842 149.73 120.669C149.736 120.566 149.783 120.469 149.86 120.401C149.937 120.332 150.039 120.297 150.142 120.302C150.29 120.305 150.438 120.329 150.58 120.372C151.824 120.664 152.995 120.998 154.207 121.33C154.422 121.403 154.63 121.491 154.832 121.593Z" fill="#D1D1D1"/>
<path d="M148.946 84.1964C148.863 84.3245 148.754 84.4345 148.628 84.52C147.657 84.962 146.684 85.4167 145.698 85.8137C144.123 86.4546 142.532 87.0506 140.95 87.6627C140.526 87.8216 140.475 87.808 140.298 87.4266C140.346 87.1942 140.54 87.1576 140.732 87.0794L144.268 85.7577C145.03 85.4575 145.797 85.1654 146.545 84.8411C147.093 84.5996 147.614 84.3098 148.161 84.0475C148.537 83.8415 148.631 83.8734 148.946 84.1964Z" fill="#D1D1D1"/>
<path d="M143.712 93.7112C143.754 94.1383 143.678 94.268 143.347 94.3087C141.889 94.4838 140.44 94.6542 138.981 94.8085C138.098 94.899 137.222 94.9641 136.342 95.0419C136.043 95.064 135.738 95.1116 135.578 94.7416C135.677 94.4479 135.92 94.4584 136.134 94.4205C137.914 94.2636 139.69 94.1194 141.469 93.9417C142.058 93.8814 142.646 93.746 143.241 93.6602C143.4 93.6597 143.557 93.6769 143.712 93.7112Z" fill="#D1D1D1"/>
<path d="M136.001 101.636C135.863 101.92 135.597 101.869 135.366 101.841C134.544 101.628 133.718 101.427 132.859 101.224C132.363 101.091 131.866 100.937 131.373 100.792C130.881 100.646 130.946 100.554 131.143 100.15C131.268 100.143 131.394 100.154 131.516 100.182C132.848 100.661 134.215 101.036 135.605 101.305C135.857 101.332 135.862 101.34 136.001 101.636Z" fill="#D1D1D1"/>
<path d="M129.564 69.9325C129.598 69.731 129.649 69.5327 129.716 69.3393L130.889 66.5113C131.018 66.4368 131.199 66.3968 131.501 66.6957C131.424 66.8085 131.356 66.9269 131.297 67.05L130.269 69.6649C130.114 69.9913 130.057 70.0239 129.564 69.9325Z" fill="#D1D1D1"/>
<path d="M136.664 72.8842C136.604 73.0774 136.524 73.2639 136.426 73.4408L135.181 75.009C135.057 75.1667 134.963 75.3392 134.852 75.5003C134.74 75.6613 134.564 75.7845 134.162 75.6084C134.216 75.4296 134.289 75.2574 134.381 75.0946C134.757 74.609 135.162 74.1383 135.538 73.6527C135.681 73.473 135.798 73.2658 135.924 73.0746C136.051 72.8835 136.174 72.7801 136.664 72.8842Z" fill="#D1D1D1"/>
<path d="M139.923 79.1403C140.036 79.4297 139.861 79.5737 139.69 79.705L137.655 81.2456C137.477 81.348 137.308 81.4458 137.099 81.3081C136.891 81.1704 137.11 80.8611 137.325 80.6938L139.228 79.2404C139.449 79.102 139.658 78.9602 139.923 79.1403Z" fill="#D1D1D1"/>
<path d="M157.111 122.244C157.227 122.225 157.346 122.218 157.464 122.223C157.822 122.294 158.175 122.384 158.523 122.493C158.588 122.509 158.65 122.538 158.704 122.578C158.757 122.618 158.802 122.669 158.836 122.727C158.87 122.785 158.891 122.849 158.899 122.916C158.907 122.983 158.901 123.05 158.882 123.114C158.87 123.184 158.842 123.251 158.802 123.309C158.761 123.368 158.708 123.416 158.646 123.452C158.585 123.488 158.516 123.509 158.445 123.515C158.374 123.521 158.303 123.512 158.236 123.487C157.913 123.414 157.594 123.321 157.281 123.21C157.177 123.176 157.089 123.104 157.034 123.009C156.979 122.914 156.961 122.802 156.983 122.694C157.012 122.541 157.054 122.39 157.111 122.244Z" fill="#D1D1D1"/>
<path d="M115.492 50.4941C114.915 50.3327 114.822 50.1714 114.994 49.6313C115.055 49.4023 115.1 49.1827 115.174 48.9571C115.193 48.8847 115.225 48.8168 115.27 48.7573C115.315 48.6977 115.372 48.6478 115.436 48.6105C115.501 48.5732 115.573 48.5492 115.647 48.5399C115.721 48.5307 115.796 48.5364 115.868 48.5567C115.937 48.5721 116.002 48.6018 116.059 48.6438C116.117 48.6857 116.164 48.7391 116.2 48.8005C116.235 48.8619 116.258 48.93 116.265 49.0004C116.273 49.0709 116.266 49.1422 116.245 49.2099C116.191 49.4885 116.119 49.7556 116.039 50.0274C116.018 50.1572 115.951 50.2753 115.851 50.3607C115.751 50.4461 115.623 50.4933 115.492 50.4941Z" fill="#D1D1D1"/>
<path d="M137.111 88.7393C137.023 88.3817 137.245 88.264 137.47 88.1879C137.907 88.0324 138.365 87.8756 138.8 87.7535C139.235 87.6315 139.235 87.7066 139.382 88.0732C139.321 88.3022 139.127 88.3388 138.93 88.3882C138.556 88.4857 138.192 88.5994 137.827 88.7131C137.463 88.8267 137.373 88.9322 137.111 88.7393Z" fill="#D1D1D1"/>
<path d="M135.268 89.0294L135.336 89.4633C135.035 89.5704 134.728 89.6612 134.418 89.7354C134.313 89.7959 134.14 89.6269 133.999 89.5686C134.184 89.1069 134.554 88.9471 135.268 89.0294Z" fill="#D1D1D1"/>
<path d="M131.953 94.8135C132.038 94.7204 132.14 94.6455 132.255 94.5931C132.369 94.5407 132.493 94.5119 132.619 94.5087C132.744 94.5054 132.869 94.5276 132.986 94.574C133.103 94.6205 133.209 94.6901 133.299 94.7787C133.314 94.8267 133.316 94.8777 133.306 94.9269C133.296 94.9761 133.273 95.022 133.24 95.0601C133.208 95.0983 133.166 95.1276 133.119 95.1453C133.072 95.163 133.021 95.1685 132.971 95.1613C132.626 95.1778 132.205 95.249 131.953 94.8135Z" fill="#D1D1D1"/>
<path d="M131.28 79.2177C131.268 78.5467 131.548 78.192 132.09 78.1261C132.139 78.1519 132.18 78.19 132.209 78.2366C132.239 78.2831 132.256 78.3366 132.258 78.3916C132.261 78.4467 132.249 78.5014 132.223 78.5504C132.198 78.5994 132.161 78.6411 132.114 78.6711C131.873 78.8859 131.807 79.3863 131.28 79.2177Z" fill="#D1D1D1"/>
<path d="M128.237 72.9225C128.291 72.9323 128.342 72.9549 128.386 72.9883C128.429 73.0217 128.464 73.065 128.487 73.1146C128.511 73.1642 128.522 73.2186 128.52 73.2734C128.518 73.3282 128.503 73.3818 128.476 73.4296C128.413 73.663 128.293 73.8768 128.126 74.0514C127.956 74.1492 127.777 74.0807 127.67 73.8201C127.801 73.5077 127.83 73.093 128.237 72.9225Z" fill="#D1D1D1"/>
<path d="M128.214 99.2293C128.454 98.9187 128.753 99.101 129.017 99.1853C129.073 99.1981 129.126 99.2224 129.172 99.2566C129.219 99.2909 129.258 99.3344 129.286 99.3844C129.315 99.4343 129.333 99.4897 129.34 99.547C129.346 99.6044 129.341 99.6624 129.324 99.7176C129.222 99.776 129.107 99.8097 128.989 99.8159C128.871 99.822 128.754 99.8005 128.646 99.7531C128.538 99.7056 128.443 99.6335 128.368 99.5425C128.293 99.4515 128.24 99.3443 128.214 99.2293Z" fill="#D1D1D1"/>
<path d="M133.519 83.7293C133.529 83.6099 133.566 83.4942 133.627 83.3912C133.688 83.2882 133.773 83.2007 133.873 83.1354C133.974 83.0701 134.088 83.0288 134.207 83.0146C134.326 83.0004 134.446 83.0138 134.559 83.0537C134.75 83.3843 134.451 83.5358 134.223 83.6996C133.995 83.8635 133.788 84.0261 133.519 83.7293Z" fill="#D1D1D1"/>
<path d="M31.3446 119.608L31.6611 120.156C32.2907 121.451 33.1859 122.597 34.2885 123.522C35.3911 124.447 36.6762 125.129 38.0601 125.524C40.1366 126.176 42.3128 126.452 44.4863 126.339C45.6927 126.288 46.9056 126.136 48.1152 125.996C50.1986 125.733 52.2554 125.29 54.2627 124.672C56.0086 124.159 57.7148 123.539 59.435 122.944C60.4357 122.592 61.4386 122.206 62.4195 121.801C63.4003 121.396 64.5378 120.89 65.576 120.398C67.5033 119.479 69.4256 118.545 71.3428 117.595C71.754 117.358 72.149 117.13 72.6204 116.922C72.7014 116.864 72.7878 116.814 72.8784 116.773C73.0095 116.717 73.1555 116.705 73.294 116.74C73.4324 116.774 73.5557 116.853 73.6448 116.965C73.7307 117.093 73.7638 117.249 73.7372 117.401C73.7105 117.552 73.6262 117.688 73.5018 117.779C73.0507 118.114 72.5635 118.406 72.0763 118.698C70.3143 119.721 68.4953 120.642 66.628 121.457C65.5114 121.962 64.4065 122.524 63.2759 123.005C61.7868 123.628 60.2697 124.203 58.7573 124.786C57.547 125.259 56.3307 125.704 55.1111 126.16C54.6131 126.34 54.0976 126.509 53.5903 126.673C51.9622 127.204 50.3307 127.749 48.6968 128.251C46.8702 128.811 45.087 129.26 43.3181 129.809C43.1048 129.867 42.8843 129.876 42.6755 129.943C42.5515 130.02 42.4392 130.113 42.3419 130.222C42.5079 130.416 42.6392 130.588 42.7738 130.746C43.5314 131.608 44.4679 132.293 45.5179 132.754C46.5678 133.216 47.7059 133.442 48.8526 133.418C51.0763 133.398 53.276 132.956 55.3351 132.115C57.681 131.196 59.9273 130.039 62.0389 128.664C63.1354 128.031 64.1121 127.209 65.1353 126.468C65.7511 126.026 66.3682 125.606 66.962 125.145C68.3452 124.077 69.7458 123.021 71.0337 121.826C72.3217 120.631 73.5157 119.609 74.7671 118.499C74.9244 118.376 75.098 118.276 75.2831 118.201C75.3779 118.165 75.4809 118.156 75.5804 118.176C75.6799 118.196 75.7719 118.243 75.8457 118.313C75.9195 118.382 75.9722 118.471 75.9978 118.57C76.0234 118.668 76.0208 118.771 75.9904 118.868C75.9022 119.066 75.7821 119.248 75.6348 119.406C75.0086 120.09 74.3742 120.779 73.7132 121.44C72.7809 122.376 71.8613 123.316 70.8977 124.216C69.5384 125.474 68.1432 126.688 66.7653 127.913C66.0615 128.556 65.314 129.235 64.5593 129.864C63.5699 130.683 62.5538 131.474 61.5504 132.268C60.547 133.062 59.4562 133.928 58.3952 134.735C57.4699 135.441 56.518 136.119 55.5754 136.814L55.2932 136.977C55.2046 137.308 55.3783 137.422 55.6004 137.509C57.0337 137.939 58.5606 137.946 59.9976 137.529C61.6755 137.058 63.2351 136.238 64.5746 135.123C65.2877 134.496 66.0288 133.918 66.7419 133.291C67.2252 132.869 67.6828 132.418 68.1123 131.941C69.2706 130.67 70.364 129.361 71.4168 128.001C72.99 125.929 74.4576 123.78 75.8142 121.56C76.2246 120.893 76.6049 120.211 77.0405 119.476C77.2199 119.452 77.4016 119.448 77.582 119.465C77.6673 119.466 77.7509 119.489 77.8245 119.533C77.8981 119.576 77.9592 119.637 78.0019 119.711C78.0446 119.785 78.0674 119.869 78.068 119.954C78.0686 120.04 78.0471 120.124 78.0055 120.198C77.7491 120.885 77.4552 121.557 77.1254 122.211C76.1735 123.933 75.2216 125.654 74.1875 127.326C73.0043 129.224 71.7596 131.071 70.4895 132.912C69.6761 134.091 68.7839 135.208 67.9183 136.353L66.4569 138.271C66.4649 138.329 66.4857 138.383 66.5179 138.431C66.55 138.479 66.5927 138.52 66.6427 138.549C66.6926 138.578 66.7486 138.595 66.8062 138.6C66.8639 138.604 66.9218 138.595 66.9756 138.574C67.7946 138.432 68.6049 138.245 69.4026 138.011C70.6837 137.567 71.8685 136.883 72.8936 135.996C74.6082 134.475 75.9626 132.591 76.8585 130.482C77.6753 128.577 78.2708 126.585 78.6334 124.544C78.8839 123.228 79.0026 121.869 79.1687 120.537C79.2346 120.037 79.446 119.807 79.8446 119.846C79.9282 119.852 80.01 119.874 80.0848 119.912C80.1597 119.95 80.2262 120.002 80.2802 120.066C80.3343 120.13 80.3749 120.205 80.3996 120.285C80.4242 120.365 80.4325 120.449 80.4238 120.533C80.4484 121.068 80.4458 121.604 80.416 122.139C80.2768 124.602 79.9554 127.051 79.4544 129.467C79.0871 131.299 78.6007 133.106 77.9982 134.876C77.9241 135.101 77.8072 135.309 77.7158 135.523C77.6244 135.737 77.5249 135.955 77.7464 136.171C77.9679 136.388 78.2113 136.064 78.4162 135.935C79.5483 135.223 80.4997 134.258 81.1958 133.116C81.5709 132.487 81.8736 131.819 82.098 131.122C82.8233 128.799 82.9336 126.328 82.4182 123.95C82.1983 122.787 81.8837 121.646 81.6107 120.503C81.5107 120.088 81.6031 119.82 81.9178 119.713C81.9948 119.677 82.0789 119.659 82.1639 119.66C82.2489 119.66 82.3326 119.68 82.4089 119.718C82.4852 119.755 82.5521 119.809 82.6047 119.876C82.6573 119.943 82.6943 120.021 82.7129 120.103C82.984 120.912 83.2143 121.733 83.4028 122.565C83.7788 124.174 83.9617 125.822 83.9477 127.474C83.9552 129.586 83.424 131.665 82.4042 133.515C81.2409 135.462 79.4638 136.968 77.3518 137.797C77.1027 137.893 76.8441 137.963 76.5802 138.006C76.4783 138.038 76.3694 138.04 76.2661 138.013C76.1628 137.986 76.0692 137.93 75.9962 137.852C75.9231 137.774 75.8735 137.677 75.853 137.572C75.8326 137.468 75.8422 137.359 75.8806 137.259C75.9701 136.874 76.1232 136.507 76.2866 136.101C76.584 135.219 76.8815 134.338 77.1696 133.441C77.2097 133.269 77.2382 133.094 77.255 132.919C77.2024 132.904 77.1474 132.9 77.0932 132.906C77.0389 132.913 76.9866 132.931 76.9392 132.958C76.8919 132.985 76.8505 133.022 76.8175 133.066C76.7845 133.109 76.7606 133.159 76.7471 133.212C76.2451 134.272 75.5346 135.219 74.658 135.998C73.4235 137.248 71.9404 138.225 70.3047 138.866C69.1234 139.323 67.8849 139.615 66.6239 139.734C66.0458 139.752 65.4671 139.727 64.8927 139.658C64.7629 139.651 64.6397 139.599 64.545 139.51C64.4504 139.421 64.3903 139.301 64.3755 139.172C64.4791 138.931 64.6048 138.7 64.7512 138.482C65.7718 137.14 66.8144 135.818 67.8235 134.494C67.9751 134.31 68.122 134.117 67.8391 133.851C67.6963 133.954 67.5596 134.065 67.4295 134.184C66.4013 135.283 65.2168 136.223 63.9143 136.977C62.5581 137.869 61.0523 138.509 59.469 138.866C57.7578 139.234 55.9724 139.01 54.405 138.231C54.1504 138.105 53.9136 137.945 53.7009 137.757C53.2489 137.383 53.2757 136.927 53.7836 136.634L58.6517 132.963L61.0191 131.199C61.3025 131.023 61.5292 130.769 61.6717 130.467C61.5274 130.452 61.3817 130.456 61.2387 130.481C60.9578 130.614 60.6882 130.769 60.4325 130.946C58.2851 132.273 55.9649 133.298 53.5375 133.992C51.3686 134.701 49.0567 134.857 46.8121 134.445C45.3022 134.185 43.895 133.509 42.7492 132.491C42.0376 131.835 41.4426 131.063 40.9897 130.207C40.897 130.008 40.8151 129.804 40.7445 129.596C40.8331 129.433 40.9603 129.295 41.1148 129.192C41.2693 129.09 41.4465 129.027 41.631 129.009L45.3819 128.058C45.5163 128.046 45.6466 128.005 45.7635 127.937C45.8805 127.87 45.9813 127.778 46.0591 127.667C45.9195 127.425 45.6714 127.461 45.4716 127.469C45.2719 127.477 44.8368 127.524 44.5251 127.542C41.678 127.784 38.8158 127.308 36.2004 126.157C34.7596 125.562 33.4833 124.628 32.4793 123.436C32.0962 122.958 31.6807 122.499 31.2985 121.967C30.6973 121.005 30.2475 119.956 29.9648 118.857C29.9239 118.762 29.9078 118.659 29.9181 118.556C29.9284 118.454 29.9647 118.356 30.0235 118.271C30.0823 118.187 30.1618 118.118 30.2543 118.073C30.3468 118.028 30.4494 118.007 30.5522 118.012C30.9055 117.991 31.2544 118.037 31.6377 118.031L37.2235 118.396L38.1627 118.477C38.298 118.466 38.4319 118.443 38.5631 118.408L38.5878 118.264C38.4501 118.17 38.3012 118.094 38.1446 118.036C37.666 117.915 37.1759 117.811 36.6858 117.707C34.169 117.187 31.7732 116.196 29.6245 114.786C27.6921 113.55 26.0697 111.886 24.8824 109.924C24.1312 108.661 23.579 107.29 23.2454 105.859C22.9505 104.609 22.8133 103.327 22.8369 102.043C22.7778 101.579 22.8889 101.11 23.1498 100.722C23.3141 100.679 23.486 100.672 23.6534 100.701C23.8208 100.731 23.9798 100.797 24.1193 100.894C26.4989 102.111 28.9481 103.169 31.4088 104.21C32.598 104.706 33.8043 105.138 35.0072 105.583C38.41 106.855 41.8905 107.908 45.4275 108.736C47.3694 109.195 49.3309 109.632 51.2887 110.007C54.7114 110.681 58.1771 111.115 61.6603 111.307C63.5764 111.405 65.4912 111.482 67.4116 111.512C69.7949 111.515 72.1765 111.389 74.5461 111.134C74.7988 111.107 75.0398 111.021 75.2879 110.985C75.7922 110.909 76.0124 111.105 76.1162 111.582C76.2869 112.76 76.7907 113.865 77.5682 114.766C78.3457 115.668 79.3645 116.328 80.5048 116.67C81.3937 116.944 82.3313 117.022 83.2533 116.9C84.1754 116.778 85.0601 116.458 85.8468 115.961C86.0161 115.864 86.1935 115.761 86.3628 115.664C86.509 115.579 86.6822 115.553 86.8467 115.592C87.0111 115.631 87.1544 115.732 87.2471 115.873C87.2827 115.944 87.3039 116.022 87.3095 116.101C87.3151 116.181 87.305 116.261 87.2797 116.336C87.2544 116.412 87.2144 116.482 87.1621 116.542C87.1098 116.602 87.0461 116.651 86.9747 116.686C86.3267 117.095 85.6426 117.443 84.9309 117.726C83.4474 118.277 81.8289 118.351 80.3014 117.938C78.6023 117.485 77.1303 116.421 76.1681 114.949C75.6856 114.287 75.3285 113.542 75.1145 112.752C75.1071 112.683 75.0842 112.617 75.0477 112.559C75.0111 112.5 74.9618 112.451 74.9034 112.414C74.845 112.378 74.779 112.355 74.7105 112.347C74.642 112.34 74.5727 112.348 74.5077 112.371C72.7588 112.615 70.9968 112.752 69.2314 112.784C66.0651 112.889 62.8954 112.802 59.7396 112.523C58.0568 112.42 56.3249 112.195 54.6736 111.923C52.321 111.572 50.0237 111.167 47.726 110.688C45.8039 110.282 43.9031 109.745 42.0036 109.23C40.6256 108.854 39.2382 108.461 37.8839 107.996C35.7328 107.249 33.5759 106.474 31.452 105.625C29.4994 104.85 27.5949 103.972 25.6996 103.109C25.3351 102.944 24.9855 102.748 24.6325 102.565C24.2795 102.381 24.3397 102.411 24.0371 102.65C24.0547 105.354 24.8936 107.989 26.4425 110.205C27.4576 111.597 28.7164 112.793 30.1579 113.736C32.1766 115.019 34.3916 115.962 36.7152 116.529C39.856 117.313 43.0781 117.726 46.3152 117.759C48.9683 117.825 51.6229 117.728 54.2641 117.469C57.2454 117.178 60.2252 116.79 63.2098 116.207C64.5089 115.962 65.8198 115.775 67.1003 115.498C68.3808 115.221 69.856 114.853 71.2345 114.54C71.4608 114.485 71.6928 114.455 71.9258 114.453C72.0539 114.45 72.1793 114.491 72.28 114.57C72.3807 114.65 72.4506 114.762 72.4774 114.887C72.5078 115 72.5005 115.12 72.4566 115.229C72.4127 115.338 72.3346 115.429 72.2341 115.49C72.1068 115.596 71.9623 115.679 71.8068 115.736C70.2717 116.15 68.7553 116.595 67.2131 116.959C65.6708 117.323 64.0064 117.735 62.3782 117.987C59.9251 118.393 57.4629 118.74 54.9916 119.027C52.7201 119.264 50.481 119.481 48.2195 119.605C46.4244 119.717 44.6231 119.725 42.8149 119.758C39.5532 119.825 36.3112 119.665 33.0286 119.453C32.7271 119.433 32.4325 119.389 32.1297 119.348C31.989 119.294 31.8338 119.29 31.6906 119.338C31.5475 119.385 31.4251 119.481 31.3446 119.608Z" fill="#D1D1D1"/>
<path d="M25.4645 104.191C25.551 104.126 25.6561 104.091 25.7643 104.09C25.8725 104.09 25.9779 104.124 26.0649 104.188C29.0261 105.755 32.0886 107.122 35.2319 108.28C37.5614 109.15 39.9318 109.867 42.3399 110.519C44.7481 111.171 46.8935 111.684 49.2184 112.062C49.3501 112.074 49.4802 112.1 49.6068 112.139C49.8797 112.239 49.9021 112.334 49.7316 112.69C49.6386 112.709 49.5432 112.713 49.4488 112.703C47.4458 112.268 45.4325 111.872 43.4384 111.379C40.4413 110.651 37.494 109.731 34.6145 108.626C32.6852 107.891 30.7993 107.045 28.918 106.207C27.864 105.74 26.8503 105.251 25.7972 104.73C25.5704 104.635 25.3827 104.496 25.4645 104.191Z" fill="#D1D1D1"/>
<path d="M66.1627 95.98C66.2661 96.0856 66.3265 96.2259 66.3323 96.3735C66.3381 96.5211 66.2888 96.6656 66.194 96.779C66.0195 96.998 65.771 96.9587 65.5421 96.8973L61.5757 95.8549L54.2715 93.891L54.1316 93.8535C54.0574 93.8429 53.9861 93.8177 53.9217 93.7793C53.8573 93.741 53.8012 93.6903 53.7565 93.6302C53.7118 93.5701 53.6794 93.5017 53.6612 93.429C53.6431 93.3564 53.6395 93.2808 53.6506 93.2067C53.6921 93.0594 53.7895 92.934 53.922 92.8575C54.0546 92.781 54.2118 92.7593 54.3601 92.7971C55.0664 92.9591 55.7577 93.1511 56.4445 93.3351L64.0746 95.3796C64.8194 95.6269 65.4841 95.7914 66.1627 95.98Z" fill="#D1D1D1"/>
<path d="M92.0595 141.99C92.6193 141.935 92.6622 141.953 92.97 142.356C92.8238 142.978 92.6292 143.628 92.5029 144.303L90.1018 153.289C90.0234 153.582 89.9277 153.863 89.8366 154.152L89.7783 154.293C89.715 154.42 89.6068 154.52 89.4745 154.573C89.3421 154.625 89.195 154.627 89.0614 154.578C88.8219 154.479 88.7391 154.28 88.8196 153.954C89.0829 152.921 89.3542 151.882 89.6302 150.852L91.2599 144.719L91.8562 142.494C91.9152 142.322 91.9831 142.154 92.0595 141.99Z" fill="#D1D1D1"/>
<path d="M52.1179 120.977C51.4415 121.034 50.7825 121.103 50.1222 121.151C48.7554 121.241 47.3945 121.36 46.0228 121.367C43.8983 121.412 41.7599 121.431 39.6708 121.369C37.8831 121.326 36.1112 121.199 34.3244 121.102C34.0946 121.095 33.8499 121.118 33.7527 120.819C33.6555 120.521 34.0156 120.474 34.2768 120.517C36.0521 120.631 37.8345 120.795 39.6154 120.864C41.141 120.918 42.679 120.901 44.2077 120.867C45.7364 120.834 47.3618 120.745 48.9088 120.669C49.7399 120.619 50.5593 120.511 51.3892 120.441C51.5709 120.418 51.7551 120.428 51.9332 120.471C52.1944 120.513 52.2921 120.683 52.1179 120.977Z" fill="#D1D1D1"/>
<path d="M44.4167 130.744C44.3726 130.426 44.5419 130.328 44.8095 130.27C45.5628 130.104 46.3288 129.941 47.0808 129.754C47.8329 129.567 48.7983 129.322 49.6424 129.071C50.4866 128.82 51.455 128.487 52.3543 128.182L55.4719 127.103C55.6654 126.991 55.8977 127.039 56.0326 127.273C56.1676 127.507 55.838 127.644 55.6293 127.71C54.391 128.135 53.1494 128.572 51.8971 128.973C50.6449 129.373 49.2782 129.743 47.9612 130.106C47.0339 130.362 46.088 130.585 45.1515 130.825C44.877 130.908 44.6395 130.981 44.4167 130.744Z" fill="#D1D1D1"/>
<path d="M52.4315 92.3625C52.4651 92.4781 52.4835 92.5976 52.4862 92.7179C52.4662 93.1487 52.2476 93.3286 51.8326 93.2243C51.1297 93.0496 50.4142 92.8715 49.7101 92.676C49.006 92.4805 48.4384 92.3352 47.8428 92.1416C47.7166 92.1099 47.5999 92.0482 47.5026 91.9618C47.4186 91.8899 47.3612 91.792 47.3396 91.6836C47.318 91.5753 47.3334 91.4628 47.3833 91.3642C47.4193 91.261 47.4912 91.1741 47.5859 91.1194C47.6806 91.0647 47.7918 91.0459 47.8993 91.0663C48.0466 91.0911 48.1922 91.1256 48.335 91.1694L51.8449 92.1099C52.0456 92.1815 52.2415 92.2659 52.4315 92.3625Z" fill="#D1D1D1"/>
<path d="M88.3875 155.795C88.5227 155.792 88.658 155.796 88.7928 155.808C89.1638 155.873 89.2684 156.017 89.2238 156.387C89.2018 156.57 89.1667 156.752 89.1189 156.931L88.0687 160.698C87.9932 160.815 87.8752 160.898 87.7395 160.931C87.6039 160.963 87.461 160.941 87.3408 160.871C87.1035 160.739 87.0296 160.481 87.125 160.125C87.4658 158.853 87.7582 157.609 88.1247 156.419C88.1976 156.205 88.2854 155.996 88.3875 155.795Z" fill="#D1D1D1"/>
<path d="M57.5108 136.814C57.4251 136.498 57.6415 136.352 57.8452 136.202C58.4176 135.872 58.9702 135.488 59.5007 135.085C60.7078 134.141 61.9056 133.181 63.0953 132.225C63.5049 131.892 63.8912 131.518 64.2962 131.177C64.427 131.076 64.5707 130.993 64.7235 130.93L64.8976 131.399C64.817 131.446 64.83 131.524 64.7978 131.543C63.6242 132.489 62.4565 133.465 61.2609 134.391C60.384 135.07 59.4631 135.709 58.5642 136.367C58.411 136.456 58.3044 136.625 58.1652 136.738C58.0259 136.85 57.7577 137.037 57.5108 136.814Z" fill="#D1D1D1"/>
<path d="M68.4754 137.17C68.5119 137.037 68.5644 136.91 68.6319 136.79C69.2473 135.994 69.8813 135.23 70.4827 134.41C71.2608 133.337 72.0076 132.229 72.7637 131.136C72.9128 130.91 73.0073 130.609 73.3978 130.652C73.6044 130.898 73.5142 131.133 73.349 131.368L70.0003 136.032L69.1624 137.15C68.9891 137.39 68.8424 137.378 68.4754 137.17Z" fill="#D1D1D1"/>
<path d="M80.2743 129.434L80.7554 129.597C80.7776 129.703 80.7828 129.813 80.7707 129.921C80.4882 131.052 80.2058 132.182 79.9106 133.309C79.8342 133.599 79.7355 133.883 79.6153 134.157C79.509 134.401 79.3328 134.525 79.0087 134.335C79.0176 134.179 79.0432 134.023 79.0851 133.872C79.5662 132.577 79.9161 131.237 80.1297 129.872C80.165 129.766 80.2152 129.629 80.2743 129.434Z" fill="#D1D1D1"/>
<path d="M54.9352 113.213C54.8636 113.48 54.6685 113.496 54.4675 113.483C53.4955 113.345 52.5155 113.212 51.5283 113.029C51.3925 112.998 51.2608 112.952 51.1362 112.89C51.2071 112.473 51.3255 112.361 51.6457 112.413L54.4657 112.828C54.6981 112.876 54.8982 112.944 54.9352 113.213Z" fill="#D1D1D1"/>
<path d="M61.0373 125.233C61.0721 125.536 60.8947 125.638 60.6791 125.73L58.5256 126.619C58.2917 126.754 58.0175 126.912 57.7736 126.601C57.7214 126.288 57.9403 126.183 58.1559 126.09L59.8898 125.369C60.0592 125.271 60.2285 125.173 60.4211 125.116C60.6138 125.058 60.8387 124.982 61.0373 125.233Z" fill="#D1D1D1"/>
<path d="M57.5136 119.818C57.6065 120.184 57.4778 120.333 57.2169 120.366L54.5538 120.688C54.3137 120.719 54.0689 120.742 53.9574 120.344C54.0795 120.242 54.2187 120.161 54.3687 120.107C55.2413 119.98 56.1151 119.873 56.9936 119.774C57.1679 119.774 57.3419 119.788 57.5136 119.818Z" fill="#D1D1D1"/>
<path d="M44.7051 91.3415C44.4159 91.2504 44.0644 91.163 43.7151 91.0421C43.6414 91.0353 43.57 91.0129 43.5057 90.9764C43.4414 90.9399 43.3856 90.8901 43.342 90.8304C43.2983 90.7707 43.2679 90.7023 43.2527 90.6299C43.2376 90.5575 43.238 90.4828 43.2539 90.4105C43.2698 90.3383 43.301 90.2703 43.3452 90.211C43.3894 90.1517 43.4458 90.1025 43.5105 90.0667C43.5752 90.0309 43.6468 90.0092 43.7205 90.0032C43.7943 89.9972 43.8684 90.0069 43.9381 90.0317C44.2632 90.087 44.5834 90.1682 44.8955 90.2746C45.003 90.2988 45.0981 90.3611 45.1633 90.45C45.2284 90.5389 45.2592 90.6483 45.2499 90.7581C45.2466 91.0503 45.0984 91.2219 44.7051 91.3415Z" fill="#D1D1D1"/>
<path d="M87.2015 163.327C87.2015 163.327 87.2759 163.456 87.2589 163.52C87.1763 163.952 87.0624 164.377 86.9181 164.792C86.8393 165.009 86.5552 165.001 86.3436 164.952C86.2895 164.942 86.2377 164.922 86.1914 164.893C86.1452 164.863 86.1053 164.825 86.0741 164.78C86.043 164.735 86.0213 164.684 86.0103 164.63C85.9992 164.576 85.9991 164.521 86.0099 164.467C86.0873 164.034 86.2013 163.608 86.3508 163.195C86.4661 162.892 86.9618 162.949 87.2015 163.327Z" fill="#D1D1D1"/>
<path d="M67.4342 128.903C67.5394 129.197 67.3598 129.333 67.2057 129.476C66.8733 129.776 66.5408 130.075 66.2257 130.386C65.9106 130.697 65.8746 130.653 65.506 130.35C65.5958 130.191 65.6999 130.041 65.817 129.902C66.1159 129.6 66.445 129.313 66.7613 129.023C66.9511 128.849 67.1456 128.683 67.4342 128.903Z" fill="#D1D1D1"/>
<path d="M68.8893 127.795C68.8025 127.688 68.7333 127.568 68.6844 127.44C68.7405 127.238 68.8473 127.054 68.9946 126.905C69.1419 126.756 69.3249 126.647 69.5261 126.588C69.6232 126.608 69.7656 126.687 69.7833 126.773C69.8011 126.86 69.7521 127.017 69.7133 127.136C69.6796 127.169 69.638 127.193 69.5924 127.206L68.8893 127.795Z" fill="#D1D1D1"/>
<path d="M62.137 119.245C61.8849 119.702 61.4487 119.524 61.1059 119.582C61.0602 119.591 61.0129 119.589 60.9682 119.576C60.9234 119.563 60.8826 119.539 60.849 119.506C60.8155 119.474 60.7903 119.434 60.7757 119.389C60.761 119.345 60.7573 119.298 60.7649 119.252C61.2515 118.81 61.7596 118.796 62.137 119.245Z" fill="#D1D1D1"/>
<path d="M74.5704 128.696C74.6176 127.884 74.8967 127.529 75.3961 127.649C75.5573 128.04 75.3207 128.338 75.1083 128.622C75.082 128.667 75.0457 128.706 75.0022 128.735C74.9588 128.764 74.9092 128.783 74.8574 128.79C74.8055 128.797 74.7527 128.793 74.703 128.776C74.6533 128.76 74.6079 128.732 74.5704 128.696Z" fill="#D1D1D1"/>
<path d="M80.8646 127.739C80.7548 127.675 80.6651 127.581 80.6053 127.468C80.5455 127.356 80.5181 127.229 80.526 127.102C80.5339 126.975 80.5769 126.853 80.6502 126.748C80.7235 126.644 80.8242 126.563 80.9412 126.512C81.1676 126.532 81.2387 126.674 81.2512 126.882C81.2687 127.046 81.2421 127.212 81.1741 127.363C81.1062 127.513 80.9994 127.643 80.8646 127.739Z" fill="#D1D1D1"/>
<path d="M58.209 113.354C58.588 113.135 58.9501 113.259 59.2808 113.348C59.3601 113.764 59.2971 113.898 59.0201 113.939C58.8353 113.966 58.6471 113.921 58.4956 113.811C58.3441 113.702 58.2413 113.538 58.209 113.354Z" fill="#D1D1D1"/>
<path d="M63.785 123.83C63.8173 123.716 63.8763 123.611 63.957 123.525C64.0377 123.438 64.1379 123.372 64.2493 123.332C64.3607 123.292 64.48 123.279 64.5974 123.294C64.7148 123.309 64.8269 123.352 64.9243 123.419C65.021 123.847 64.6561 123.886 64.4083 123.997C64.1605 124.108 64.0646 124.109 63.785 123.83Z" fill="#D1D1D1"/>
<path d="M85.3804 110.297L83.1974 106.516C80.628 102.066 78.0772 97.6474 75.4891 93.1648C74.9732 92.3883 74.6367 91.5066 74.5042 90.5838C74.2305 88.2479 73.8806 85.8915 73.584 83.5904C73.3931 82.2171 73.2196 80.8553 73.0368 79.4774C72.918 78.4711 72.7412 77.4014 72.6118 76.3581C72.397 74.7945 72.1983 73.2215 72.0319 71.6299C71.8654 70.0383 71.62 68.589 71.4204 67.0703C71.0129 64.0807 70.6109 61.0879 70.2141 58.0921L69.7235 54.226C69.6958 54.025 69.7253 53.8203 69.8087 53.6353C69.892 53.4503 70.0257 53.2925 70.1946 53.18C70.3508 53.0687 70.5376 53.0085 70.7294 53.0074C70.9212 53.0063 71.1087 53.0646 71.2661 53.1741C71.5132 53.3132 71.7487 53.472 71.9703 53.649C72.2321 53.8418 72.4871 54.0601 72.7502 54.2737C73.3005 54.6869 73.8462 55.0921 74.3745 55.4858C75.9144 56.6822 77.4463 57.8832 78.9943 59.0749C80.2885 60.0691 81.5942 61.0459 82.8643 62.0541C84.3729 63.2148 85.862 64.3975 87.3659 65.5502C88.608 66.51 89.8731 67.435 91.1428 68.3682C92.6607 69.545 94.1625 70.7311 95.6804 71.9079C96.3629 72.4384 97.0649 72.9468 97.7555 73.4725C98.7438 74.2349 99.7207 75.0146 100.721 75.7595C101.114 76.0434 101.443 76.4056 101.689 76.8233C102.672 78.5245 103.658 80.2337 104.641 81.9348L121.691 111.467C122.007 112.015 122.329 112.571 122.622 113.079C122.915 113.587 122.962 113.668 123.526 113.546C123.705 113.503 123.894 113.519 124.063 113.591C124.233 113.664 124.375 113.789 124.467 113.949C124.581 114.093 124.649 114.268 124.663 114.452C124.677 114.635 124.636 114.818 124.546 114.978L124.181 115.576C123.449 116.611 122.592 117.554 121.63 118.381C120.258 119.676 118.782 120.855 117.217 121.908C114.865 123.527 112.426 125.014 109.91 126.363C107.845 127.491 105.714 128.495 103.53 129.369C102.338 129.8 101.141 130.222 99.9231 130.57C98.8731 130.906 97.777 131.074 96.6748 131.07C96.4886 131.069 96.3062 131.017 96.1484 130.918C95.9906 130.819 95.8636 130.678 95.782 130.51C95.6914 130.34 95.6558 130.146 95.6802 129.955C95.7046 129.763 95.7877 129.585 95.9181 129.443C96.2306 129.09 96.2529 128.905 96.0282 128.498C95.8793 128.24 95.7303 127.982 95.5628 127.691L85.4853 110.237L85.3804 110.297ZM116.493 119.929C116.438 119.744 116.37 119.565 116.29 119.39C113.744 114.98 111.202 110.578 108.656 106.168C105.603 100.879 102.547 95.5877 99.4908 90.2935C98.6483 88.8343 97.8058 87.375 96.9633 85.9157C96.8684 85.7241 96.7142 85.5681 96.5237 85.4709C95.6701 85.0932 94.8484 84.6473 94.0663 84.1377C93.0497 83.5243 91.9011 83.1627 90.7164 83.0834C89.9626 83.052 89.2122 83.2014 88.5279 83.5192C87.8467 83.7983 87.2322 84.2185 86.7251 84.7521C86.218 85.2858 85.8296 85.9208 85.5856 86.6154C85.2913 87.5886 85.1509 88.6018 85.1694 89.6183C85.1697 90.4567 85.0707 91.3093 85.0986 92.1209C85.0995 92.3497 85.159 92.5744 85.2713 92.7737C90.5963 101.997 95.9213 111.22 101.246 120.443C102.354 122.362 103.462 124.281 104.574 126.208C104.654 126.345 104.737 126.49 104.83 126.651C108.978 124.895 112.895 122.638 116.493 119.929ZM73.3349 66.3089C73.7109 68.9585 74.0728 71.5838 74.4208 74.185C74.6869 76.1168 74.9115 78.0511 75.1649 79.9795C75.5296 82.7896 75.907 85.6031 76.2797 88.4085C76.3447 89.1364 76.4536 89.8597 76.6058 90.5744C76.787 91.1971 77.0187 91.8039 77.2986 92.3889C77.3498 92.4776 77.4828 92.5405 77.5744 92.6059C77.913 92.4104 77.7929 92.1465 77.7491 91.903C77.6422 91.2338 77.5225 90.5611 77.4317 89.8826C77.3913 89.6009 77.416 89.3138 77.5039 89.0431C77.5918 88.7725 77.7405 88.5256 77.9386 88.3215C78.0848 88.1675 78.2724 88.0592 78.4788 88.0096C78.826 87.9475 79.1826 87.9626 79.5232 88.0539C79.8639 88.1452 80.1803 88.3104 80.4499 88.5377C81.453 89.3103 82.3914 90.1635 83.2557 91.0887C83.3209 91.2016 83.4378 91.2738 83.5306 91.36C83.8966 91.3422 83.9337 91.1273 83.9336 90.8478C83.9219 90.0269 83.9021 89.2106 83.9365 88.3952C83.9826 87.0163 84.435 85.6818 85.237 84.5592C86.253 83.2055 87.7358 82.2777 89.3975 81.956C91.0592 81.6343 92.7812 81.9416 94.229 82.8183C94.8147 83.1252 95.3672 83.5049 95.915 83.8766C95.9991 83.9508 96.1063 83.9935 96.2184 83.9974C96.3304 84.0013 96.4404 83.9662 96.5294 83.8981C96.5202 83.72 96.497 83.5429 96.4601 83.3684C96.2204 82.4319 95.9484 81.5139 95.7248 80.5681C95.6049 80.1171 95.5461 79.6521 95.55 79.1855C95.5144 78.8581 95.5799 78.5276 95.7378 78.2386C95.8957 77.9497 96.1385 77.7161 96.4333 77.5693C96.7281 77.4225 97.0608 77.3696 97.3866 77.4178C97.7124 77.4659 98.0155 77.6128 98.2553 77.8386C98.8552 78.2447 99.3944 78.7503 99.968 79.2039C100.1 79.2937 100.237 79.376 100.379 79.4503C100.685 79.2735 100.593 79.058 100.483 78.8852C100.07 78.1802 99.5177 77.5664 98.8604 77.0807C97.9351 76.4648 97.1049 75.6971 96.2254 75.0117C94.7122 73.8429 93.1828 72.6835 91.6615 71.5194L86.393 67.4771C84.7956 66.2494 83.1981 65.0218 81.6007 63.7941C81.0538 63.3681 80.5103 62.9295 79.9587 62.4955C79.7884 62.368 79.5952 62.2754 79.3786 62.1424C77.686 63.8079 75.5965 65.0143 73.3078 65.6474C73.3011 65.8683 73.3102 66.0893 73.3349 66.3089ZM121.547 115.667C121.482 115.446 121.401 115.231 121.304 115.023C120.294 113.273 119.284 111.524 118.278 109.782L102.885 83.1204C102.517 82.4835 102.149 81.8466 101.786 81.2177C101.672 81.0389 101.547 80.8667 101.413 80.7021C101.304 80.6795 101.266 80.6693 101.237 80.6752C100.873 80.7768 100.489 80.7741 100.127 80.6675C99.765 80.5609 99.4404 80.3546 99.1901 80.0722C98.667 79.6421 98.1222 79.2391 97.5578 78.8648C97.4578 78.8 97.3511 78.7463 97.2395 78.7045C96.8794 78.7512 96.7719 78.9745 96.8043 79.2353C96.9217 79.9415 97.0311 80.6523 97.1982 81.3513C97.3653 82.0503 97.5568 82.531 97.6888 83.132C97.8208 83.733 97.7877 84.0854 97.858 84.5608C97.8723 84.8241 97.9374 85.0822 98.0496 85.3209C101.261 90.8838 104.473 96.4468 107.685 102.01C110.645 107.137 113.607 112.268 116.571 117.401C116.804 117.804 117.036 118.207 117.269 118.61C117.368 118.755 117.48 118.892 117.602 119.019C119.011 118.017 120.331 116.896 121.547 115.667ZM78.9198 91.6034C78.9898 91.9374 79.0242 92.2778 79.0224 92.6191C79.0253 92.8386 78.9715 93.0552 78.8661 93.2479C78.7608 93.4405 78.6075 93.6027 78.4211 93.7187C78.381 93.8363 78.373 93.9624 78.3979 94.0841C78.4228 94.2058 78.4797 94.3186 78.5627 94.4109C82.7117 101.597 86.8778 108.77 91.0613 115.929C93.3049 119.815 95.5485 123.701 97.7967 127.595C97.927 127.821 98.062 128.054 98.197 128.288C98.332 128.522 98.5175 128.694 98.7034 128.942L99.5096 128.476C99.4565 128.309 99.3909 128.145 99.3134 127.988C98.5594 126.681 97.8099 125.383 97.0605 124.085C96.9581 123.908 96.8604 123.739 96.758 123.561C96.6556 123.384 96.5113 123.134 96.7261 122.892C97.1634 122.811 97.2422 122.873 97.439 123.233C98.3699 124.845 99.3117 126.476 100.264 128.127C100.307 128.176 100.354 128.22 100.406 128.26C100.629 128.237 100.849 128.196 101.066 128.137C101.605 127.954 102.126 127.739 102.657 127.541C102.881 127.465 103.103 127.401 103.323 127.317C103.543 127.233 103.735 126.951 103.558 126.644C97.3764 115.938 91.1815 105.239 84.9732 94.5475C84.7451 94.1525 84.5077 93.7413 84.2936 93.3704C84.126 93.0871 83.8842 92.855 83.5943 92.6992C83.1395 92.4262 82.7103 92.1127 82.3118 91.7626C81.6777 91.2043 81.078 90.5938 80.4393 90.0274C80.0997 89.7824 79.7407 89.5654 79.366 89.3786C79.088 89.1951 79.035 89.2149 78.6759 89.4867C78.7016 90.1976 78.7832 90.9053 78.9198 91.6034ZM78.2204 61.6071C78.2629 61.4835 78.2622 61.3492 78.2185 61.2261C78.1747 61.1029 78.0905 60.9983 77.9795 60.9292C76.7119 59.9626 75.4363 59.0007 74.156 58.0306C73.6972 57.6828 73.2533 57.3049 72.7898 56.949C72.646 56.8436 72.4925 56.7523 72.3313 56.6762C72.0703 56.9129 72.1981 57.0971 72.2959 57.2664L75.2171 62.1586C75.3382 62.3682 75.4638 62.5859 75.5895 62.8036C75.6389 62.9222 75.7168 63.0267 75.8163 63.1081C75.9157 63.1894 76.0337 63.2449 76.1597 63.2698L78.2204 61.6071Z" fill="#D1D1D1"/>
<path d="M103.421 142.847C103.161 142.851 102.909 142.76 102.712 142.59C102.515 142.421 102.387 142.185 102.352 141.927C102.333 141.789 102.342 141.649 102.38 141.515C102.417 141.38 102.482 141.256 102.571 141.148C102.659 141.04 102.769 140.952 102.894 140.889C103.018 140.826 103.154 140.79 103.293 140.782C104.473 140.693 105.639 140.471 106.769 140.119C108.101 139.745 109.404 139.277 110.668 138.717L111.439 138.358C112.87 137.671 114.316 137.03 115.724 136.303C118.702 134.724 121.543 132.9 124.218 130.851C125.056 130.217 125.858 129.539 126.646 128.837C127.278 128.256 127.883 127.628 128.47 126.988C128.824 126.568 129.156 126.129 129.463 125.673C129.619 125.464 129.846 125.32 130.101 125.267C130.357 125.215 130.622 125.259 130.847 125.39C131.065 125.516 131.228 125.718 131.305 125.958C131.382 126.198 131.367 126.458 131.263 126.687C131.171 126.79 131.1 126.91 131.055 127.041C131.009 127.172 130.99 127.31 130.999 127.448C131.008 127.586 131.044 127.721 131.105 127.845C131.166 127.969 131.252 128.08 131.356 128.17C131.393 128.224 131.426 128.281 131.454 128.339C132.506 130.162 133.558 131.984 134.61 133.806C134.998 134.388 135.31 135.016 135.54 135.677C135.757 136.363 135.813 137.091 135.701 137.803C135.59 138.514 135.315 139.19 134.898 139.778C134.46 140.366 133.961 140.907 133.409 141.389C132.251 142.491 131.036 143.53 129.767 144.503C128.762 145.255 127.8 146.047 126.738 146.703C124.52 148.16 122.159 149.386 119.692 150.363C119.051 150.593 118.445 150.921 117.8 151.143C116.704 151.518 115.608 151.871 114.509 152.183C113.906 152.385 113.28 152.508 112.645 152.55C111.815 152.619 110.981 152.456 110.239 152.077C109.496 151.699 108.874 151.121 108.442 150.408C107.06 148.164 105.803 145.837 104.485 143.555C104.336 143.297 104.152 143.07 103.979 142.826L103.421 142.847ZM109.215 142.233C109.815 143.273 110.416 144.313 111.016 145.353C111.1 145.458 111.146 145.589 111.146 145.724C111.145 145.859 111.099 145.99 111.015 146.095C110.94 146.186 110.838 146.251 110.723 146.281C110.609 146.31 110.488 146.302 110.378 146.259C110.201 146.179 110.051 146.048 109.947 145.884C109.482 145.078 109.016 144.272 108.551 143.465C108.341 143.103 108.137 142.748 107.927 142.385C107.853 142.256 107.68 142.087 107.56 142.103C107.078 142.079 106.604 142.231 106.226 142.529C106.314 142.682 106.345 142.847 106.424 142.984C107.574 144.976 108.723 146.967 109.878 148.966C110.166 149.517 110.629 149.956 111.194 150.213C111.76 150.471 112.395 150.533 113 150.389C114.69 149.929 116.343 149.383 118 148.792C120.372 147.89 122.645 146.75 124.786 145.39C126.208 144.552 127.564 143.607 128.842 142.564C130.298 141.369 131.686 140.094 133 138.745C133.253 138.467 133.439 138.134 133.542 137.773C133.644 137.411 133.662 137.031 133.593 136.661C133.508 136.151 133.315 135.665 133.027 135.235C131.943 133.357 130.858 131.478 129.769 129.592C129.654 129.413 129.529 129.241 129.396 129.076C129.222 129.158 129.054 129.254 128.896 129.365C127.765 130.526 126.54 131.593 125.234 132.554C123.444 133.95 121.547 135.203 119.561 136.302C117.538 137.471 115.507 138.589 113.41 139.649C112.175 140.266 110.805 140.723 109.567 141.223C109.358 141.344 109.148 141.465 108.89 141.614C109.064 141.879 109.122 142.071 109.215 142.233Z" fill="#D1D1D1"/>
<path d="M115.902 130.858C117.041 130.114 118.779 129.046 120.44 127.883C122.329 126.623 124.096 125.189 125.718 123.6C126.549 122.829 127.264 121.942 127.841 120.966C127.961 120.763 128.006 120.526 127.97 120.294C127.934 120.062 127.819 119.849 127.644 119.693C127.539 119.583 127.411 119.499 127.268 119.447C127.126 119.395 126.974 119.376 126.823 119.392C126.672 119.409 126.527 119.459 126.4 119.541C126.272 119.622 126.164 119.732 126.086 119.861C125.16 121.242 124.018 122.464 122.703 123.48C121.697 124.287 120.736 125.175 119.698 125.946C118.816 126.596 117.851 127.142 116.928 127.739C114.405 129.339 111.799 130.804 109.121 132.128C108.42 132.533 107.611 132.753 106.863 133.077C105.107 133.834 103.279 134.411 101.407 134.798C100.924 134.893 100.405 134.925 99.9202 134.979C99.6667 135.014 99.4355 135.143 99.2722 135.34C99.1089 135.537 99.0255 135.788 99.0382 136.044C99.0509 136.3 99.1589 136.541 99.341 136.721C99.523 136.901 99.7659 137.007 100.022 137.016C100.867 137.011 101.708 136.888 102.519 136.65L103.865 136.281C105.429 135.812 106.964 135.249 108.46 134.595C111.006 133.484 113.49 132.236 115.902 130.858Z" fill="#D1D1D1"/>
<path d="M118.815 133.035C119.845 132.344 121.5 131.281 123.098 130.121C124.333 129.225 125.517 128.241 126.662 127.226C127.649 126.36 128.524 125.374 129.267 124.291C129.489 123.949 129.723 123.609 129.616 123.144C129.578 122.973 129.496 122.815 129.379 122.684C129.262 122.554 129.113 122.456 128.946 122.401C128.78 122.345 128.602 122.334 128.43 122.367C128.258 122.401 128.097 122.479 127.964 122.593C127.835 122.7 127.724 122.827 127.632 122.967C126.524 124.47 125.221 125.819 123.756 126.979C122.213 128.253 120.587 129.424 118.891 130.486C117.439 131.454 115.916 132.333 114.372 133.16C112.659 134.085 110.905 134.957 109.14 135.772C108.129 136.205 107.097 136.585 106.047 136.913C104.98 137.301 103.876 137.579 102.752 137.741C102.504 137.776 102.25 137.783 102.006 137.827C101.725 137.857 101.45 137.926 101.188 138.03C100.988 138.118 100.825 138.273 100.728 138.469C100.63 138.665 100.605 138.888 100.656 139.101C100.687 139.309 100.787 139.5 100.94 139.644C101.093 139.788 101.291 139.875 101.5 139.893C101.8 139.921 102.102 139.919 102.401 139.889C103.794 139.729 105.165 139.411 106.486 138.939C110.794 137.416 114.927 135.437 118.815 133.035Z" fill="#D1D1D1"/>
<path d="M113.981 128.183L118.609 125.027C119.036 124.781 119.48 124.525 119.865 124.205C121.568 122.976 123.156 121.595 124.61 120.079C125.143 119.461 125.641 118.814 126.104 118.142C126.222 117.984 126.291 117.794 126.302 117.596C126.312 117.399 126.264 117.203 126.162 117.033C126.077 116.877 125.952 116.745 125.8 116.652C125.648 116.559 125.475 116.507 125.297 116.501C125.119 116.495 124.942 116.536 124.785 116.619C124.627 116.703 124.494 116.826 124.399 116.976C123.55 118.252 122.52 119.397 121.341 120.376C120.296 121.302 119.118 122.111 118.026 122.956C115.328 124.951 112.462 126.709 109.462 128.212C107.889 129.045 106.233 129.732 104.588 130.403C103.244 130.993 101.843 131.442 100.406 131.742C99.7255 131.866 99.0354 131.975 98.3348 132.046C98.1448 132.046 97.9584 132.098 97.7962 132.197C97.6339 132.296 97.5022 132.438 97.4153 132.607C97.3285 132.776 97.2899 132.966 97.3039 133.155C97.3179 133.345 97.3839 133.527 97.4946 133.681C97.5859 133.832 97.718 133.953 97.8755 134.031C98.033 134.11 98.2095 134.142 98.3845 134.124C98.8694 134.11 99.3528 134.064 99.8319 133.987C100.9 133.818 101.949 133.546 102.966 133.178C104.229 132.685 105.538 132.327 106.759 131.761C109.185 130.619 111.634 129.517 113.981 128.183Z" fill="#D1D1D1"/>
<path d="M114.217 119.953C114.652 119.702 114.733 119.655 114.522 119.272C114.311 118.888 114.056 118.465 113.824 118.062C112.074 115.031 110.322 111.997 108.569 108.96C108.448 108.75 108.322 108.533 108.196 108.315C107.973 107.928 107.72 107.956 107.409 108.404C109.569 112.145 111.743 115.91 113.926 119.691C114.014 119.787 114.112 119.875 114.217 119.953Z" fill="#D1D1D1"/>
<path d="M103.902 102.086C103.93 102.193 103.968 102.297 104.016 102.396C104.514 103.259 105.013 104.122 105.515 104.992C105.65 105.226 105.66 105.242 106.026 105.3C106.32 104.99 106.328 104.91 106.109 104.531C105.69 103.806 105.276 103.088 104.857 102.363L104.531 101.798C104.181 101.732 103.998 101.805 103.902 102.086Z" fill="#D1D1D1"/>
<path d="M96.6171 89.4693C96.663 89.5785 96.7224 89.6814 96.794 89.7758C97.0547 90.2274 97.3108 90.6709 97.5669 91.1145C97.7345 91.4048 97.7345 91.4047 98.1043 91.4493C98.3623 91.3003 98.352 91.059 98.2157 90.8043C97.941 90.3286 97.6663 89.8527 97.3916 89.377C97.1524 89.0743 96.9237 89.088 96.6171 89.4693Z" fill="#D1D1D1"/>
<path d="M80.4745 80.891C80.4744 80.6984 80.4503 80.5065 80.4027 80.3198C79.9488 79.0124 79.4708 77.7189 79.0089 76.4161C78.6687 75.4731 78.3493 74.5288 78.0171 73.5811C77.9954 73.4683 77.9364 73.3661 77.8495 73.2909C77.7166 73.2069 77.5568 73.1763 77.4023 73.2051C77.3136 73.2563 77.2578 73.439 77.2157 73.5708C77.2203 73.6552 77.2423 73.7376 77.2803 73.813L79.4557 79.7593C79.5655 80.0614 79.6627 80.36 79.776 80.6493C79.8893 80.9387 80.0711 81.0487 80.4745 80.891Z" fill="#D1D1D1"/>
<path d="M78.0656 84.2594C78.4061 84.2347 78.4848 84.0173 78.4305 83.737C78.3761 83.4566 78.2647 83.0587 78.1777 82.7219C77.7718 81.0321 77.3705 79.3503 76.9566 77.6651C76.8494 77.2003 76.7452 77.1314 76.3275 77.1899C76.1377 77.3639 76.1837 77.5739 76.2343 77.7919L77.1336 81.379C77.2442 81.8312 77.3975 82.3016 77.4941 82.7296C77.5907 83.1576 77.646 83.3836 77.6936 83.6894C77.7411 83.9952 77.7973 84.167 78.0656 84.2594Z" fill="#D1D1D1"/>
<path d="M80.5485 75.6563C80.751 75.4857 80.7351 75.2906 80.6383 75.067C79.9759 73.622 79.3251 72.1595 78.6581 70.7064C78.444 70.3356 78.4021 70.263 77.9686 70.4058C77.8102 70.6155 77.8804 70.8115 77.9759 71.0143C78.3769 71.8578 78.7779 72.7012 79.1627 73.554C79.4402 74.1463 79.6807 74.7491 79.9455 75.338C80.1075 75.6745 80.1503 75.6927 80.5485 75.6563Z" fill="#D1D1D1"/>
<path d="M82.8205 88.2326C83.143 88.0464 83.0471 87.7686 82.9525 87.5115C82.5235 86.3402 82.1025 85.1643 81.6549 83.9608C81.5386 83.7592 81.5317 83.5052 81.4441 83.2977C81.3624 83.1372 81.2723 82.9812 81.1742 82.8301C80.6795 82.9975 80.642 83.1374 80.7485 83.4521C81.2573 84.9106 81.7742 86.3643 82.2829 87.8228C82.3789 88.1006 82.502 88.2768 82.8205 88.2326Z" fill="#D1D1D1"/>
<path d="M86.3283 81.6083L86.8363 81.315C86.2171 80.2425 85.6212 79.2103 85.0019 78.1377L84.4762 78.3445C84.5002 78.5136 84.5452 78.6791 84.61 78.8371C85.1082 79.6999 85.6064 80.5628 86.161 81.3931C86.2122 81.4682 86.2681 81.5401 86.3283 81.6083Z" fill="#D1D1D1"/>
<path d="M75.2721 66.2762C74.805 66.4169 74.7234 66.5177 74.8324 66.8741C74.9414 67.2305 75.0792 67.3015 75.1277 67.5531C75.309 68.072 75.4695 68.5922 75.6509 69.1112C75.7416 69.3438 75.8444 69.5716 75.9588 69.7935C76.4412 69.6978 76.5261 69.5843 76.4019 69.1829C76.2249 68.5969 76.011 68.0215 75.8132 67.4368C75.6828 67.211 75.6492 66.9294 75.5431 66.6896C75.4651 66.5441 75.3745 66.4057 75.2721 66.2762Z" fill="#D1D1D1"/>
<path d="M75.5668 74.5881C76.0076 74.4949 76.091 74.2855 76.0239 74.0017C75.9037 73.4582 75.7788 72.9067 75.6412 72.3517C75.5694 72.0598 75.4363 71.9969 74.9599 72.1214C74.7886 72.8117 75.2603 73.4426 75.2701 74.0928C75.294 74.2833 75.4657 74.4315 75.5668 74.5881Z" fill="#D1D1D1"/>
<path d="M84.0255 83.077C84.0594 82.9146 84.0579 82.7468 84.021 82.585C83.8084 82.0304 83.5588 81.4864 83.3219 80.9457C83.2981 80.8744 83.2601 80.8085 83.2102 80.7522C82.8475 80.7573 82.8475 80.7573 82.6215 81.0921C82.682 81.1969 82.7518 81.3179 82.8263 81.4469C83.0235 81.8815 83.2274 82.2906 83.4304 82.754C83.4441 82.8168 83.4711 82.8759 83.5097 82.9273C83.5483 82.9787 83.5975 83.0212 83.654 83.0518C83.7104 83.0825 83.7729 83.1006 83.837 83.105C83.9011 83.1093 83.9654 83.0998 84.0255 83.077Z" fill="#D1D1D1"/>
<path d="M78.5029 87.1577C78.7617 87.4384 78.956 87.4768 79.1641 87.2599C79.1861 86.5187 79.011 85.785 78.6568 85.1336L78.1927 85.1864C78.1231 85.904 78.6305 86.5034 78.5029 87.1577Z" fill="#D1D1D1"/>
<path d="M81.938 78.9396C82.2131 78.727 82.1752 78.5123 82.0817 78.276C81.9883 78.0396 81.8178 77.6327 81.6697 77.3203C81.6151 77.1832 81.5209 77.0654 81.3991 76.982C81.1686 76.8247 80.7998 77.0054 80.8911 77.2753C81.0324 77.8907 81.3278 78.4601 81.7497 78.93C81.7832 78.9322 81.9147 78.8993 81.938 78.9396Z" fill="#D1D1D1"/>
<path d="M78.5221 68.0869L78.885 67.8774C78.8921 67.6799 78.8435 67.4844 78.7447 67.3132C78.6459 67.1421 78.5009 67.0022 78.3263 66.9097L77.9302 67.1921C77.9467 67.3787 78.0095 67.5582 78.1128 67.7145C78.2162 67.8707 78.3568 67.9987 78.5221 68.0869Z" fill="#D1D1D1"/>
<path d="M82.955 74.8152C82.3669 75.0257 82.3813 75.4045 83.0109 75.955L83.4352 75.796C83.4525 75.6042 83.4169 75.4114 83.3323 75.2384C83.2476 75.0655 83.1171 74.9191 82.955 74.8152Z" fill="#D1D1D1"/>
<path d="M92.1469 114.98C92.0539 115.071 91.9972 115.193 91.9874 115.324C91.9776 115.454 92.0152 115.583 92.0934 115.688C92.2749 116.002 92.4968 116.293 92.6783 116.608C93.2741 117.64 93.8746 118.68 94.4751 119.72C94.5682 119.881 94.6566 120.034 94.7497 120.195C94.7874 120.314 94.8659 120.416 94.9714 120.483C95.0769 120.55 95.2026 120.578 95.3264 120.561C95.5871 120.249 95.6038 120.111 95.4189 119.809C94.6788 118.527 93.8983 117.268 93.1421 115.996C93.0071 115.762 92.8768 115.536 92.7418 115.303C92.6068 115.069 92.4824 114.872 92.1469 114.98Z" fill="#D1D1D1"/>
<path d="M97.2725 120.394C97.7705 121.257 98.2122 122.152 98.678 123.033C98.8502 123.331 99.0608 123.436 99.2738 123.302C99.4869 123.168 99.4961 122.905 99.3297 122.635L96.5602 117.838C96.3973 117.556 96.1739 117.449 95.9643 117.57C95.7547 117.691 95.7442 117.933 95.9164 118.231L97.1918 120.441L97.2725 120.394Z" fill="#D1D1D1"/>
<path d="M86.4907 101.627C86.9262 101.375 86.9926 101.229 86.7738 100.85C86.5549 100.471 86.2616 99.9633 86.0009 99.5117C85.8193 99.1972 85.6377 98.8827 85.4561 98.5682C85.4208 98.4576 85.362 98.3558 85.2839 98.2698C85.1635 98.2103 84.9773 98.1673 84.8806 98.2231C84.8278 98.2695 84.7852 98.3261 84.7552 98.3897C84.7253 98.4532 84.7088 98.5222 84.7066 98.5923C84.7471 98.7178 84.8138 98.8332 84.9022 98.931C85.3259 99.6649 85.7496 100.399 86.1733 101.133C86.267 101.305 86.3731 101.47 86.4907 101.627Z" fill="#D1D1D1"/>
<path d="M89.5918 110.553C89.8334 110.339 89.7573 110.114 89.6223 109.88C89.2498 109.235 88.8774 108.59 88.5002 107.936C88.4683 107.862 88.4277 107.792 88.3792 107.727C88.2814 107.557 88.0639 107.479 87.8971 107.618C87.7302 107.757 87.7759 107.892 87.7557 108.044C87.7835 108.141 87.8347 108.229 87.9047 108.302C88.2772 108.947 88.6497 109.592 89.0222 110.237C89.1169 110.494 89.2931 110.651 89.5918 110.553Z" fill="#D1D1D1"/>
<path d="M89.6157 106.369C89.6818 106.265 89.7134 106.143 89.706 106.019C89.6987 105.896 89.6526 105.779 89.5745 105.683L88.3407 103.546C88.1964 103.296 88.0214 103.161 87.7286 103.287C87.4358 103.413 87.5907 103.7 87.7164 103.917C88.1168 104.611 88.5125 105.296 88.9129 105.99C89.1169 106.399 89.2199 106.447 89.6157 106.369Z" fill="#D1D1D1"/>
<path d="M81.7393 96.8774C82.0941 96.393 81.588 96.0938 81.4455 95.7353C81.303 95.3767 81.1894 95.2917 80.8436 95.4376C80.6023 95.7274 80.7144 95.996 80.913 96.2469C81.1116 96.4978 81.1602 97.0289 81.7393 96.8774Z" fill="#D1D1D1"/>
<path d="M122.509 144.834C122.754 144.761 122.992 144.67 123.223 144.562C125.122 143.483 126.92 142.236 128.596 140.836C129.39 140.175 130.146 139.469 130.859 138.723C131.271 138.267 131.534 137.697 131.614 137.088C131.694 136.479 131.588 135.86 131.31 135.313C130.951 134.693 130.593 134.072 130.234 133.451C130.132 133.28 130.006 133.125 129.86 132.99C129.762 132.897 129.633 132.844 129.499 132.841C129.364 132.837 129.232 132.884 129.129 132.971C129.025 133.043 128.951 133.151 128.919 133.274C128.888 133.396 128.901 133.526 128.957 133.64C129.015 133.76 129.082 133.876 129.157 133.987C129.497 134.575 129.841 135.172 130.181 135.761C130.331 136.048 130.403 136.37 130.39 136.694C130.378 137.018 130.281 137.333 130.108 137.608C129.965 137.875 129.776 138.115 129.55 138.318C127.483 140.287 125.198 142.013 122.74 143.464L122.498 143.604C122.01 143.95 121.986 144.319 122.509 144.834Z" fill="#D1D1D1"/>
<path d="M119.086 146.724C119.473 146.501 119.614 146.205 119.486 145.87C119.455 145.796 119.41 145.73 119.352 145.674C119.295 145.618 119.227 145.575 119.152 145.547C119.077 145.518 118.997 145.506 118.917 145.509C118.838 145.513 118.759 145.533 118.687 145.568C117.998 145.826 117.313 146.092 116.637 146.375C116.222 146.55 116.102 146.845 116.234 147.167C116.26 147.252 116.304 147.331 116.363 147.397C116.423 147.464 116.497 147.516 116.58 147.549C116.662 147.583 116.751 147.598 116.84 147.593C116.929 147.588 117.016 147.563 117.094 147.52C117.776 147.266 118.459 146.979 119.086 146.724Z" fill="#D1D1D1"/>
</svg>
